G04 #@! TF.FileFunction,Soldermask,Top*
%FSLAX46Y46*%
G04 Gerber Fmt 4.6, Leading zero omitted, Abs format (unit mm)*
G04 Created by KiCad (PCBNEW 4.0.6) date Sat Dec  9 15:37:01 2017*
%MOMM*%
%LPD*%
G01*
G04 APERTURE LIST*
%ADD10C,0.100000*%
%ADD11R,1.700000X1.700000*%
%ADD12O,1.700000X1.700000*%
%ADD13R,3.800000X2.000000*%
%ADD14R,1.500000X2.000000*%
%ADD15C,1.600000*%
%ADD16O,1.600000X1.600000*%
%ADD17R,1.600000X1.600000*%
%ADD18R,2.030000X2.650000*%
%ADD19R,2.650000X2.030000*%
G04 APERTURE END LIST*
D10*
D11*
X148590000Y-151130000D03*
D12*
X148590000Y-148590000D03*
X148590000Y-146050000D03*
X148590000Y-143510000D03*
D11*
X180340000Y-91440000D03*
D12*
X182880000Y-91440000D03*
X180340000Y-93980000D03*
X182880000Y-93980000D03*
X180340000Y-96520000D03*
X182880000Y-96520000D03*
X180340000Y-99060000D03*
X182880000Y-99060000D03*
X180340000Y-101600000D03*
X182880000Y-101600000D03*
X180340000Y-104140000D03*
X182880000Y-104140000D03*
X180340000Y-106680000D03*
X182880000Y-106680000D03*
X180340000Y-109220000D03*
X182880000Y-109220000D03*
X180340000Y-111760000D03*
X182880000Y-111760000D03*
X180340000Y-114300000D03*
X182880000Y-114300000D03*
X180340000Y-116840000D03*
X182880000Y-116840000D03*
X180340000Y-119380000D03*
X182880000Y-119380000D03*
X180340000Y-121920000D03*
X182880000Y-121920000D03*
X180340000Y-124460000D03*
X182880000Y-124460000D03*
X180340000Y-127000000D03*
X182880000Y-127000000D03*
X180340000Y-129540000D03*
X182880000Y-129540000D03*
X180340000Y-132080000D03*
X182880000Y-132080000D03*
X180340000Y-134620000D03*
X182880000Y-134620000D03*
X180340000Y-137160000D03*
X182880000Y-137160000D03*
X180340000Y-139700000D03*
X182880000Y-139700000D03*
D11*
X156210000Y-146685000D03*
D12*
X156210000Y-149225000D03*
X156210000Y-151765000D03*
D11*
X173990000Y-93980000D03*
D12*
X173990000Y-96520000D03*
D11*
X158750000Y-93980000D03*
D12*
X158750000Y-96520000D03*
D11*
X170180000Y-93980000D03*
D12*
X170180000Y-96520000D03*
D11*
X166370000Y-93980000D03*
D12*
X166370000Y-96520000D03*
D11*
X148590000Y-138430000D03*
D12*
X151130000Y-138430000D03*
D11*
X148590000Y-133350000D03*
D12*
X151130000Y-133350000D03*
D11*
X148590000Y-128270000D03*
D12*
X151130000Y-128270000D03*
D11*
X148590000Y-123190000D03*
D12*
X151130000Y-123190000D03*
D11*
X148590000Y-118110000D03*
D12*
X151130000Y-118110000D03*
D11*
X148590000Y-113030000D03*
D12*
X151130000Y-113030000D03*
D11*
X148590000Y-107950000D03*
D12*
X151130000Y-107950000D03*
D11*
X148590000Y-102870000D03*
D12*
X151130000Y-102870000D03*
D13*
X135890000Y-125120000D03*
D14*
X135890000Y-131420000D03*
X138190000Y-131420000D03*
X133590000Y-131420000D03*
D13*
X135890000Y-135280000D03*
D14*
X135890000Y-141580000D03*
X138190000Y-141580000D03*
X133590000Y-141580000D03*
D13*
X135890000Y-145440000D03*
D14*
X135890000Y-151740000D03*
X138190000Y-151740000D03*
X133590000Y-151740000D03*
D15*
X140970000Y-91440000D03*
D16*
X130810000Y-91440000D03*
D15*
X166370000Y-138430000D03*
D16*
X156210000Y-138430000D03*
D15*
X166370000Y-133350000D03*
D16*
X156210000Y-133350000D03*
D15*
X166370000Y-128270000D03*
D16*
X156210000Y-128270000D03*
D15*
X166370000Y-123190000D03*
D16*
X156210000Y-123190000D03*
D15*
X166370000Y-118110000D03*
D16*
X156210000Y-118110000D03*
D15*
X166370000Y-113030000D03*
D16*
X156210000Y-113030000D03*
D15*
X166370000Y-107950000D03*
D16*
X156210000Y-107950000D03*
D15*
X166370000Y-102870000D03*
D16*
X156210000Y-102870000D03*
D11*
X173990000Y-111760000D03*
D12*
X173990000Y-114300000D03*
X173990000Y-116840000D03*
X173990000Y-119380000D03*
X173990000Y-121920000D03*
X173990000Y-124460000D03*
X173990000Y-127000000D03*
X173990000Y-129540000D03*
D17*
X130810000Y-97790000D03*
D16*
X140970000Y-115570000D03*
X130810000Y-100330000D03*
X140970000Y-113030000D03*
X130810000Y-102870000D03*
X140970000Y-110490000D03*
X130810000Y-105410000D03*
X140970000Y-107950000D03*
X130810000Y-107950000D03*
X140970000Y-105410000D03*
X130810000Y-110490000D03*
X140970000Y-102870000D03*
X130810000Y-113030000D03*
X140970000Y-100330000D03*
X130810000Y-115570000D03*
X140970000Y-97790000D03*
D18*
X141605000Y-131260000D03*
X141605000Y-135440000D03*
D19*
X141420000Y-146050000D03*
X145600000Y-146050000D03*
X141420000Y-150495000D03*
X145600000Y-150495000D03*
M02*
