M48
;DRILL file {KiCad 4.0.6} date Tue Nov 21 00:50:39 2017
;FORMAT={-:-/ absolute / metric / decimal}
FMAT,2
METRIC,TZ
T1C0.800
T2C1.000
%
G90
G05
M71
T1
X133.35Y-116.84
X133.35Y-127.
X137.16Y-116.84
X137.16Y-127.
X139.7Y-116.84
X139.7Y-127.
X142.24Y-116.84
X142.24Y-127.
X144.78Y-116.84
X144.78Y-127.
X147.32Y-116.84
X147.32Y-127.
X149.86Y-116.84
X149.86Y-127.
X152.4Y-116.84
X152.4Y-127.
X154.94Y-116.84
X154.94Y-127.
X167.64Y-100.33
X167.64Y-106.68
X167.64Y-113.03
X167.64Y-119.38
X167.64Y-125.73
X167.64Y-132.08
X167.64Y-138.43
X167.64Y-144.78
X177.8Y-100.33
X177.8Y-106.68
X177.8Y-113.03
X177.8Y-119.38
X177.8Y-125.73
X177.8Y-132.08
X177.8Y-138.43
X177.8Y-144.78
T2
X160.02Y-100.33
X160.02Y-106.68
X160.02Y-113.03
X160.02Y-119.38
X160.02Y-125.73
X160.02Y-132.08
X160.02Y-138.43
X160.02Y-144.78
X162.56Y-100.33
X162.56Y-106.68
X162.56Y-113.03
X162.56Y-119.38
X162.56Y-125.73
X162.56Y-132.08
X162.56Y-138.43
X162.56Y-144.78
X184.15Y-96.52
X184.15Y-99.06
X184.15Y-101.6
X184.15Y-104.14
X184.15Y-106.68
X184.15Y-109.22
X184.15Y-111.76
X184.15Y-114.3
X184.15Y-116.84
X184.15Y-119.38
X184.15Y-121.92
X184.15Y-124.46
X184.15Y-127.
X184.15Y-129.54
X184.15Y-132.08
X184.15Y-134.62
X184.15Y-137.16
X184.15Y-139.7
X184.15Y-142.24
X184.15Y-144.78
X186.69Y-96.52
X186.69Y-99.06
X186.69Y-101.6
X186.69Y-104.14
X186.69Y-106.68
X186.69Y-109.22
X186.69Y-111.76
X186.69Y-114.3
X186.69Y-116.84
X186.69Y-119.38
X186.69Y-121.92
X186.69Y-124.46
X186.69Y-127.
X186.69Y-129.54
X186.69Y-132.08
X186.69Y-134.62
X186.69Y-137.16
X186.69Y-139.7
X186.69Y-142.24
X186.69Y-144.78
X190.5Y-95.25
X190.5Y-97.79
X190.5Y-104.14
X190.5Y-106.68
T0
M30
