M48
;DRILL file {KiCad 4.0.6} date Mon Nov 20 04:10:08 2017
;FORMAT={-:-/ absolute / inch / decimal}
FMAT,2
INCH,TZ
T1C0.031
T2C0.039
%
G90
G05
M72
T1
X5.25Y-4.6
X5.25Y-5.
X5.4Y-4.6
X5.4Y-5.
X5.5Y-4.6
X5.5Y-5.
X5.6Y-4.6
X5.6Y-5.
X5.7Y-4.6
X5.7Y-5.
X5.8Y-4.6
X5.8Y-5.
X5.9Y-4.6
X5.9Y-5.
X6.Y-4.6
X6.Y-5.
X6.1Y-4.6
X6.1Y-5.
X6.6Y-3.95
X6.6Y-4.2
X6.6Y-4.45
X6.6Y-4.7
X6.6Y-4.95
X6.6Y-5.2
X6.6Y-5.45
X6.6Y-5.7
X7.Y-3.95
X7.Y-4.2
X7.Y-4.45
X7.Y-4.7
X7.Y-4.95
X7.Y-5.2
X7.Y-5.45
X7.Y-5.7
T2
X6.3Y-3.95
X6.3Y-4.2
X6.3Y-4.45
X6.3Y-4.7
X6.3Y-4.95
X6.3Y-5.2
X6.3Y-5.45
X6.3Y-5.7
X6.4Y-3.95
X6.4Y-4.2
X6.4Y-4.45
X6.4Y-4.7
X6.4Y-4.95
X6.4Y-5.2
X6.4Y-5.45
X6.4Y-5.7
X7.25Y-3.8
X7.25Y-3.9
X7.25Y-4.
X7.25Y-4.1
X7.25Y-4.2
X7.25Y-4.3
X7.25Y-4.4
X7.25Y-4.5
X7.25Y-4.6
X7.25Y-4.7
X7.25Y-4.8
X7.25Y-4.9
X7.25Y-5.
X7.25Y-5.1
X7.25Y-5.2
X7.25Y-5.3
X7.25Y-5.4
X7.25Y-5.5
X7.25Y-5.6
X7.25Y-5.7
X7.35Y-3.8
X7.35Y-3.9
X7.35Y-4.
X7.35Y-4.1
X7.35Y-4.2
X7.35Y-4.3
X7.35Y-4.4
X7.35Y-4.5
X7.35Y-4.6
X7.35Y-4.7
X7.35Y-4.8
X7.35Y-4.9
X7.35Y-5.
X7.35Y-5.1
X7.35Y-5.2
X7.35Y-5.3
X7.35Y-5.4
X7.35Y-5.5
X7.35Y-5.6
X7.35Y-5.7
X7.5Y-3.75
X7.5Y-3.85
X7.5Y-4.1
X7.5Y-4.2
T0
M30
