G04 #@! TF.FileFunction,Legend,Top*
%FSLAX46Y46*%
G04 Gerber Fmt 4.6, Leading zero omitted, Abs format (unit mm)*
G04 Created by KiCad (PCBNEW 4.0.6) date Wed Nov 22 05:52:22 2017*
%MOMM*%
%LPD*%
G01*
G04 APERTURE LIST*
%ADD10C,0.100000*%
%ADD11C,0.300000*%
%ADD12C,0.120000*%
%ADD13C,0.010000*%
%ADD14C,0.150000*%
G04 APERTURE END LIST*
D10*
D11*
X150844287Y-150308571D02*
X150130001Y-150308571D01*
X150058572Y-151022857D01*
X150130001Y-150951429D01*
X150272858Y-150880000D01*
X150630001Y-150880000D01*
X150772858Y-150951429D01*
X150844287Y-151022857D01*
X150915715Y-151165714D01*
X150915715Y-151522857D01*
X150844287Y-151665714D01*
X150772858Y-151737143D01*
X150630001Y-151808571D01*
X150272858Y-151808571D01*
X150130001Y-151737143D01*
X150058572Y-151665714D01*
X151344286Y-150308571D02*
X151844286Y-151808571D01*
X152344286Y-150308571D01*
X156358571Y-154348571D02*
X156358571Y-152848571D01*
X156858571Y-153920000D01*
X157358571Y-152848571D01*
X157358571Y-154348571D01*
X158287143Y-154348571D02*
X158144285Y-154277143D01*
X158072857Y-154205714D01*
X158001428Y-154062857D01*
X158001428Y-153634286D01*
X158072857Y-153491429D01*
X158144285Y-153420000D01*
X158287143Y-153348571D01*
X158501428Y-153348571D01*
X158644285Y-153420000D01*
X158715714Y-153491429D01*
X158787143Y-153634286D01*
X158787143Y-154062857D01*
X158715714Y-154205714D01*
X158644285Y-154277143D01*
X158501428Y-154348571D01*
X158287143Y-154348571D01*
X159430000Y-154348571D02*
X159430000Y-153348571D01*
X159430000Y-153634286D02*
X159501428Y-153491429D01*
X159572857Y-153420000D01*
X159715714Y-153348571D01*
X159858571Y-153348571D01*
X160929999Y-154277143D02*
X160787142Y-154348571D01*
X160501428Y-154348571D01*
X160358571Y-154277143D01*
X160287142Y-154134286D01*
X160287142Y-153562857D01*
X160358571Y-153420000D01*
X160501428Y-153348571D01*
X160787142Y-153348571D01*
X160929999Y-153420000D01*
X161001428Y-153562857D01*
X161001428Y-153705714D01*
X160287142Y-153848571D01*
X162644285Y-153348571D02*
X162929999Y-154348571D01*
X163215713Y-153634286D01*
X163501428Y-154348571D01*
X163787142Y-153348571D01*
X164572857Y-154348571D02*
X164429999Y-154277143D01*
X164358571Y-154205714D01*
X164287142Y-154062857D01*
X164287142Y-153634286D01*
X164358571Y-153491429D01*
X164429999Y-153420000D01*
X164572857Y-153348571D01*
X164787142Y-153348571D01*
X164929999Y-153420000D01*
X165001428Y-153491429D01*
X165072857Y-153634286D01*
X165072857Y-154062857D01*
X165001428Y-154205714D01*
X164929999Y-154277143D01*
X164787142Y-154348571D01*
X164572857Y-154348571D01*
X165715714Y-154348571D02*
X165715714Y-153348571D01*
X165715714Y-153634286D02*
X165787142Y-153491429D01*
X165858571Y-153420000D01*
X166001428Y-153348571D01*
X166144285Y-153348571D01*
X166644285Y-154348571D02*
X166644285Y-152848571D01*
X166787142Y-153777143D02*
X167215713Y-154348571D01*
X167215713Y-153348571D02*
X166644285Y-153920000D01*
X169001428Y-154348571D02*
X169001428Y-152848571D01*
X169001428Y-153420000D02*
X169144285Y-153348571D01*
X169429999Y-153348571D01*
X169572856Y-153420000D01*
X169644285Y-153491429D01*
X169715714Y-153634286D01*
X169715714Y-154062857D01*
X169644285Y-154205714D01*
X169572856Y-154277143D01*
X169429999Y-154348571D01*
X169144285Y-154348571D01*
X169001428Y-154277143D01*
X170215714Y-153348571D02*
X170572857Y-154348571D01*
X170929999Y-153348571D02*
X170572857Y-154348571D01*
X170429999Y-154705714D01*
X170358571Y-154777143D01*
X170215714Y-154848571D01*
X173287142Y-154348571D02*
X173287142Y-152848571D01*
X173287142Y-154277143D02*
X173144285Y-154348571D01*
X172858571Y-154348571D01*
X172715713Y-154277143D01*
X172644285Y-154205714D01*
X172572856Y-154062857D01*
X172572856Y-153634286D01*
X172644285Y-153491429D01*
X172715713Y-153420000D01*
X172858571Y-153348571D01*
X173144285Y-153348571D01*
X173287142Y-153420000D01*
X174572856Y-154277143D02*
X174429999Y-154348571D01*
X174144285Y-154348571D01*
X174001428Y-154277143D01*
X173929999Y-154134286D01*
X173929999Y-153562857D01*
X174001428Y-153420000D01*
X174144285Y-153348571D01*
X174429999Y-153348571D01*
X174572856Y-153420000D01*
X174644285Y-153562857D01*
X174644285Y-153705714D01*
X173929999Y-153848571D01*
X175072856Y-153348571D02*
X175644285Y-153348571D01*
X175287142Y-152848571D02*
X175287142Y-154134286D01*
X175358570Y-154277143D01*
X175501428Y-154348571D01*
X175644285Y-154348571D01*
X176144285Y-154348571D02*
X176144285Y-152848571D01*
X176787142Y-154348571D02*
X176787142Y-153562857D01*
X176715713Y-153420000D01*
X176572856Y-153348571D01*
X176358571Y-153348571D01*
X176215713Y-153420000D01*
X176144285Y-153491429D01*
X177429999Y-154277143D02*
X177572856Y-154348571D01*
X177858571Y-154348571D01*
X178001428Y-154277143D01*
X178072856Y-154134286D01*
X178072856Y-154062857D01*
X178001428Y-153920000D01*
X177858571Y-153848571D01*
X177644285Y-153848571D01*
X177501428Y-153777143D01*
X177429999Y-153634286D01*
X177429999Y-153562857D01*
X177501428Y-153420000D01*
X177644285Y-153348571D01*
X177858571Y-153348571D01*
X178001428Y-153420000D01*
X179358571Y-154348571D02*
X179358571Y-153562857D01*
X179287142Y-153420000D01*
X179144285Y-153348571D01*
X178858571Y-153348571D01*
X178715714Y-153420000D01*
X179358571Y-154277143D02*
X179215714Y-154348571D01*
X178858571Y-154348571D01*
X178715714Y-154277143D01*
X178644285Y-154134286D01*
X178644285Y-153991429D01*
X178715714Y-153848571D01*
X178858571Y-153777143D01*
X179215714Y-153777143D01*
X179358571Y-153705714D01*
X180072857Y-153348571D02*
X180072857Y-154348571D01*
X180072857Y-153491429D02*
X180144285Y-153420000D01*
X180287143Y-153348571D01*
X180501428Y-153348571D01*
X180644285Y-153420000D01*
X180715714Y-153562857D01*
X180715714Y-154348571D01*
X181430000Y-154348571D02*
X181430000Y-153348571D01*
X181430000Y-152848571D02*
X181358571Y-152920000D01*
X181430000Y-152991429D01*
X181501428Y-152920000D01*
X181430000Y-152848571D01*
X181430000Y-152991429D01*
X182787143Y-153348571D02*
X182787143Y-154348571D01*
X182144286Y-153348571D02*
X182144286Y-154134286D01*
X182215714Y-154277143D01*
X182358572Y-154348571D01*
X182572857Y-154348571D01*
X182715714Y-154277143D01*
X182787143Y-154205714D01*
X183430000Y-154277143D02*
X183572857Y-154348571D01*
X183858572Y-154348571D01*
X184001429Y-154277143D01*
X184072857Y-154134286D01*
X184072857Y-154062857D01*
X184001429Y-153920000D01*
X183858572Y-153848571D01*
X183644286Y-153848571D01*
X183501429Y-153777143D01*
X183430000Y-153634286D01*
X183430000Y-153562857D01*
X183501429Y-153420000D01*
X183644286Y-153348571D01*
X183858572Y-153348571D01*
X184001429Y-153420000D01*
X168358572Y-130147143D02*
X168572858Y-130218571D01*
X168930001Y-130218571D01*
X169072858Y-130147143D01*
X169144287Y-130075714D01*
X169215715Y-129932857D01*
X169215715Y-129790000D01*
X169144287Y-129647143D01*
X169072858Y-129575714D01*
X168930001Y-129504286D01*
X168644287Y-129432857D01*
X168501429Y-129361429D01*
X168430001Y-129290000D01*
X168358572Y-129147143D01*
X168358572Y-129004286D01*
X168430001Y-128861429D01*
X168501429Y-128790000D01*
X168644287Y-128718571D01*
X169001429Y-128718571D01*
X169215715Y-128790000D01*
X169858572Y-130218571D02*
X169858572Y-128718571D01*
X170215715Y-128718571D01*
X170430000Y-128790000D01*
X170572858Y-128932857D01*
X170644286Y-129075714D01*
X170715715Y-129361429D01*
X170715715Y-129575714D01*
X170644286Y-129861429D01*
X170572858Y-130004286D01*
X170430000Y-130147143D01*
X170215715Y-130218571D01*
X169858572Y-130218571D01*
X171287143Y-129790000D02*
X172001429Y-129790000D01*
X171144286Y-130218571D02*
X171644286Y-128718571D01*
X172144286Y-130218571D01*
X168322858Y-110938571D02*
X169251429Y-110938571D01*
X168751429Y-111510000D01*
X168965715Y-111510000D01*
X169108572Y-111581429D01*
X169180001Y-111652857D01*
X169251429Y-111795714D01*
X169251429Y-112152857D01*
X169180001Y-112295714D01*
X169108572Y-112367143D01*
X168965715Y-112438571D01*
X168537143Y-112438571D01*
X168394286Y-112367143D01*
X168322858Y-112295714D01*
X169680000Y-110938571D02*
X170180000Y-112438571D01*
X170680000Y-110938571D01*
X171037143Y-110938571D02*
X171965714Y-110938571D01*
X171465714Y-111510000D01*
X171680000Y-111510000D01*
X171822857Y-111581429D01*
X171894286Y-111652857D01*
X171965714Y-111795714D01*
X171965714Y-112152857D01*
X171894286Y-112295714D01*
X171822857Y-112367143D01*
X171680000Y-112438571D01*
X171251428Y-112438571D01*
X171108571Y-112367143D01*
X171037143Y-112295714D01*
X144736429Y-143177144D02*
X146236429Y-143177144D01*
X145165000Y-143677144D01*
X146236429Y-144177144D01*
X144736429Y-144177144D01*
X145165000Y-144820001D02*
X145165000Y-145534287D01*
X144736429Y-144677144D02*
X146236429Y-145177144D01*
X144736429Y-145677144D01*
X146236429Y-146034287D02*
X144736429Y-147034287D01*
X146236429Y-147034287D02*
X144736429Y-146034287D01*
X144879286Y-147605715D02*
X144807857Y-147677143D01*
X144736429Y-147605715D01*
X144807857Y-147534286D01*
X144879286Y-147605715D01*
X144736429Y-147605715D01*
X145665000Y-147605715D02*
X145593571Y-147677143D01*
X145522143Y-147605715D01*
X145593571Y-147534286D01*
X145665000Y-147605715D01*
X145522143Y-147605715D01*
X144736429Y-150248572D02*
X144736429Y-149391429D01*
X144736429Y-149820001D02*
X146236429Y-149820001D01*
X146022143Y-149677144D01*
X145879286Y-149534286D01*
X145807857Y-149391429D01*
X145165000Y-150820000D02*
X145165000Y-151534286D01*
X144736429Y-150677143D02*
X146236429Y-151177143D01*
X144736429Y-151677143D01*
X163552143Y-151443571D02*
X163552143Y-152943571D01*
X163552143Y-151515000D02*
X163695000Y-151443571D01*
X163980714Y-151443571D01*
X164123571Y-151515000D01*
X164195000Y-151586429D01*
X164266429Y-151729286D01*
X164266429Y-152157857D01*
X164195000Y-152300714D01*
X164123571Y-152372143D01*
X163980714Y-152443571D01*
X163695000Y-152443571D01*
X163552143Y-152372143D01*
X165480714Y-152372143D02*
X165337857Y-152443571D01*
X165052143Y-152443571D01*
X164909286Y-152372143D01*
X164837857Y-152229286D01*
X164837857Y-151657857D01*
X164909286Y-151515000D01*
X165052143Y-151443571D01*
X165337857Y-151443571D01*
X165480714Y-151515000D01*
X165552143Y-151657857D01*
X165552143Y-151800714D01*
X164837857Y-151943571D01*
X165980714Y-151443571D02*
X166552143Y-151443571D01*
X166195000Y-150943571D02*
X166195000Y-152229286D01*
X166266428Y-152372143D01*
X166409286Y-152443571D01*
X166552143Y-152443571D01*
X166837857Y-151443571D02*
X167409286Y-151443571D01*
X167052143Y-150943571D02*
X167052143Y-152229286D01*
X167123571Y-152372143D01*
X167266429Y-152443571D01*
X167409286Y-152443571D01*
X168480714Y-152372143D02*
X168337857Y-152443571D01*
X168052143Y-152443571D01*
X167909286Y-152372143D01*
X167837857Y-152229286D01*
X167837857Y-151657857D01*
X167909286Y-151515000D01*
X168052143Y-151443571D01*
X168337857Y-151443571D01*
X168480714Y-151515000D01*
X168552143Y-151657857D01*
X168552143Y-151800714D01*
X167837857Y-151943571D01*
X169195000Y-152443571D02*
X169195000Y-151443571D01*
X169195000Y-151729286D02*
X169266428Y-151586429D01*
X169337857Y-151515000D01*
X169480714Y-151443571D01*
X169623571Y-151443571D01*
X170123571Y-152443571D02*
X170123571Y-151443571D01*
X170123571Y-151729286D02*
X170194999Y-151586429D01*
X170266428Y-151515000D01*
X170409285Y-151443571D01*
X170552142Y-151443571D01*
X171266428Y-152443571D02*
X171123570Y-152372143D01*
X171052142Y-152300714D01*
X170980713Y-152157857D01*
X170980713Y-151729286D01*
X171052142Y-151586429D01*
X171123570Y-151515000D01*
X171266428Y-151443571D01*
X171480713Y-151443571D01*
X171623570Y-151515000D01*
X171694999Y-151586429D01*
X171766428Y-151729286D01*
X171766428Y-152157857D01*
X171694999Y-152300714D01*
X171623570Y-152372143D01*
X171480713Y-152443571D01*
X171266428Y-152443571D01*
X172980713Y-152372143D02*
X172837856Y-152443571D01*
X172552142Y-152443571D01*
X172409285Y-152372143D01*
X172337856Y-152229286D01*
X172337856Y-151657857D01*
X172409285Y-151515000D01*
X172552142Y-151443571D01*
X172837856Y-151443571D01*
X172980713Y-151515000D01*
X173052142Y-151657857D01*
X173052142Y-151800714D01*
X172337856Y-151943571D01*
X174337856Y-152443571D02*
X174337856Y-151657857D01*
X174266427Y-151515000D01*
X174123570Y-151443571D01*
X173837856Y-151443571D01*
X173694999Y-151515000D01*
X174337856Y-152372143D02*
X174194999Y-152443571D01*
X173837856Y-152443571D01*
X173694999Y-152372143D01*
X173623570Y-152229286D01*
X173623570Y-152086429D01*
X173694999Y-151943571D01*
X173837856Y-151872143D01*
X174194999Y-151872143D01*
X174337856Y-151800714D01*
X176123570Y-151086429D02*
X176194999Y-151015000D01*
X176337856Y-150943571D01*
X176694999Y-150943571D01*
X176837856Y-151015000D01*
X176909285Y-151086429D01*
X176980713Y-151229286D01*
X176980713Y-151372143D01*
X176909285Y-151586429D01*
X176052142Y-152443571D01*
X176980713Y-152443571D01*
X177909284Y-150943571D02*
X178052141Y-150943571D01*
X178194998Y-151015000D01*
X178266427Y-151086429D01*
X178337856Y-151229286D01*
X178409284Y-151515000D01*
X178409284Y-151872143D01*
X178337856Y-152157857D01*
X178266427Y-152300714D01*
X178194998Y-152372143D01*
X178052141Y-152443571D01*
X177909284Y-152443571D01*
X177766427Y-152372143D01*
X177694998Y-152300714D01*
X177623570Y-152157857D01*
X177552141Y-151872143D01*
X177552141Y-151515000D01*
X177623570Y-151229286D01*
X177694998Y-151086429D01*
X177766427Y-151015000D01*
X177909284Y-150943571D01*
X179837855Y-152443571D02*
X178980712Y-152443571D01*
X179409284Y-152443571D02*
X179409284Y-150943571D01*
X179266427Y-151157857D01*
X179123569Y-151300714D01*
X178980712Y-151372143D01*
X180337855Y-150943571D02*
X181337855Y-150943571D01*
X180694998Y-152443571D01*
X164266429Y-150538571D02*
X163552143Y-150538571D01*
X163552143Y-149038571D01*
X164766429Y-149752857D02*
X165266429Y-149752857D01*
X165480715Y-150538571D02*
X164766429Y-150538571D01*
X164766429Y-149038571D01*
X165480715Y-149038571D01*
X166123572Y-150538571D02*
X166123572Y-149038571D01*
X166480715Y-149038571D01*
X166695000Y-149110000D01*
X166837858Y-149252857D01*
X166909286Y-149395714D01*
X166980715Y-149681429D01*
X166980715Y-149895714D01*
X166909286Y-150181429D01*
X166837858Y-150324286D01*
X166695000Y-150467143D01*
X166480715Y-150538571D01*
X166123572Y-150538571D01*
X168766429Y-150538571D02*
X168766429Y-149038571D01*
X168766429Y-149610000D02*
X168909286Y-149538571D01*
X169195000Y-149538571D01*
X169337857Y-149610000D01*
X169409286Y-149681429D01*
X169480715Y-149824286D01*
X169480715Y-150252857D01*
X169409286Y-150395714D01*
X169337857Y-150467143D01*
X169195000Y-150538571D01*
X168909286Y-150538571D01*
X168766429Y-150467143D01*
X170123572Y-150538571D02*
X170123572Y-149538571D01*
X170123572Y-149824286D02*
X170195000Y-149681429D01*
X170266429Y-149610000D01*
X170409286Y-149538571D01*
X170552143Y-149538571D01*
X171623571Y-150467143D02*
X171480714Y-150538571D01*
X171195000Y-150538571D01*
X171052143Y-150467143D01*
X170980714Y-150324286D01*
X170980714Y-149752857D01*
X171052143Y-149610000D01*
X171195000Y-149538571D01*
X171480714Y-149538571D01*
X171623571Y-149610000D01*
X171695000Y-149752857D01*
X171695000Y-149895714D01*
X170980714Y-150038571D01*
X172980714Y-150538571D02*
X172980714Y-149752857D01*
X172909285Y-149610000D01*
X172766428Y-149538571D01*
X172480714Y-149538571D01*
X172337857Y-149610000D01*
X172980714Y-150467143D02*
X172837857Y-150538571D01*
X172480714Y-150538571D01*
X172337857Y-150467143D01*
X172266428Y-150324286D01*
X172266428Y-150181429D01*
X172337857Y-150038571D01*
X172480714Y-149967143D01*
X172837857Y-149967143D01*
X172980714Y-149895714D01*
X173695000Y-150538571D02*
X173695000Y-149038571D01*
X173837857Y-149967143D02*
X174266428Y-150538571D01*
X174266428Y-149538571D02*
X173695000Y-150110000D01*
X175123572Y-150538571D02*
X174980714Y-150467143D01*
X174909286Y-150395714D01*
X174837857Y-150252857D01*
X174837857Y-149824286D01*
X174909286Y-149681429D01*
X174980714Y-149610000D01*
X175123572Y-149538571D01*
X175337857Y-149538571D01*
X175480714Y-149610000D01*
X175552143Y-149681429D01*
X175623572Y-149824286D01*
X175623572Y-150252857D01*
X175552143Y-150395714D01*
X175480714Y-150467143D01*
X175337857Y-150538571D01*
X175123572Y-150538571D01*
X176909286Y-149538571D02*
X176909286Y-150538571D01*
X176266429Y-149538571D02*
X176266429Y-150324286D01*
X176337857Y-150467143D01*
X176480715Y-150538571D01*
X176695000Y-150538571D01*
X176837857Y-150467143D01*
X176909286Y-150395714D01*
X177409286Y-149538571D02*
X177980715Y-149538571D01*
X177623572Y-149038571D02*
X177623572Y-150324286D01*
X177695000Y-150467143D01*
X177837858Y-150538571D01*
X177980715Y-150538571D01*
X172704286Y-133393571D02*
X172204286Y-132679286D01*
X171847143Y-133393571D02*
X171847143Y-131893571D01*
X172418571Y-131893571D01*
X172561429Y-131965000D01*
X172632857Y-132036429D01*
X172704286Y-132179286D01*
X172704286Y-132393571D01*
X172632857Y-132536429D01*
X172561429Y-132607857D01*
X172418571Y-132679286D01*
X171847143Y-132679286D01*
X173847143Y-132607857D02*
X173347143Y-132607857D01*
X173347143Y-133393571D02*
X173347143Y-131893571D01*
X174061429Y-131893571D01*
X174632857Y-133393571D02*
X174632857Y-131893571D01*
X175347143Y-133393571D02*
X175347143Y-131893571D01*
X175704286Y-131893571D01*
X175918571Y-131965000D01*
X176061429Y-132107857D01*
X176132857Y-132250714D01*
X176204286Y-132536429D01*
X176204286Y-132750714D01*
X176132857Y-133036429D01*
X176061429Y-133179286D01*
X175918571Y-133322143D01*
X175704286Y-133393571D01*
X175347143Y-133393571D01*
X156257858Y-150943571D02*
X157186429Y-150943571D01*
X156686429Y-151515000D01*
X156900715Y-151515000D01*
X157043572Y-151586429D01*
X157115001Y-151657857D01*
X157186429Y-151800714D01*
X157186429Y-152157857D01*
X157115001Y-152300714D01*
X157043572Y-152372143D01*
X156900715Y-152443571D01*
X156472143Y-152443571D01*
X156329286Y-152372143D01*
X156257858Y-152300714D01*
X157615000Y-150943571D02*
X158115000Y-152443571D01*
X158615000Y-150943571D01*
X158972143Y-150943571D02*
X159900714Y-150943571D01*
X159400714Y-151515000D01*
X159615000Y-151515000D01*
X159757857Y-151586429D01*
X159829286Y-151657857D01*
X159900714Y-151800714D01*
X159900714Y-152157857D01*
X159829286Y-152300714D01*
X159757857Y-152372143D01*
X159615000Y-152443571D01*
X159186428Y-152443571D01*
X159043571Y-152372143D01*
X158972143Y-152300714D01*
X156972143Y-148475000D02*
X156829286Y-148403571D01*
X156615000Y-148403571D01*
X156400715Y-148475000D01*
X156257857Y-148617857D01*
X156186429Y-148760714D01*
X156115000Y-149046429D01*
X156115000Y-149260714D01*
X156186429Y-149546429D01*
X156257857Y-149689286D01*
X156400715Y-149832143D01*
X156615000Y-149903571D01*
X156757857Y-149903571D01*
X156972143Y-149832143D01*
X157043572Y-149760714D01*
X157043572Y-149260714D01*
X156757857Y-149260714D01*
X157686429Y-149903571D02*
X157686429Y-148403571D01*
X158543572Y-149903571D01*
X158543572Y-148403571D01*
X159257858Y-149903571D02*
X159257858Y-148403571D01*
X159615001Y-148403571D01*
X159829286Y-148475000D01*
X159972144Y-148617857D01*
X160043572Y-148760714D01*
X160115001Y-149046429D01*
X160115001Y-149260714D01*
X160043572Y-149546429D01*
X159972144Y-149689286D01*
X159829286Y-149832143D01*
X159615001Y-149903571D01*
X159257858Y-149903571D01*
X157194287Y-145863571D02*
X156480001Y-145863571D01*
X156408572Y-146577857D01*
X156480001Y-146506429D01*
X156622858Y-146435000D01*
X156980001Y-146435000D01*
X157122858Y-146506429D01*
X157194287Y-146577857D01*
X157265715Y-146720714D01*
X157265715Y-147077857D01*
X157194287Y-147220714D01*
X157122858Y-147292143D01*
X156980001Y-147363571D01*
X156622858Y-147363571D01*
X156480001Y-147292143D01*
X156408572Y-147220714D01*
X157694286Y-145863571D02*
X158194286Y-147363571D01*
X158694286Y-145863571D01*
X154047143Y-97198571D02*
X153547143Y-96484286D01*
X153190000Y-97198571D02*
X153190000Y-95698571D01*
X153761428Y-95698571D01*
X153904286Y-95770000D01*
X153975714Y-95841429D01*
X154047143Y-95984286D01*
X154047143Y-96198571D01*
X153975714Y-96341429D01*
X153904286Y-96412857D01*
X153761428Y-96484286D01*
X153190000Y-96484286D01*
X154547143Y-97198571D02*
X155332857Y-96198571D01*
X154547143Y-96198571D02*
X155332857Y-97198571D01*
X155904286Y-97198571D02*
X155904286Y-95698571D01*
X156261429Y-95698571D01*
X156475714Y-95770000D01*
X156618572Y-95912857D01*
X156690000Y-96055714D01*
X156761429Y-96341429D01*
X156761429Y-96555714D01*
X156690000Y-96841429D01*
X156618572Y-96984286D01*
X156475714Y-97127143D01*
X156261429Y-97198571D01*
X155904286Y-97198571D01*
X153154286Y-93158571D02*
X154011429Y-93158571D01*
X153582858Y-94658571D02*
X153582858Y-93158571D01*
X154368572Y-94658571D02*
X155154286Y-93658571D01*
X154368572Y-93658571D02*
X155154286Y-94658571D01*
X155725715Y-94658571D02*
X155725715Y-93158571D01*
X156082858Y-93158571D01*
X156297143Y-93230000D01*
X156440001Y-93372857D01*
X156511429Y-93515714D01*
X156582858Y-93801429D01*
X156582858Y-94015714D01*
X156511429Y-94301429D01*
X156440001Y-94444286D01*
X156297143Y-94587143D01*
X156082858Y-94658571D01*
X155725715Y-94658571D01*
X160774286Y-97127143D02*
X160988572Y-97198571D01*
X161345715Y-97198571D01*
X161488572Y-97127143D01*
X161560001Y-97055714D01*
X161631429Y-96912857D01*
X161631429Y-96770000D01*
X161560001Y-96627143D01*
X161488572Y-96555714D01*
X161345715Y-96484286D01*
X161060001Y-96412857D01*
X160917143Y-96341429D01*
X160845715Y-96270000D01*
X160774286Y-96127143D01*
X160774286Y-95984286D01*
X160845715Y-95841429D01*
X160917143Y-95770000D01*
X161060001Y-95698571D01*
X161417143Y-95698571D01*
X161631429Y-95770000D01*
X163131429Y-97055714D02*
X163060000Y-97127143D01*
X162845714Y-97198571D01*
X162702857Y-97198571D01*
X162488572Y-97127143D01*
X162345714Y-96984286D01*
X162274286Y-96841429D01*
X162202857Y-96555714D01*
X162202857Y-96341429D01*
X162274286Y-96055714D01*
X162345714Y-95912857D01*
X162488572Y-95770000D01*
X162702857Y-95698571D01*
X162845714Y-95698571D01*
X163060000Y-95770000D01*
X163131429Y-95841429D01*
X164488572Y-97198571D02*
X163774286Y-97198571D01*
X163774286Y-95698571D01*
X160738572Y-94587143D02*
X160952858Y-94658571D01*
X161310001Y-94658571D01*
X161452858Y-94587143D01*
X161524287Y-94515714D01*
X161595715Y-94372857D01*
X161595715Y-94230000D01*
X161524287Y-94087143D01*
X161452858Y-94015714D01*
X161310001Y-93944286D01*
X161024287Y-93872857D01*
X160881429Y-93801429D01*
X160810001Y-93730000D01*
X160738572Y-93587143D01*
X160738572Y-93444286D01*
X160810001Y-93301429D01*
X160881429Y-93230000D01*
X161024287Y-93158571D01*
X161381429Y-93158571D01*
X161595715Y-93230000D01*
X162238572Y-94658571D02*
X162238572Y-93158571D01*
X162595715Y-93158571D01*
X162810000Y-93230000D01*
X162952858Y-93372857D01*
X163024286Y-93515714D01*
X163095715Y-93801429D01*
X163095715Y-94015714D01*
X163024286Y-94301429D01*
X162952858Y-94444286D01*
X162810000Y-94587143D01*
X162595715Y-94658571D01*
X162238572Y-94658571D01*
X163667143Y-94230000D02*
X164381429Y-94230000D01*
X163524286Y-94658571D02*
X164024286Y-93158571D01*
X164524286Y-94658571D01*
D12*
X149920000Y-149860000D02*
X149920000Y-142180000D01*
X149920000Y-142180000D02*
X147260000Y-142180000D01*
X147260000Y-142180000D02*
X147260000Y-149860000D01*
X147260000Y-149860000D02*
X149920000Y-149860000D01*
X149920000Y-151130000D02*
X149920000Y-152460000D01*
X149920000Y-152460000D02*
X148590000Y-152460000D01*
X179010000Y-141030000D02*
X184210000Y-141030000D01*
X179010000Y-92710000D02*
X179010000Y-141030000D01*
X184210000Y-90110000D02*
X184210000Y-141030000D01*
X179010000Y-92710000D02*
X181610000Y-92710000D01*
X181610000Y-92710000D02*
X181610000Y-90110000D01*
X181610000Y-90110000D02*
X184210000Y-90110000D01*
X179010000Y-91440000D02*
X179010000Y-90110000D01*
X179010000Y-90110000D02*
X180340000Y-90110000D01*
X152975000Y-147955000D02*
X152975000Y-153095000D01*
X152975000Y-153095000D02*
X155635000Y-153095000D01*
X155635000Y-153095000D02*
X155635000Y-147955000D01*
X155635000Y-147955000D02*
X152975000Y-147955000D01*
X152975000Y-146685000D02*
X152975000Y-145355000D01*
X152975000Y-145355000D02*
X154305000Y-145355000D01*
X172660000Y-95250000D02*
X172660000Y-97850000D01*
X172660000Y-97850000D02*
X175320000Y-97850000D01*
X175320000Y-97850000D02*
X175320000Y-95250000D01*
X175320000Y-95250000D02*
X172660000Y-95250000D01*
X172660000Y-93980000D02*
X172660000Y-92650000D01*
X172660000Y-92650000D02*
X173990000Y-92650000D01*
X157420000Y-95250000D02*
X157420000Y-97850000D01*
X157420000Y-97850000D02*
X160080000Y-97850000D01*
X160080000Y-97850000D02*
X160080000Y-95250000D01*
X160080000Y-95250000D02*
X157420000Y-95250000D01*
X157420000Y-93980000D02*
X157420000Y-92650000D01*
X157420000Y-92650000D02*
X158750000Y-92650000D01*
X168850000Y-95250000D02*
X168850000Y-97850000D01*
X168850000Y-97850000D02*
X171510000Y-97850000D01*
X171510000Y-97850000D02*
X171510000Y-95250000D01*
X171510000Y-95250000D02*
X168850000Y-95250000D01*
X168850000Y-93980000D02*
X168850000Y-92650000D01*
X168850000Y-92650000D02*
X170180000Y-92650000D01*
X165040000Y-95250000D02*
X165040000Y-97850000D01*
X165040000Y-97850000D02*
X167700000Y-97850000D01*
X167700000Y-97850000D02*
X167700000Y-95250000D01*
X167700000Y-95250000D02*
X165040000Y-95250000D01*
X165040000Y-93980000D02*
X165040000Y-92650000D01*
X165040000Y-92650000D02*
X166370000Y-92650000D01*
X149860000Y-139760000D02*
X152460000Y-139760000D01*
X152460000Y-139760000D02*
X152460000Y-137100000D01*
X152460000Y-137100000D02*
X149860000Y-137100000D01*
X149860000Y-137100000D02*
X149860000Y-139760000D01*
X148590000Y-139760000D02*
X147260000Y-139760000D01*
X147260000Y-139760000D02*
X147260000Y-138430000D01*
X149860000Y-134680000D02*
X152460000Y-134680000D01*
X152460000Y-134680000D02*
X152460000Y-132020000D01*
X152460000Y-132020000D02*
X149860000Y-132020000D01*
X149860000Y-132020000D02*
X149860000Y-134680000D01*
X148590000Y-134680000D02*
X147260000Y-134680000D01*
X147260000Y-134680000D02*
X147260000Y-133350000D01*
X149860000Y-129600000D02*
X152460000Y-129600000D01*
X152460000Y-129600000D02*
X152460000Y-126940000D01*
X152460000Y-126940000D02*
X149860000Y-126940000D01*
X149860000Y-126940000D02*
X149860000Y-129600000D01*
X148590000Y-129600000D02*
X147260000Y-129600000D01*
X147260000Y-129600000D02*
X147260000Y-128270000D01*
X149860000Y-124520000D02*
X152460000Y-124520000D01*
X152460000Y-124520000D02*
X152460000Y-121860000D01*
X152460000Y-121860000D02*
X149860000Y-121860000D01*
X149860000Y-121860000D02*
X149860000Y-124520000D01*
X148590000Y-124520000D02*
X147260000Y-124520000D01*
X147260000Y-124520000D02*
X147260000Y-123190000D01*
X149860000Y-119440000D02*
X152460000Y-119440000D01*
X152460000Y-119440000D02*
X152460000Y-116780000D01*
X152460000Y-116780000D02*
X149860000Y-116780000D01*
X149860000Y-116780000D02*
X149860000Y-119440000D01*
X148590000Y-119440000D02*
X147260000Y-119440000D01*
X147260000Y-119440000D02*
X147260000Y-118110000D01*
X149860000Y-114360000D02*
X152460000Y-114360000D01*
X152460000Y-114360000D02*
X152460000Y-111700000D01*
X152460000Y-111700000D02*
X149860000Y-111700000D01*
X149860000Y-111700000D02*
X149860000Y-114360000D01*
X148590000Y-114360000D02*
X147260000Y-114360000D01*
X147260000Y-114360000D02*
X147260000Y-113030000D01*
X149860000Y-109280000D02*
X152460000Y-109280000D01*
X152460000Y-109280000D02*
X152460000Y-106620000D01*
X152460000Y-106620000D02*
X149860000Y-106620000D01*
X149860000Y-106620000D02*
X149860000Y-109280000D01*
X148590000Y-109280000D02*
X147260000Y-109280000D01*
X147260000Y-109280000D02*
X147260000Y-107950000D01*
X149860000Y-104200000D02*
X152460000Y-104200000D01*
X152460000Y-104200000D02*
X152460000Y-101540000D01*
X152460000Y-101540000D02*
X149860000Y-101540000D01*
X149860000Y-101540000D02*
X149860000Y-104200000D01*
X148590000Y-104200000D02*
X147260000Y-104200000D01*
X147260000Y-104200000D02*
X147260000Y-102870000D01*
X139300000Y-126360000D02*
X138040000Y-126360000D01*
X132480000Y-126360000D02*
X133740000Y-126360000D01*
X139300000Y-130120000D02*
X139300000Y-126360000D01*
X132480000Y-132370000D02*
X132480000Y-126360000D01*
X139300000Y-136520000D02*
X138040000Y-136520000D01*
X132480000Y-136520000D02*
X133740000Y-136520000D01*
X139300000Y-140280000D02*
X139300000Y-136520000D01*
X132480000Y-142530000D02*
X132480000Y-136520000D01*
X139300000Y-146680000D02*
X138040000Y-146680000D01*
X132480000Y-146680000D02*
X133740000Y-146680000D01*
X139300000Y-150440000D02*
X139300000Y-146680000D01*
X132480000Y-152690000D02*
X132480000Y-146680000D01*
X139100000Y-92750000D02*
X139100000Y-90130000D01*
X139100000Y-90130000D02*
X132680000Y-90130000D01*
X132680000Y-90130000D02*
X132680000Y-92750000D01*
X132680000Y-92750000D02*
X139100000Y-92750000D01*
X139990000Y-91440000D02*
X139100000Y-91440000D01*
X131790000Y-91440000D02*
X132680000Y-91440000D01*
X164500000Y-139740000D02*
X164500000Y-137120000D01*
X164500000Y-137120000D02*
X158080000Y-137120000D01*
X158080000Y-137120000D02*
X158080000Y-139740000D01*
X158080000Y-139740000D02*
X164500000Y-139740000D01*
X165390000Y-138430000D02*
X164500000Y-138430000D01*
X157190000Y-138430000D02*
X158080000Y-138430000D01*
X164500000Y-134660000D02*
X164500000Y-132040000D01*
X164500000Y-132040000D02*
X158080000Y-132040000D01*
X158080000Y-132040000D02*
X158080000Y-134660000D01*
X158080000Y-134660000D02*
X164500000Y-134660000D01*
X165390000Y-133350000D02*
X164500000Y-133350000D01*
X157190000Y-133350000D02*
X158080000Y-133350000D01*
X164500000Y-129580000D02*
X164500000Y-126960000D01*
X164500000Y-126960000D02*
X158080000Y-126960000D01*
X158080000Y-126960000D02*
X158080000Y-129580000D01*
X158080000Y-129580000D02*
X164500000Y-129580000D01*
X165390000Y-128270000D02*
X164500000Y-128270000D01*
X157190000Y-128270000D02*
X158080000Y-128270000D01*
X164500000Y-124500000D02*
X164500000Y-121880000D01*
X164500000Y-121880000D02*
X158080000Y-121880000D01*
X158080000Y-121880000D02*
X158080000Y-124500000D01*
X158080000Y-124500000D02*
X164500000Y-124500000D01*
X165390000Y-123190000D02*
X164500000Y-123190000D01*
X157190000Y-123190000D02*
X158080000Y-123190000D01*
X164500000Y-119420000D02*
X164500000Y-116800000D01*
X164500000Y-116800000D02*
X158080000Y-116800000D01*
X158080000Y-116800000D02*
X158080000Y-119420000D01*
X158080000Y-119420000D02*
X164500000Y-119420000D01*
X165390000Y-118110000D02*
X164500000Y-118110000D01*
X157190000Y-118110000D02*
X158080000Y-118110000D01*
X164500000Y-114340000D02*
X164500000Y-111720000D01*
X164500000Y-111720000D02*
X158080000Y-111720000D01*
X158080000Y-111720000D02*
X158080000Y-114340000D01*
X158080000Y-114340000D02*
X164500000Y-114340000D01*
X165390000Y-113030000D02*
X164500000Y-113030000D01*
X157190000Y-113030000D02*
X158080000Y-113030000D01*
X164500000Y-109260000D02*
X164500000Y-106640000D01*
X164500000Y-106640000D02*
X158080000Y-106640000D01*
X158080000Y-106640000D02*
X158080000Y-109260000D01*
X158080000Y-109260000D02*
X164500000Y-109260000D01*
X165390000Y-107950000D02*
X164500000Y-107950000D01*
X157190000Y-107950000D02*
X158080000Y-107950000D01*
X164500000Y-104180000D02*
X164500000Y-101560000D01*
X164500000Y-101560000D02*
X158080000Y-101560000D01*
X158080000Y-101560000D02*
X158080000Y-104180000D01*
X158080000Y-104180000D02*
X164500000Y-104180000D01*
X165390000Y-102870000D02*
X164500000Y-102870000D01*
X157190000Y-102870000D02*
X158080000Y-102870000D01*
X172660000Y-113030000D02*
X172660000Y-130870000D01*
X172660000Y-130870000D02*
X175320000Y-130870000D01*
X175320000Y-130870000D02*
X175320000Y-113030000D01*
X175320000Y-113030000D02*
X172660000Y-113030000D01*
X172660000Y-111760000D02*
X172660000Y-110430000D01*
X172660000Y-110430000D02*
X173990000Y-110430000D01*
X136890000Y-96460000D02*
G75*
G02X134890000Y-96460000I-1000000J0D01*
G01*
X134890000Y-96460000D02*
X132655000Y-96460000D01*
X132655000Y-96460000D02*
X132655000Y-116900000D01*
X132655000Y-116900000D02*
X139125000Y-116900000D01*
X139125000Y-116900000D02*
X139125000Y-96460000D01*
X139125000Y-96460000D02*
X136890000Y-96460000D01*
D13*
G36*
X176318788Y-145231898D02*
X176339415Y-145252260D01*
X176333282Y-145288666D01*
X176312375Y-145337263D01*
X176242960Y-145426599D01*
X176176426Y-145434370D01*
X176095991Y-145451401D01*
X176065665Y-145503749D01*
X176038763Y-145566720D01*
X176004468Y-145548751D01*
X175976692Y-145512295D01*
X175918735Y-145457318D01*
X175857018Y-145479885D01*
X175842270Y-145491671D01*
X175800066Y-145554271D01*
X175776548Y-145667221D01*
X175768173Y-145849530D01*
X175768000Y-145890170D01*
X175760157Y-146095621D01*
X175736945Y-146215016D01*
X175712432Y-146245553D01*
X175688815Y-146283856D01*
X175672899Y-146385950D01*
X175664061Y-146560290D01*
X175661682Y-146815331D01*
X175662284Y-146928304D01*
X175665639Y-147192879D01*
X175671928Y-147380299D01*
X175683036Y-147505767D01*
X175700847Y-147584486D01*
X175727244Y-147631659D01*
X175752262Y-147654360D01*
X175865119Y-147698519D01*
X175948471Y-147702822D01*
X176039353Y-147714715D01*
X176094206Y-147793175D01*
X176103145Y-147817978D01*
X176123830Y-147938737D01*
X176112325Y-148025797D01*
X176091551Y-148126531D01*
X176088738Y-148258519D01*
X176088847Y-148260177D01*
X176099210Y-148415263D01*
X175829696Y-148386047D01*
X175637643Y-148376566D01*
X175510562Y-148394032D01*
X175456239Y-148435132D01*
X175482459Y-148496549D01*
X175511281Y-148521605D01*
X175612240Y-148566542D01*
X175742797Y-148587033D01*
X175868163Y-148582266D01*
X175953547Y-148551431D01*
X175968454Y-148532273D01*
X176000203Y-148502868D01*
X176040868Y-148543819D01*
X176089924Y-148639199D01*
X176067025Y-148695696D01*
X175965369Y-148719935D01*
X175858267Y-148721634D01*
X175690520Y-148729972D01*
X175577071Y-148770776D01*
X175520473Y-148814829D01*
X175436136Y-148884270D01*
X175365040Y-148901370D01*
X175276690Y-148864294D01*
X175172352Y-148793864D01*
X175030093Y-148708003D01*
X174926535Y-148690553D01*
X174838880Y-148741013D01*
X174798616Y-148785660D01*
X174732349Y-148852044D01*
X174662161Y-148863467D01*
X174560304Y-148833452D01*
X174409282Y-148798874D01*
X174237608Y-148785533D01*
X174209919Y-148786129D01*
X174045043Y-148774286D01*
X173947974Y-148726570D01*
X173927697Y-148649250D01*
X173947943Y-148603361D01*
X174055244Y-148487640D01*
X174172141Y-148460129D01*
X174247459Y-148489080D01*
X174342335Y-148524509D01*
X174405755Y-148497539D01*
X174500168Y-148468240D01*
X174633045Y-148476936D01*
X174745262Y-148489910D01*
X174792152Y-148468051D01*
X174798182Y-148436407D01*
X174817372Y-148391342D01*
X174889503Y-148382534D01*
X174969821Y-148392752D01*
X175141461Y-148420605D01*
X174955908Y-148243637D01*
X175814182Y-148243637D01*
X175837273Y-148266728D01*
X175860364Y-148243637D01*
X175837273Y-148220546D01*
X175814182Y-148243637D01*
X174955908Y-148243637D01*
X174951839Y-148239757D01*
X174843914Y-148124018D01*
X174768960Y-148004504D01*
X174722116Y-147862168D01*
X174698522Y-147677964D01*
X174693316Y-147432847D01*
X174697188Y-147242007D01*
X174705805Y-147018142D01*
X174717915Y-146870575D01*
X174728333Y-146821362D01*
X175335017Y-146821362D01*
X175398546Y-146827799D01*
X175464107Y-146820542D01*
X175456273Y-146804506D01*
X175361723Y-146798406D01*
X175340818Y-146804506D01*
X175335017Y-146821362D01*
X174728333Y-146821362D01*
X174736403Y-146783241D01*
X174741585Y-146775180D01*
X175011744Y-146775180D01*
X175075273Y-146781618D01*
X175140834Y-146774360D01*
X175133000Y-146758324D01*
X175038450Y-146752225D01*
X175017546Y-146758324D01*
X175011744Y-146775180D01*
X174741585Y-146775180D01*
X174764155Y-146740076D01*
X174789552Y-146727819D01*
X174841778Y-146710598D01*
X174803125Y-146703054D01*
X174786637Y-146701903D01*
X174749296Y-146688932D01*
X174724735Y-146644991D01*
X174709819Y-146553632D01*
X174701411Y-146398407D01*
X174697572Y-146234728D01*
X174693707Y-146026349D01*
X174690062Y-145843766D01*
X174687162Y-145712747D01*
X174686026Y-145670407D01*
X174690653Y-145631541D01*
X174715661Y-145598596D01*
X174773555Y-145567040D01*
X174876840Y-145532345D01*
X175038022Y-145489980D01*
X175269607Y-145435415D01*
X175444727Y-145395574D01*
X175757520Y-145325075D01*
X175990765Y-145274168D01*
X176155020Y-145242142D01*
X176260842Y-145228289D01*
X176318788Y-145231898D01*
X176318788Y-145231898D01*
G37*
X176318788Y-145231898D02*
X176339415Y-145252260D01*
X176333282Y-145288666D01*
X176312375Y-145337263D01*
X176242960Y-145426599D01*
X176176426Y-145434370D01*
X176095991Y-145451401D01*
X176065665Y-145503749D01*
X176038763Y-145566720D01*
X176004468Y-145548751D01*
X175976692Y-145512295D01*
X175918735Y-145457318D01*
X175857018Y-145479885D01*
X175842270Y-145491671D01*
X175800066Y-145554271D01*
X175776548Y-145667221D01*
X175768173Y-145849530D01*
X175768000Y-145890170D01*
X175760157Y-146095621D01*
X175736945Y-146215016D01*
X175712432Y-146245553D01*
X175688815Y-146283856D01*
X175672899Y-146385950D01*
X175664061Y-146560290D01*
X175661682Y-146815331D01*
X175662284Y-146928304D01*
X175665639Y-147192879D01*
X175671928Y-147380299D01*
X175683036Y-147505767D01*
X175700847Y-147584486D01*
X175727244Y-147631659D01*
X175752262Y-147654360D01*
X175865119Y-147698519D01*
X175948471Y-147702822D01*
X176039353Y-147714715D01*
X176094206Y-147793175D01*
X176103145Y-147817978D01*
X176123830Y-147938737D01*
X176112325Y-148025797D01*
X176091551Y-148126531D01*
X176088738Y-148258519D01*
X176088847Y-148260177D01*
X176099210Y-148415263D01*
X175829696Y-148386047D01*
X175637643Y-148376566D01*
X175510562Y-148394032D01*
X175456239Y-148435132D01*
X175482459Y-148496549D01*
X175511281Y-148521605D01*
X175612240Y-148566542D01*
X175742797Y-148587033D01*
X175868163Y-148582266D01*
X175953547Y-148551431D01*
X175968454Y-148532273D01*
X176000203Y-148502868D01*
X176040868Y-148543819D01*
X176089924Y-148639199D01*
X176067025Y-148695696D01*
X175965369Y-148719935D01*
X175858267Y-148721634D01*
X175690520Y-148729972D01*
X175577071Y-148770776D01*
X175520473Y-148814829D01*
X175436136Y-148884270D01*
X175365040Y-148901370D01*
X175276690Y-148864294D01*
X175172352Y-148793864D01*
X175030093Y-148708003D01*
X174926535Y-148690553D01*
X174838880Y-148741013D01*
X174798616Y-148785660D01*
X174732349Y-148852044D01*
X174662161Y-148863467D01*
X174560304Y-148833452D01*
X174409282Y-148798874D01*
X174237608Y-148785533D01*
X174209919Y-148786129D01*
X174045043Y-148774286D01*
X173947974Y-148726570D01*
X173927697Y-148649250D01*
X173947943Y-148603361D01*
X174055244Y-148487640D01*
X174172141Y-148460129D01*
X174247459Y-148489080D01*
X174342335Y-148524509D01*
X174405755Y-148497539D01*
X174500168Y-148468240D01*
X174633045Y-148476936D01*
X174745262Y-148489910D01*
X174792152Y-148468051D01*
X174798182Y-148436407D01*
X174817372Y-148391342D01*
X174889503Y-148382534D01*
X174969821Y-148392752D01*
X175141461Y-148420605D01*
X174955908Y-148243637D01*
X175814182Y-148243637D01*
X175837273Y-148266728D01*
X175860364Y-148243637D01*
X175837273Y-148220546D01*
X175814182Y-148243637D01*
X174955908Y-148243637D01*
X174951839Y-148239757D01*
X174843914Y-148124018D01*
X174768960Y-148004504D01*
X174722116Y-147862168D01*
X174698522Y-147677964D01*
X174693316Y-147432847D01*
X174697188Y-147242007D01*
X174705805Y-147018142D01*
X174717915Y-146870575D01*
X174728333Y-146821362D01*
X175335017Y-146821362D01*
X175398546Y-146827799D01*
X175464107Y-146820542D01*
X175456273Y-146804506D01*
X175361723Y-146798406D01*
X175340818Y-146804506D01*
X175335017Y-146821362D01*
X174728333Y-146821362D01*
X174736403Y-146783241D01*
X174741585Y-146775180D01*
X175011744Y-146775180D01*
X175075273Y-146781618D01*
X175140834Y-146774360D01*
X175133000Y-146758324D01*
X175038450Y-146752225D01*
X175017546Y-146758324D01*
X175011744Y-146775180D01*
X174741585Y-146775180D01*
X174764155Y-146740076D01*
X174789552Y-146727819D01*
X174841778Y-146710598D01*
X174803125Y-146703054D01*
X174786637Y-146701903D01*
X174749296Y-146688932D01*
X174724735Y-146644991D01*
X174709819Y-146553632D01*
X174701411Y-146398407D01*
X174697572Y-146234728D01*
X174693707Y-146026349D01*
X174690062Y-145843766D01*
X174687162Y-145712747D01*
X174686026Y-145670407D01*
X174690653Y-145631541D01*
X174715661Y-145598596D01*
X174773555Y-145567040D01*
X174876840Y-145532345D01*
X175038022Y-145489980D01*
X175269607Y-145435415D01*
X175444727Y-145395574D01*
X175757520Y-145325075D01*
X175990765Y-145274168D01*
X176155020Y-145242142D01*
X176260842Y-145228289D01*
X176318788Y-145231898D01*
G36*
X176573967Y-148530326D02*
X176646913Y-148600664D01*
X176659649Y-148625802D01*
X176686440Y-148719146D01*
X176648738Y-148782793D01*
X176623255Y-148802878D01*
X176511144Y-148860193D01*
X176417651Y-148839020D01*
X176328114Y-148748689D01*
X176260990Y-148628224D01*
X176276979Y-148547097D01*
X176374299Y-148508949D01*
X176446451Y-148506857D01*
X176573967Y-148530326D01*
X176573967Y-148530326D01*
G37*
X176573967Y-148530326D02*
X176646913Y-148600664D01*
X176659649Y-148625802D01*
X176686440Y-148719146D01*
X176648738Y-148782793D01*
X176623255Y-148802878D01*
X176511144Y-148860193D01*
X176417651Y-148839020D01*
X176328114Y-148748689D01*
X176260990Y-148628224D01*
X176276979Y-148547097D01*
X176374299Y-148508949D01*
X176446451Y-148506857D01*
X176573967Y-148530326D01*
G36*
X172764981Y-146040906D02*
X172750223Y-146141340D01*
X172729083Y-146265266D01*
X172720006Y-146354626D01*
X172720000Y-146355955D01*
X172681934Y-146411156D01*
X172639182Y-146422382D01*
X172598847Y-146432014D01*
X172643226Y-146459065D01*
X172665174Y-146468149D01*
X172709613Y-146489643D01*
X172739274Y-146522751D01*
X172756734Y-146583808D01*
X172764571Y-146689146D01*
X172765362Y-146855102D01*
X172761973Y-147081582D01*
X172760907Y-147305685D01*
X172765336Y-147498386D01*
X172774433Y-147639639D01*
X172787371Y-147709396D01*
X172787936Y-147710382D01*
X172831863Y-147744016D01*
X172865386Y-147687967D01*
X172887948Y-147544391D01*
X172898989Y-147315441D01*
X172899555Y-147279042D01*
X172910247Y-146952774D01*
X172933199Y-146717030D01*
X172968583Y-146570765D01*
X173016571Y-146512935D01*
X173025426Y-146511819D01*
X173052733Y-146529389D01*
X173071450Y-146590654D01*
X173082988Y-146708443D01*
X173088756Y-146895585D01*
X173090162Y-147100637D01*
X173095088Y-147375930D01*
X173108358Y-147589476D01*
X173128804Y-147734388D01*
X173155260Y-147803776D01*
X173186559Y-147790754D01*
X173201457Y-147757433D01*
X173215055Y-147680032D01*
X173228030Y-147539155D01*
X173237796Y-147363667D01*
X173238578Y-147343091D01*
X173251091Y-146996728D01*
X174267091Y-146996728D01*
X174264580Y-147389273D01*
X174257322Y-147613060D01*
X174235259Y-147775814D01*
X174192887Y-147908398D01*
X174159417Y-147978710D01*
X174031105Y-148158022D01*
X173854834Y-148319011D01*
X173662196Y-148436001D01*
X173548598Y-148475133D01*
X173452610Y-148515501D01*
X173412727Y-148570579D01*
X173380922Y-148625080D01*
X173355000Y-148628791D01*
X173272005Y-148618539D01*
X173147536Y-148603513D01*
X173135637Y-148602090D01*
X173001653Y-148568810D01*
X172898510Y-148514656D01*
X172895043Y-148511644D01*
X172774901Y-148462296D01*
X172694363Y-148471058D01*
X172554825Y-148467516D01*
X172382832Y-148408839D01*
X172207882Y-148308397D01*
X172065400Y-148186027D01*
X171984146Y-148083955D01*
X171924706Y-147968167D01*
X171883952Y-147822893D01*
X171858758Y-147632367D01*
X171845999Y-147380819D01*
X171842546Y-147062035D01*
X171842546Y-146402152D01*
X172251773Y-146402152D01*
X172313113Y-146410147D01*
X172327455Y-146410452D01*
X172406325Y-146405460D01*
X172413269Y-146391003D01*
X172409152Y-146389163D01*
X172317472Y-146380027D01*
X172270606Y-146387451D01*
X172251773Y-146402152D01*
X171842546Y-146402152D01*
X171842546Y-146379125D01*
X171992637Y-146360499D01*
X172142727Y-146341873D01*
X171992637Y-146334482D01*
X171879551Y-146310640D01*
X171842546Y-146262454D01*
X171888403Y-146214451D01*
X172026132Y-146163105D01*
X172200455Y-146120029D01*
X172386572Y-146079345D01*
X172549924Y-146043226D01*
X172659208Y-146018601D01*
X172669405Y-146016233D01*
X172743011Y-146006398D01*
X172764981Y-146040906D01*
X172764981Y-146040906D01*
G37*
X172764981Y-146040906D02*
X172750223Y-146141340D01*
X172729083Y-146265266D01*
X172720006Y-146354626D01*
X172720000Y-146355955D01*
X172681934Y-146411156D01*
X172639182Y-146422382D01*
X172598847Y-146432014D01*
X172643226Y-146459065D01*
X172665174Y-146468149D01*
X172709613Y-146489643D01*
X172739274Y-146522751D01*
X172756734Y-146583808D01*
X172764571Y-146689146D01*
X172765362Y-146855102D01*
X172761973Y-147081582D01*
X172760907Y-147305685D01*
X172765336Y-147498386D01*
X172774433Y-147639639D01*
X172787371Y-147709396D01*
X172787936Y-147710382D01*
X172831863Y-147744016D01*
X172865386Y-147687967D01*
X172887948Y-147544391D01*
X172898989Y-147315441D01*
X172899555Y-147279042D01*
X172910247Y-146952774D01*
X172933199Y-146717030D01*
X172968583Y-146570765D01*
X173016571Y-146512935D01*
X173025426Y-146511819D01*
X173052733Y-146529389D01*
X173071450Y-146590654D01*
X173082988Y-146708443D01*
X173088756Y-146895585D01*
X173090162Y-147100637D01*
X173095088Y-147375930D01*
X173108358Y-147589476D01*
X173128804Y-147734388D01*
X173155260Y-147803776D01*
X173186559Y-147790754D01*
X173201457Y-147757433D01*
X173215055Y-147680032D01*
X173228030Y-147539155D01*
X173237796Y-147363667D01*
X173238578Y-147343091D01*
X173251091Y-146996728D01*
X174267091Y-146996728D01*
X174264580Y-147389273D01*
X174257322Y-147613060D01*
X174235259Y-147775814D01*
X174192887Y-147908398D01*
X174159417Y-147978710D01*
X174031105Y-148158022D01*
X173854834Y-148319011D01*
X173662196Y-148436001D01*
X173548598Y-148475133D01*
X173452610Y-148515501D01*
X173412727Y-148570579D01*
X173380922Y-148625080D01*
X173355000Y-148628791D01*
X173272005Y-148618539D01*
X173147536Y-148603513D01*
X173135637Y-148602090D01*
X173001653Y-148568810D01*
X172898510Y-148514656D01*
X172895043Y-148511644D01*
X172774901Y-148462296D01*
X172694363Y-148471058D01*
X172554825Y-148467516D01*
X172382832Y-148408839D01*
X172207882Y-148308397D01*
X172065400Y-148186027D01*
X171984146Y-148083955D01*
X171924706Y-147968167D01*
X171883952Y-147822893D01*
X171858758Y-147632367D01*
X171845999Y-147380819D01*
X171842546Y-147062035D01*
X171842546Y-146402152D01*
X172251773Y-146402152D01*
X172313113Y-146410147D01*
X172327455Y-146410452D01*
X172406325Y-146405460D01*
X172413269Y-146391003D01*
X172409152Y-146389163D01*
X172317472Y-146380027D01*
X172270606Y-146387451D01*
X172251773Y-146402152D01*
X171842546Y-146402152D01*
X171842546Y-146379125D01*
X171992637Y-146360499D01*
X172142727Y-146341873D01*
X171992637Y-146334482D01*
X171879551Y-146310640D01*
X171842546Y-146262454D01*
X171888403Y-146214451D01*
X172026132Y-146163105D01*
X172200455Y-146120029D01*
X172386572Y-146079345D01*
X172549924Y-146043226D01*
X172659208Y-146018601D01*
X172669405Y-146016233D01*
X172743011Y-146006398D01*
X172764981Y-146040906D01*
G36*
X164688864Y-143447808D02*
X164722748Y-143484715D01*
X164747326Y-143526690D01*
X164763460Y-143587072D01*
X164772013Y-143679200D01*
X164773845Y-143816412D01*
X164769821Y-144012048D01*
X164760802Y-144279446D01*
X164754172Y-144458020D01*
X164740696Y-144763663D01*
X164725713Y-145009255D01*
X164709943Y-145186597D01*
X164694106Y-145287488D01*
X164679810Y-145305304D01*
X164656629Y-145224824D01*
X164641753Y-145089258D01*
X164638889Y-144999364D01*
X164630560Y-144863901D01*
X164609924Y-144775900D01*
X164592000Y-144756910D01*
X164567401Y-144798975D01*
X164550724Y-144908864D01*
X164545818Y-145034000D01*
X164543617Y-145187537D01*
X164530363Y-145270839D01*
X164496084Y-145306028D01*
X164430804Y-145315228D01*
X164418818Y-145315695D01*
X164291818Y-145320298D01*
X164407273Y-145352613D01*
X164483631Y-145388812D01*
X164518005Y-145460184D01*
X164526693Y-145571064D01*
X164533797Y-145699679D01*
X164546523Y-145787983D01*
X164550411Y-145799692D01*
X164555584Y-145856682D01*
X164558801Y-145991776D01*
X164560002Y-146190733D01*
X164559125Y-146439312D01*
X164556111Y-146723273D01*
X164554711Y-146817676D01*
X164539260Y-147793170D01*
X164346267Y-147842624D01*
X164153273Y-147892078D01*
X164349546Y-147867525D01*
X164545818Y-147842973D01*
X164545818Y-148095259D01*
X164542896Y-148240650D01*
X164525397Y-148319202D01*
X164480225Y-148356430D01*
X164401500Y-148376410D01*
X164275825Y-148392141D01*
X164102000Y-148402624D01*
X163968159Y-148405273D01*
X163806553Y-148409129D01*
X163714642Y-148425121D01*
X163669921Y-148459887D01*
X163654983Y-148497637D01*
X163611140Y-148572523D01*
X163553131Y-148588768D01*
X163520150Y-148555364D01*
X163511513Y-148492305D01*
X163506467Y-148370610D01*
X163505879Y-148292448D01*
X163511680Y-148153219D01*
X163535887Y-148078729D01*
X163590718Y-148041562D01*
X163622182Y-148031506D01*
X163737637Y-147998844D01*
X163610667Y-147994240D01*
X163483698Y-147989637D01*
X163483705Y-147978596D01*
X163780757Y-147978596D01*
X163826152Y-147985991D01*
X163886050Y-147977500D01*
X163886765Y-147961735D01*
X163824956Y-147950711D01*
X163798250Y-147958089D01*
X163780757Y-147978596D01*
X163483705Y-147978596D01*
X163483736Y-147929726D01*
X163974290Y-147929726D01*
X164037818Y-147936163D01*
X164103379Y-147928906D01*
X164095546Y-147912870D01*
X164000995Y-147906770D01*
X163980091Y-147912870D01*
X163974290Y-147929726D01*
X163483736Y-147929726D01*
X163485085Y-145865273D01*
X163485460Y-145290594D01*
X164001216Y-145290594D01*
X164056724Y-145298247D01*
X164107091Y-145299445D01*
X164202137Y-145295728D01*
X164226669Y-145285262D01*
X164211539Y-145279361D01*
X164100636Y-145270759D01*
X164026811Y-145278429D01*
X164001216Y-145290594D01*
X163485460Y-145290594D01*
X163485489Y-145246461D01*
X163665536Y-145246461D01*
X163729394Y-145253749D01*
X163760727Y-145254195D01*
X163844747Y-145249380D01*
X163854649Y-145237393D01*
X163841546Y-145233075D01*
X163724418Y-145225893D01*
X163679909Y-145233075D01*
X163665536Y-145246461D01*
X163485489Y-145246461D01*
X163485572Y-145119607D01*
X163546499Y-145119607D01*
X163552909Y-145122493D01*
X163620168Y-145101854D01*
X163729556Y-145050616D01*
X163760727Y-145034000D01*
X163850293Y-144979585D01*
X163882592Y-144948394D01*
X163876182Y-144945508D01*
X163808924Y-144966146D01*
X163699535Y-145017385D01*
X163668364Y-145034000D01*
X163578798Y-145088416D01*
X163546499Y-145119607D01*
X163485572Y-145119607D01*
X163485703Y-144918546D01*
X163945455Y-144918546D01*
X163968546Y-144941637D01*
X163991637Y-144918546D01*
X163968546Y-144895455D01*
X163945455Y-144918546D01*
X163485703Y-144918546D01*
X163485733Y-144872364D01*
X164037818Y-144872364D01*
X164060909Y-144895455D01*
X164084000Y-144872364D01*
X164060909Y-144849273D01*
X164037818Y-144872364D01*
X163485733Y-144872364D01*
X163485763Y-144826182D01*
X164130182Y-144826182D01*
X164153273Y-144849273D01*
X164176364Y-144826182D01*
X164153273Y-144803091D01*
X164130182Y-144826182D01*
X163485763Y-144826182D01*
X163485793Y-144780000D01*
X164222546Y-144780000D01*
X164245637Y-144803091D01*
X164268727Y-144780000D01*
X164245637Y-144756910D01*
X164222546Y-144780000D01*
X163485793Y-144780000D01*
X163485823Y-144733819D01*
X164314909Y-144733819D01*
X164338000Y-144756910D01*
X164361091Y-144733819D01*
X164338000Y-144710728D01*
X164314909Y-144733819D01*
X163485823Y-144733819D01*
X163485853Y-144687637D01*
X164407273Y-144687637D01*
X164430364Y-144710728D01*
X164453455Y-144687637D01*
X164430364Y-144664546D01*
X164499637Y-144664546D01*
X164515393Y-144709527D01*
X164520002Y-144710728D01*
X164559431Y-144678366D01*
X164568909Y-144664546D01*
X164565248Y-144621990D01*
X164548544Y-144618364D01*
X164501516Y-144651888D01*
X164499637Y-144664546D01*
X164430364Y-144664546D01*
X164407273Y-144687637D01*
X163485853Y-144687637D01*
X163486170Y-144202728D01*
X164515163Y-144202728D01*
X164517169Y-144341489D01*
X164522514Y-144410579D01*
X164530190Y-144400362D01*
X164533278Y-144375910D01*
X164540751Y-144202500D01*
X164533278Y-144029546D01*
X164525018Y-143988927D01*
X164518732Y-144031030D01*
X164515428Y-144146216D01*
X164515163Y-144202728D01*
X163486170Y-144202728D01*
X163486473Y-143740910D01*
X163735843Y-143740910D01*
X163881449Y-143736797D01*
X163958782Y-143718180D01*
X163991795Y-143675634D01*
X163999970Y-143637000D01*
X164016478Y-143578205D01*
X164060021Y-143549148D01*
X164154110Y-143542091D01*
X164274346Y-143546704D01*
X164423623Y-143550995D01*
X164505715Y-143538522D01*
X164545383Y-143501326D01*
X164561686Y-143454340D01*
X164589406Y-143348364D01*
X164688864Y-143447808D01*
X164688864Y-143447808D01*
G37*
X164688864Y-143447808D02*
X164722748Y-143484715D01*
X164747326Y-143526690D01*
X164763460Y-143587072D01*
X164772013Y-143679200D01*
X164773845Y-143816412D01*
X164769821Y-144012048D01*
X164760802Y-144279446D01*
X164754172Y-144458020D01*
X164740696Y-144763663D01*
X164725713Y-145009255D01*
X164709943Y-145186597D01*
X164694106Y-145287488D01*
X164679810Y-145305304D01*
X164656629Y-145224824D01*
X164641753Y-145089258D01*
X164638889Y-144999364D01*
X164630560Y-144863901D01*
X164609924Y-144775900D01*
X164592000Y-144756910D01*
X164567401Y-144798975D01*
X164550724Y-144908864D01*
X164545818Y-145034000D01*
X164543617Y-145187537D01*
X164530363Y-145270839D01*
X164496084Y-145306028D01*
X164430804Y-145315228D01*
X164418818Y-145315695D01*
X164291818Y-145320298D01*
X164407273Y-145352613D01*
X164483631Y-145388812D01*
X164518005Y-145460184D01*
X164526693Y-145571064D01*
X164533797Y-145699679D01*
X164546523Y-145787983D01*
X164550411Y-145799692D01*
X164555584Y-145856682D01*
X164558801Y-145991776D01*
X164560002Y-146190733D01*
X164559125Y-146439312D01*
X164556111Y-146723273D01*
X164554711Y-146817676D01*
X164539260Y-147793170D01*
X164346267Y-147842624D01*
X164153273Y-147892078D01*
X164349546Y-147867525D01*
X164545818Y-147842973D01*
X164545818Y-148095259D01*
X164542896Y-148240650D01*
X164525397Y-148319202D01*
X164480225Y-148356430D01*
X164401500Y-148376410D01*
X164275825Y-148392141D01*
X164102000Y-148402624D01*
X163968159Y-148405273D01*
X163806553Y-148409129D01*
X163714642Y-148425121D01*
X163669921Y-148459887D01*
X163654983Y-148497637D01*
X163611140Y-148572523D01*
X163553131Y-148588768D01*
X163520150Y-148555364D01*
X163511513Y-148492305D01*
X163506467Y-148370610D01*
X163505879Y-148292448D01*
X163511680Y-148153219D01*
X163535887Y-148078729D01*
X163590718Y-148041562D01*
X163622182Y-148031506D01*
X163737637Y-147998844D01*
X163610667Y-147994240D01*
X163483698Y-147989637D01*
X163483705Y-147978596D01*
X163780757Y-147978596D01*
X163826152Y-147985991D01*
X163886050Y-147977500D01*
X163886765Y-147961735D01*
X163824956Y-147950711D01*
X163798250Y-147958089D01*
X163780757Y-147978596D01*
X163483705Y-147978596D01*
X163483736Y-147929726D01*
X163974290Y-147929726D01*
X164037818Y-147936163D01*
X164103379Y-147928906D01*
X164095546Y-147912870D01*
X164000995Y-147906770D01*
X163980091Y-147912870D01*
X163974290Y-147929726D01*
X163483736Y-147929726D01*
X163485085Y-145865273D01*
X163485460Y-145290594D01*
X164001216Y-145290594D01*
X164056724Y-145298247D01*
X164107091Y-145299445D01*
X164202137Y-145295728D01*
X164226669Y-145285262D01*
X164211539Y-145279361D01*
X164100636Y-145270759D01*
X164026811Y-145278429D01*
X164001216Y-145290594D01*
X163485460Y-145290594D01*
X163485489Y-145246461D01*
X163665536Y-145246461D01*
X163729394Y-145253749D01*
X163760727Y-145254195D01*
X163844747Y-145249380D01*
X163854649Y-145237393D01*
X163841546Y-145233075D01*
X163724418Y-145225893D01*
X163679909Y-145233075D01*
X163665536Y-145246461D01*
X163485489Y-145246461D01*
X163485572Y-145119607D01*
X163546499Y-145119607D01*
X163552909Y-145122493D01*
X163620168Y-145101854D01*
X163729556Y-145050616D01*
X163760727Y-145034000D01*
X163850293Y-144979585D01*
X163882592Y-144948394D01*
X163876182Y-144945508D01*
X163808924Y-144966146D01*
X163699535Y-145017385D01*
X163668364Y-145034000D01*
X163578798Y-145088416D01*
X163546499Y-145119607D01*
X163485572Y-145119607D01*
X163485703Y-144918546D01*
X163945455Y-144918546D01*
X163968546Y-144941637D01*
X163991637Y-144918546D01*
X163968546Y-144895455D01*
X163945455Y-144918546D01*
X163485703Y-144918546D01*
X163485733Y-144872364D01*
X164037818Y-144872364D01*
X164060909Y-144895455D01*
X164084000Y-144872364D01*
X164060909Y-144849273D01*
X164037818Y-144872364D01*
X163485733Y-144872364D01*
X163485763Y-144826182D01*
X164130182Y-144826182D01*
X164153273Y-144849273D01*
X164176364Y-144826182D01*
X164153273Y-144803091D01*
X164130182Y-144826182D01*
X163485763Y-144826182D01*
X163485793Y-144780000D01*
X164222546Y-144780000D01*
X164245637Y-144803091D01*
X164268727Y-144780000D01*
X164245637Y-144756910D01*
X164222546Y-144780000D01*
X163485793Y-144780000D01*
X163485823Y-144733819D01*
X164314909Y-144733819D01*
X164338000Y-144756910D01*
X164361091Y-144733819D01*
X164338000Y-144710728D01*
X164314909Y-144733819D01*
X163485823Y-144733819D01*
X163485853Y-144687637D01*
X164407273Y-144687637D01*
X164430364Y-144710728D01*
X164453455Y-144687637D01*
X164430364Y-144664546D01*
X164499637Y-144664546D01*
X164515393Y-144709527D01*
X164520002Y-144710728D01*
X164559431Y-144678366D01*
X164568909Y-144664546D01*
X164565248Y-144621990D01*
X164548544Y-144618364D01*
X164501516Y-144651888D01*
X164499637Y-144664546D01*
X164430364Y-144664546D01*
X164407273Y-144687637D01*
X163485853Y-144687637D01*
X163486170Y-144202728D01*
X164515163Y-144202728D01*
X164517169Y-144341489D01*
X164522514Y-144410579D01*
X164530190Y-144400362D01*
X164533278Y-144375910D01*
X164540751Y-144202500D01*
X164533278Y-144029546D01*
X164525018Y-143988927D01*
X164518732Y-144031030D01*
X164515428Y-144146216D01*
X164515163Y-144202728D01*
X163486170Y-144202728D01*
X163486473Y-143740910D01*
X163735843Y-143740910D01*
X163881449Y-143736797D01*
X163958782Y-143718180D01*
X163991795Y-143675634D01*
X163999970Y-143637000D01*
X164016478Y-143578205D01*
X164060021Y-143549148D01*
X164154110Y-143542091D01*
X164274346Y-143546704D01*
X164423623Y-143550995D01*
X164505715Y-143538522D01*
X164545383Y-143501326D01*
X164561686Y-143454340D01*
X164589406Y-143348364D01*
X164688864Y-143447808D01*
G36*
X171415783Y-146353616D02*
X171391166Y-146456902D01*
X171377953Y-146502868D01*
X171343809Y-146690343D01*
X171353457Y-146854661D01*
X171402499Y-146974466D01*
X171486164Y-147028352D01*
X171537910Y-147043107D01*
X171569816Y-147082382D01*
X171587944Y-147165860D01*
X171598354Y-147313222D01*
X171602107Y-147404867D01*
X171605541Y-147599752D01*
X171594259Y-147734588D01*
X171562354Y-147841267D01*
X171503920Y-147951682D01*
X171499485Y-147959049D01*
X171392731Y-148114652D01*
X171263091Y-148276367D01*
X171217235Y-148327207D01*
X171051167Y-148503142D01*
X170580947Y-148517376D01*
X170279719Y-148517509D01*
X170057512Y-148497734D01*
X169949091Y-148471048D01*
X169818941Y-148429668D01*
X169714092Y-148408446D01*
X169705012Y-148407880D01*
X169556178Y-148359324D01*
X169403903Y-148229092D01*
X169259208Y-148026732D01*
X169253443Y-148016764D01*
X169192427Y-147903650D01*
X169153195Y-147803557D01*
X169130955Y-147690900D01*
X169120919Y-147540099D01*
X169118295Y-147325571D01*
X169118252Y-147294734D01*
X169118165Y-147196709D01*
X170087637Y-147196709D01*
X170089248Y-147408536D01*
X170096667Y-147547811D01*
X170113765Y-147634326D01*
X170144418Y-147687874D01*
X170191546Y-147727582D01*
X170282432Y-147786063D01*
X170339614Y-147796196D01*
X170404027Y-147764037D01*
X170410478Y-147759971D01*
X170450569Y-147700737D01*
X170477912Y-147574841D01*
X170494950Y-147370318D01*
X170496444Y-147339373D01*
X170507795Y-147149606D01*
X170524124Y-147032966D01*
X170550549Y-146970216D01*
X170592191Y-146942118D01*
X170603020Y-146938905D01*
X170671168Y-146887835D01*
X170678227Y-146840666D01*
X170647063Y-146796155D01*
X170562455Y-146768908D01*
X170406386Y-146753646D01*
X170375809Y-146752069D01*
X170087637Y-146738320D01*
X170087637Y-147196709D01*
X169118165Y-147196709D01*
X169117818Y-146807650D01*
X170260818Y-146552036D01*
X170572014Y-146482976D01*
X170852121Y-146421837D01*
X171088962Y-146371194D01*
X171270360Y-146333621D01*
X171384138Y-146311693D01*
X171418565Y-146307261D01*
X171415783Y-146353616D01*
X171415783Y-146353616D01*
G37*
X171415783Y-146353616D02*
X171391166Y-146456902D01*
X171377953Y-146502868D01*
X171343809Y-146690343D01*
X171353457Y-146854661D01*
X171402499Y-146974466D01*
X171486164Y-147028352D01*
X171537910Y-147043107D01*
X171569816Y-147082382D01*
X171587944Y-147165860D01*
X171598354Y-147313222D01*
X171602107Y-147404867D01*
X171605541Y-147599752D01*
X171594259Y-147734588D01*
X171562354Y-147841267D01*
X171503920Y-147951682D01*
X171499485Y-147959049D01*
X171392731Y-148114652D01*
X171263091Y-148276367D01*
X171217235Y-148327207D01*
X171051167Y-148503142D01*
X170580947Y-148517376D01*
X170279719Y-148517509D01*
X170057512Y-148497734D01*
X169949091Y-148471048D01*
X169818941Y-148429668D01*
X169714092Y-148408446D01*
X169705012Y-148407880D01*
X169556178Y-148359324D01*
X169403903Y-148229092D01*
X169259208Y-148026732D01*
X169253443Y-148016764D01*
X169192427Y-147903650D01*
X169153195Y-147803557D01*
X169130955Y-147690900D01*
X169120919Y-147540099D01*
X169118295Y-147325571D01*
X169118252Y-147294734D01*
X169118165Y-147196709D01*
X170087637Y-147196709D01*
X170089248Y-147408536D01*
X170096667Y-147547811D01*
X170113765Y-147634326D01*
X170144418Y-147687874D01*
X170191546Y-147727582D01*
X170282432Y-147786063D01*
X170339614Y-147796196D01*
X170404027Y-147764037D01*
X170410478Y-147759971D01*
X170450569Y-147700737D01*
X170477912Y-147574841D01*
X170494950Y-147370318D01*
X170496444Y-147339373D01*
X170507795Y-147149606D01*
X170524124Y-147032966D01*
X170550549Y-146970216D01*
X170592191Y-146942118D01*
X170603020Y-146938905D01*
X170671168Y-146887835D01*
X170678227Y-146840666D01*
X170647063Y-146796155D01*
X170562455Y-146768908D01*
X170406386Y-146753646D01*
X170375809Y-146752069D01*
X170087637Y-146738320D01*
X170087637Y-147196709D01*
X169118165Y-147196709D01*
X169117818Y-146807650D01*
X170260818Y-146552036D01*
X170572014Y-146482976D01*
X170852121Y-146421837D01*
X171088962Y-146371194D01*
X171270360Y-146333621D01*
X171384138Y-146311693D01*
X171418565Y-146307261D01*
X171415783Y-146353616D01*
G36*
X178455615Y-144902638D02*
X178580888Y-145012917D01*
X178666246Y-145109343D01*
X178703250Y-145178693D01*
X178683462Y-145207746D01*
X178646782Y-145202200D01*
X178515527Y-145167400D01*
X178433958Y-145153393D01*
X178413558Y-145159626D01*
X178465813Y-145185545D01*
X178529296Y-145207864D01*
X178673094Y-145264434D01*
X178780965Y-145324004D01*
X178817225Y-145357273D01*
X178841348Y-145439759D01*
X178857466Y-145579027D01*
X178861475Y-145692091D01*
X178869134Y-145834753D01*
X178888244Y-145931143D01*
X178908364Y-145957637D01*
X178932497Y-145915224D01*
X178949019Y-145802870D01*
X178954546Y-145657455D01*
X178959170Y-145489078D01*
X178975695Y-145395494D01*
X179008097Y-145359471D01*
X179023818Y-145357273D01*
X179055602Y-145372226D01*
X179076218Y-145427069D01*
X179087828Y-145536775D01*
X179092597Y-145716318D01*
X179093091Y-145836871D01*
X179091907Y-146052891D01*
X179085715Y-146195823D01*
X179070557Y-146284937D01*
X179042477Y-146339502D01*
X178997514Y-146378788D01*
X178979261Y-146391053D01*
X178864755Y-146454085D01*
X178807816Y-146450459D01*
X178800099Y-146378222D01*
X178804697Y-146350182D01*
X178813278Y-146256260D01*
X178792009Y-146242338D01*
X178748062Y-146303796D01*
X178694447Y-146421229D01*
X178600865Y-146579521D01*
X178487003Y-146676415D01*
X178395822Y-146730026D01*
X178354410Y-146767129D01*
X178354182Y-146768629D01*
X178387984Y-146768937D01*
X178443510Y-146744353D01*
X178559723Y-146700142D01*
X178619572Y-146725196D01*
X178631273Y-146785132D01*
X178656047Y-146933877D01*
X178727061Y-147010792D01*
X178774759Y-147019819D01*
X178838018Y-147056271D01*
X178864527Y-147137972D01*
X178849289Y-147223433D01*
X178804455Y-147266324D01*
X178770423Y-147287190D01*
X178804455Y-147293264D01*
X178841709Y-147337728D01*
X178859954Y-147467532D01*
X178862182Y-147564959D01*
X178820376Y-147842165D01*
X178692824Y-148103999D01*
X178476325Y-148356887D01*
X178460417Y-148371935D01*
X178390448Y-148431364D01*
X178318553Y-148470043D01*
X178222121Y-148493467D01*
X178078540Y-148507130D01*
X177865391Y-148516519D01*
X177535751Y-148516533D01*
X177289524Y-148489791D01*
X177199637Y-148467394D01*
X177047028Y-148419856D01*
X176912903Y-148378885D01*
X176878415Y-148368601D01*
X176786403Y-148313592D01*
X176675073Y-148209391D01*
X176611589Y-148134067D01*
X176523624Y-148008042D01*
X176492090Y-147927507D01*
X176509187Y-147871578D01*
X176512160Y-147867855D01*
X176540669Y-147822031D01*
X176496075Y-147829715D01*
X176490350Y-147831884D01*
X176444955Y-147835644D01*
X176422113Y-147789224D01*
X176421642Y-147781819D01*
X176599273Y-147781819D01*
X176622364Y-147804910D01*
X176645455Y-147781819D01*
X176622364Y-147758728D01*
X176599273Y-147781819D01*
X176421642Y-147781819D01*
X176418703Y-147735637D01*
X176691637Y-147735637D01*
X176714727Y-147758728D01*
X176737818Y-147735637D01*
X176714727Y-147712546D01*
X176691637Y-147735637D01*
X176418703Y-147735637D01*
X176417042Y-147709539D01*
X176795323Y-147709539D01*
X176801640Y-147712546D01*
X176843785Y-147680035D01*
X176853273Y-147666364D01*
X176865041Y-147623189D01*
X176858724Y-147620182D01*
X176816579Y-147652693D01*
X176807091Y-147666364D01*
X176795323Y-147709539D01*
X176417042Y-147709539D01*
X176414780Y-147674017D01*
X176414546Y-147631569D01*
X176413364Y-147597091D01*
X176922546Y-147597091D01*
X176945637Y-147620182D01*
X176968727Y-147597091D01*
X176945637Y-147574000D01*
X176922546Y-147597091D01*
X176413364Y-147597091D01*
X176411892Y-147554159D01*
X177014909Y-147554159D01*
X177048850Y-147553845D01*
X177107273Y-147527819D01*
X177179850Y-147480126D01*
X177199637Y-147455296D01*
X177165696Y-147455610D01*
X177107273Y-147481637D01*
X177034696Y-147529329D01*
X177014909Y-147554159D01*
X176411892Y-147554159D01*
X176407928Y-147438633D01*
X176406084Y-147416296D01*
X177251984Y-147416296D01*
X177270175Y-147418592D01*
X177303546Y-147407536D01*
X177360716Y-147404807D01*
X177382454Y-147464843D01*
X177384364Y-147520259D01*
X177422935Y-147666662D01*
X177487003Y-147733018D01*
X177577264Y-147790186D01*
X177636035Y-147797522D01*
X177701487Y-147763506D01*
X177735219Y-147701538D01*
X177768315Y-147576339D01*
X177796478Y-147416966D01*
X177815413Y-147252480D01*
X177816666Y-147219940D01*
X178461940Y-147219940D01*
X178468279Y-147247395D01*
X178492727Y-147250728D01*
X178530740Y-147233830D01*
X178523515Y-147219940D01*
X178468708Y-147214413D01*
X178461940Y-147219940D01*
X177816666Y-147219940D01*
X177817684Y-147193505D01*
X178097121Y-147193505D01*
X178142515Y-147200900D01*
X178202414Y-147192409D01*
X178203129Y-147176644D01*
X178141320Y-147165620D01*
X178114614Y-147172998D01*
X178097121Y-147193505D01*
X177817684Y-147193505D01*
X177820826Y-147111939D01*
X177814120Y-147059783D01*
X177846842Y-147059783D01*
X177875840Y-147066000D01*
X177943626Y-147039600D01*
X178010537Y-146994180D01*
X178067311Y-146946434D01*
X178051787Y-146946351D01*
X177984727Y-146977345D01*
X177876871Y-147032456D01*
X177846842Y-147059783D01*
X177814120Y-147059783D01*
X177810111Y-147028609D01*
X177829900Y-146970893D01*
X177886366Y-146942405D01*
X177966008Y-146916902D01*
X177968917Y-146907614D01*
X178123273Y-146907614D01*
X178157214Y-146907300D01*
X178215637Y-146881273D01*
X178288214Y-146833581D01*
X178308000Y-146808751D01*
X178274059Y-146809065D01*
X178215637Y-146835091D01*
X178143059Y-146882784D01*
X178123273Y-146907614D01*
X177968917Y-146907614D01*
X177978369Y-146877448D01*
X177956696Y-146815778D01*
X177913872Y-146771689D01*
X177816037Y-146748871D01*
X177656514Y-146742728D01*
X177384364Y-146742728D01*
X177379252Y-146915910D01*
X177378172Y-147063220D01*
X177382425Y-147188666D01*
X177383040Y-147196685D01*
X177356096Y-147309289D01*
X177307333Y-147369980D01*
X177251984Y-147416296D01*
X176406084Y-147416296D01*
X176391428Y-147238770D01*
X176385177Y-147187901D01*
X176371639Y-147057059D01*
X176371994Y-147054959D01*
X177081121Y-147054959D01*
X177126515Y-147062354D01*
X177186414Y-147053864D01*
X177187129Y-147038099D01*
X177125320Y-147027074D01*
X177098614Y-147034453D01*
X177081121Y-147054959D01*
X176371994Y-147054959D01*
X176379810Y-147008777D01*
X176757848Y-147008777D01*
X176803243Y-147016173D01*
X176863141Y-147007682D01*
X176863856Y-146991917D01*
X176802047Y-146980893D01*
X176775341Y-146988271D01*
X176757848Y-147008777D01*
X176379810Y-147008777D01*
X176382424Y-146993332D01*
X176423813Y-146973251D01*
X176442905Y-146972232D01*
X176503020Y-146966604D01*
X176478639Y-146941314D01*
X176449182Y-146923756D01*
X176414435Y-146892299D01*
X176391169Y-146835082D01*
X176377196Y-146735809D01*
X176370327Y-146578188D01*
X176368373Y-146345924D01*
X176368364Y-146322071D01*
X176365583Y-146119273D01*
X178769818Y-146119273D01*
X178792909Y-146142364D01*
X178816000Y-146119273D01*
X178792909Y-146096182D01*
X178769818Y-146119273D01*
X176365583Y-146119273D01*
X176364757Y-146059123D01*
X176353856Y-145886921D01*
X176335536Y-145804126D01*
X176320159Y-145797251D01*
X176249247Y-145796414D01*
X176202747Y-145769606D01*
X176124379Y-145732652D01*
X176083005Y-145761780D01*
X176089191Y-145834571D01*
X176136447Y-145910293D01*
X176181750Y-145975925D01*
X176209812Y-146060312D01*
X176224474Y-146185635D01*
X176229577Y-146374078D01*
X176229818Y-146449612D01*
X176229818Y-146881273D01*
X176102818Y-146885877D01*
X175975818Y-146890480D01*
X176091273Y-146927455D01*
X176165417Y-146953369D01*
X176157737Y-146964358D01*
X176065914Y-146969033D01*
X175968770Y-146959731D01*
X175908638Y-146907266D01*
X175860579Y-146800455D01*
X175813730Y-146629649D01*
X175824851Y-146487384D01*
X175898351Y-146330079D01*
X175910135Y-146310476D01*
X175979069Y-146125346D01*
X175998737Y-145899910D01*
X175998909Y-145634364D01*
X176154891Y-145634364D01*
X176286277Y-145616927D01*
X176367978Y-145552119D01*
X176418234Y-145421193D01*
X176433219Y-145348331D01*
X176476751Y-145218853D01*
X176542180Y-145155956D01*
X176543150Y-145155677D01*
X176701265Y-145115323D01*
X178143303Y-145115323D01*
X178188697Y-145122718D01*
X178248596Y-145114227D01*
X178249311Y-145098463D01*
X178187501Y-145087438D01*
X178160796Y-145094817D01*
X178143303Y-145115323D01*
X176701265Y-145115323D01*
X176882216Y-145069141D01*
X177958576Y-145069141D01*
X178003970Y-145076536D01*
X178063868Y-145068045D01*
X178064583Y-145052281D01*
X178002774Y-145041256D01*
X177976068Y-145048635D01*
X177958576Y-145069141D01*
X176882216Y-145069141D01*
X176902846Y-145063876D01*
X177209427Y-145002922D01*
X177452972Y-144974336D01*
X177623561Y-144979638D01*
X177651480Y-144985824D01*
X177794825Y-145021240D01*
X177865863Y-145029304D01*
X177858960Y-145010734D01*
X177776909Y-144969866D01*
X177638364Y-144909897D01*
X178278388Y-144762271D01*
X178455615Y-144902638D01*
X178455615Y-144902638D01*
G37*
X178455615Y-144902638D02*
X178580888Y-145012917D01*
X178666246Y-145109343D01*
X178703250Y-145178693D01*
X178683462Y-145207746D01*
X178646782Y-145202200D01*
X178515527Y-145167400D01*
X178433958Y-145153393D01*
X178413558Y-145159626D01*
X178465813Y-145185545D01*
X178529296Y-145207864D01*
X178673094Y-145264434D01*
X178780965Y-145324004D01*
X178817225Y-145357273D01*
X178841348Y-145439759D01*
X178857466Y-145579027D01*
X178861475Y-145692091D01*
X178869134Y-145834753D01*
X178888244Y-145931143D01*
X178908364Y-145957637D01*
X178932497Y-145915224D01*
X178949019Y-145802870D01*
X178954546Y-145657455D01*
X178959170Y-145489078D01*
X178975695Y-145395494D01*
X179008097Y-145359471D01*
X179023818Y-145357273D01*
X179055602Y-145372226D01*
X179076218Y-145427069D01*
X179087828Y-145536775D01*
X179092597Y-145716318D01*
X179093091Y-145836871D01*
X179091907Y-146052891D01*
X179085715Y-146195823D01*
X179070557Y-146284937D01*
X179042477Y-146339502D01*
X178997514Y-146378788D01*
X178979261Y-146391053D01*
X178864755Y-146454085D01*
X178807816Y-146450459D01*
X178800099Y-146378222D01*
X178804697Y-146350182D01*
X178813278Y-146256260D01*
X178792009Y-146242338D01*
X178748062Y-146303796D01*
X178694447Y-146421229D01*
X178600865Y-146579521D01*
X178487003Y-146676415D01*
X178395822Y-146730026D01*
X178354410Y-146767129D01*
X178354182Y-146768629D01*
X178387984Y-146768937D01*
X178443510Y-146744353D01*
X178559723Y-146700142D01*
X178619572Y-146725196D01*
X178631273Y-146785132D01*
X178656047Y-146933877D01*
X178727061Y-147010792D01*
X178774759Y-147019819D01*
X178838018Y-147056271D01*
X178864527Y-147137972D01*
X178849289Y-147223433D01*
X178804455Y-147266324D01*
X178770423Y-147287190D01*
X178804455Y-147293264D01*
X178841709Y-147337728D01*
X178859954Y-147467532D01*
X178862182Y-147564959D01*
X178820376Y-147842165D01*
X178692824Y-148103999D01*
X178476325Y-148356887D01*
X178460417Y-148371935D01*
X178390448Y-148431364D01*
X178318553Y-148470043D01*
X178222121Y-148493467D01*
X178078540Y-148507130D01*
X177865391Y-148516519D01*
X177535751Y-148516533D01*
X177289524Y-148489791D01*
X177199637Y-148467394D01*
X177047028Y-148419856D01*
X176912903Y-148378885D01*
X176878415Y-148368601D01*
X176786403Y-148313592D01*
X176675073Y-148209391D01*
X176611589Y-148134067D01*
X176523624Y-148008042D01*
X176492090Y-147927507D01*
X176509187Y-147871578D01*
X176512160Y-147867855D01*
X176540669Y-147822031D01*
X176496075Y-147829715D01*
X176490350Y-147831884D01*
X176444955Y-147835644D01*
X176422113Y-147789224D01*
X176421642Y-147781819D01*
X176599273Y-147781819D01*
X176622364Y-147804910D01*
X176645455Y-147781819D01*
X176622364Y-147758728D01*
X176599273Y-147781819D01*
X176421642Y-147781819D01*
X176418703Y-147735637D01*
X176691637Y-147735637D01*
X176714727Y-147758728D01*
X176737818Y-147735637D01*
X176714727Y-147712546D01*
X176691637Y-147735637D01*
X176418703Y-147735637D01*
X176417042Y-147709539D01*
X176795323Y-147709539D01*
X176801640Y-147712546D01*
X176843785Y-147680035D01*
X176853273Y-147666364D01*
X176865041Y-147623189D01*
X176858724Y-147620182D01*
X176816579Y-147652693D01*
X176807091Y-147666364D01*
X176795323Y-147709539D01*
X176417042Y-147709539D01*
X176414780Y-147674017D01*
X176414546Y-147631569D01*
X176413364Y-147597091D01*
X176922546Y-147597091D01*
X176945637Y-147620182D01*
X176968727Y-147597091D01*
X176945637Y-147574000D01*
X176922546Y-147597091D01*
X176413364Y-147597091D01*
X176411892Y-147554159D01*
X177014909Y-147554159D01*
X177048850Y-147553845D01*
X177107273Y-147527819D01*
X177179850Y-147480126D01*
X177199637Y-147455296D01*
X177165696Y-147455610D01*
X177107273Y-147481637D01*
X177034696Y-147529329D01*
X177014909Y-147554159D01*
X176411892Y-147554159D01*
X176407928Y-147438633D01*
X176406084Y-147416296D01*
X177251984Y-147416296D01*
X177270175Y-147418592D01*
X177303546Y-147407536D01*
X177360716Y-147404807D01*
X177382454Y-147464843D01*
X177384364Y-147520259D01*
X177422935Y-147666662D01*
X177487003Y-147733018D01*
X177577264Y-147790186D01*
X177636035Y-147797522D01*
X177701487Y-147763506D01*
X177735219Y-147701538D01*
X177768315Y-147576339D01*
X177796478Y-147416966D01*
X177815413Y-147252480D01*
X177816666Y-147219940D01*
X178461940Y-147219940D01*
X178468279Y-147247395D01*
X178492727Y-147250728D01*
X178530740Y-147233830D01*
X178523515Y-147219940D01*
X178468708Y-147214413D01*
X178461940Y-147219940D01*
X177816666Y-147219940D01*
X177817684Y-147193505D01*
X178097121Y-147193505D01*
X178142515Y-147200900D01*
X178202414Y-147192409D01*
X178203129Y-147176644D01*
X178141320Y-147165620D01*
X178114614Y-147172998D01*
X178097121Y-147193505D01*
X177817684Y-147193505D01*
X177820826Y-147111939D01*
X177814120Y-147059783D01*
X177846842Y-147059783D01*
X177875840Y-147066000D01*
X177943626Y-147039600D01*
X178010537Y-146994180D01*
X178067311Y-146946434D01*
X178051787Y-146946351D01*
X177984727Y-146977345D01*
X177876871Y-147032456D01*
X177846842Y-147059783D01*
X177814120Y-147059783D01*
X177810111Y-147028609D01*
X177829900Y-146970893D01*
X177886366Y-146942405D01*
X177966008Y-146916902D01*
X177968917Y-146907614D01*
X178123273Y-146907614D01*
X178157214Y-146907300D01*
X178215637Y-146881273D01*
X178288214Y-146833581D01*
X178308000Y-146808751D01*
X178274059Y-146809065D01*
X178215637Y-146835091D01*
X178143059Y-146882784D01*
X178123273Y-146907614D01*
X177968917Y-146907614D01*
X177978369Y-146877448D01*
X177956696Y-146815778D01*
X177913872Y-146771689D01*
X177816037Y-146748871D01*
X177656514Y-146742728D01*
X177384364Y-146742728D01*
X177379252Y-146915910D01*
X177378172Y-147063220D01*
X177382425Y-147188666D01*
X177383040Y-147196685D01*
X177356096Y-147309289D01*
X177307333Y-147369980D01*
X177251984Y-147416296D01*
X176406084Y-147416296D01*
X176391428Y-147238770D01*
X176385177Y-147187901D01*
X176371639Y-147057059D01*
X176371994Y-147054959D01*
X177081121Y-147054959D01*
X177126515Y-147062354D01*
X177186414Y-147053864D01*
X177187129Y-147038099D01*
X177125320Y-147027074D01*
X177098614Y-147034453D01*
X177081121Y-147054959D01*
X176371994Y-147054959D01*
X176379810Y-147008777D01*
X176757848Y-147008777D01*
X176803243Y-147016173D01*
X176863141Y-147007682D01*
X176863856Y-146991917D01*
X176802047Y-146980893D01*
X176775341Y-146988271D01*
X176757848Y-147008777D01*
X176379810Y-147008777D01*
X176382424Y-146993332D01*
X176423813Y-146973251D01*
X176442905Y-146972232D01*
X176503020Y-146966604D01*
X176478639Y-146941314D01*
X176449182Y-146923756D01*
X176414435Y-146892299D01*
X176391169Y-146835082D01*
X176377196Y-146735809D01*
X176370327Y-146578188D01*
X176368373Y-146345924D01*
X176368364Y-146322071D01*
X176365583Y-146119273D01*
X178769818Y-146119273D01*
X178792909Y-146142364D01*
X178816000Y-146119273D01*
X178792909Y-146096182D01*
X178769818Y-146119273D01*
X176365583Y-146119273D01*
X176364757Y-146059123D01*
X176353856Y-145886921D01*
X176335536Y-145804126D01*
X176320159Y-145797251D01*
X176249247Y-145796414D01*
X176202747Y-145769606D01*
X176124379Y-145732652D01*
X176083005Y-145761780D01*
X176089191Y-145834571D01*
X176136447Y-145910293D01*
X176181750Y-145975925D01*
X176209812Y-146060312D01*
X176224474Y-146185635D01*
X176229577Y-146374078D01*
X176229818Y-146449612D01*
X176229818Y-146881273D01*
X176102818Y-146885877D01*
X175975818Y-146890480D01*
X176091273Y-146927455D01*
X176165417Y-146953369D01*
X176157737Y-146964358D01*
X176065914Y-146969033D01*
X175968770Y-146959731D01*
X175908638Y-146907266D01*
X175860579Y-146800455D01*
X175813730Y-146629649D01*
X175824851Y-146487384D01*
X175898351Y-146330079D01*
X175910135Y-146310476D01*
X175979069Y-146125346D01*
X175998737Y-145899910D01*
X175998909Y-145634364D01*
X176154891Y-145634364D01*
X176286277Y-145616927D01*
X176367978Y-145552119D01*
X176418234Y-145421193D01*
X176433219Y-145348331D01*
X176476751Y-145218853D01*
X176542180Y-145155956D01*
X176543150Y-145155677D01*
X176701265Y-145115323D01*
X178143303Y-145115323D01*
X178188697Y-145122718D01*
X178248596Y-145114227D01*
X178249311Y-145098463D01*
X178187501Y-145087438D01*
X178160796Y-145094817D01*
X178143303Y-145115323D01*
X176701265Y-145115323D01*
X176882216Y-145069141D01*
X177958576Y-145069141D01*
X178003970Y-145076536D01*
X178063868Y-145068045D01*
X178064583Y-145052281D01*
X178002774Y-145041256D01*
X177976068Y-145048635D01*
X177958576Y-145069141D01*
X176882216Y-145069141D01*
X176902846Y-145063876D01*
X177209427Y-145002922D01*
X177452972Y-144974336D01*
X177623561Y-144979638D01*
X177651480Y-144985824D01*
X177794825Y-145021240D01*
X177865863Y-145029304D01*
X177858960Y-145010734D01*
X177776909Y-144969866D01*
X177638364Y-144909897D01*
X178278388Y-144762271D01*
X178455615Y-144902638D01*
G36*
X181693207Y-144971817D02*
X181702364Y-144973414D01*
X181821279Y-145007280D01*
X181898637Y-145045853D01*
X181951707Y-145122528D01*
X181939249Y-145191459D01*
X181873207Y-145218728D01*
X181770549Y-145237789D01*
X181665749Y-145276455D01*
X181541448Y-145334182D01*
X181537449Y-146488728D01*
X181536173Y-146946906D01*
X181535929Y-147321523D01*
X181536869Y-147621377D01*
X181539144Y-147855267D01*
X181542906Y-148031991D01*
X181548306Y-148160347D01*
X181555497Y-148249134D01*
X181564629Y-148307151D01*
X181569079Y-148324455D01*
X181571950Y-148359855D01*
X181545436Y-148383141D01*
X181474603Y-148396804D01*
X181344519Y-148403337D01*
X181140251Y-148405231D01*
X181084809Y-148405273D01*
X180576485Y-148405273D01*
X180562152Y-148232091D01*
X180547818Y-148058910D01*
X180443306Y-148226973D01*
X180337281Y-148354712D01*
X180190786Y-148440453D01*
X180111356Y-148469427D01*
X179946912Y-148520104D01*
X179847800Y-148539969D01*
X179793028Y-148531054D01*
X179765963Y-148502872D01*
X179707150Y-148467270D01*
X179597591Y-148435206D01*
X179584850Y-148432696D01*
X179470002Y-148403274D01*
X179384988Y-148355387D01*
X179324171Y-148275517D01*
X179281913Y-148150145D01*
X179252576Y-147965750D01*
X179230523Y-147708813D01*
X179221155Y-147560576D01*
X179215962Y-147458546D01*
X180155273Y-147458546D01*
X180178364Y-147481637D01*
X180201455Y-147458546D01*
X180178364Y-147435455D01*
X180155273Y-147458546D01*
X179215962Y-147458546D01*
X179211260Y-147366182D01*
X179508727Y-147366182D01*
X179531818Y-147389273D01*
X179554909Y-147366182D01*
X179531818Y-147343091D01*
X179508727Y-147366182D01*
X179211260Y-147366182D01*
X179207528Y-147292884D01*
X179198064Y-147029238D01*
X179193514Y-146797535D01*
X179194633Y-146625668D01*
X179195376Y-146605853D01*
X179208546Y-146307342D01*
X179739637Y-145994690D01*
X179940218Y-145878823D01*
X180006366Y-145842182D01*
X180986546Y-145842182D01*
X181009637Y-145865273D01*
X181032727Y-145842182D01*
X181009637Y-145819091D01*
X180986546Y-145842182D01*
X180006366Y-145842182D01*
X180103636Y-145788303D01*
X180817212Y-145788303D01*
X180823552Y-145815758D01*
X180848000Y-145819091D01*
X180886013Y-145802194D01*
X180878788Y-145788303D01*
X180823981Y-145782776D01*
X180817212Y-145788303D01*
X180103636Y-145788303D01*
X180114543Y-145782262D01*
X180176934Y-145749819D01*
X180663273Y-145749819D01*
X180686364Y-145772910D01*
X180709455Y-145749819D01*
X180686364Y-145726728D01*
X180663273Y-145749819D01*
X180176934Y-145749819D01*
X180246131Y-145713837D01*
X180287299Y-145695940D01*
X180447758Y-145695940D01*
X180454097Y-145723395D01*
X180478546Y-145726728D01*
X180516558Y-145709830D01*
X180509333Y-145695940D01*
X180454526Y-145690413D01*
X180447758Y-145695940D01*
X180287299Y-145695940D01*
X180318503Y-145682375D01*
X180324606Y-145681292D01*
X180387179Y-145653548D01*
X180393879Y-145642624D01*
X180437527Y-145607350D01*
X180547031Y-145536175D01*
X180707616Y-145438247D01*
X180904506Y-145322715D01*
X180986546Y-145275659D01*
X181226231Y-145141561D01*
X181402171Y-145050280D01*
X181528934Y-144995663D01*
X181621090Y-144971560D01*
X181693207Y-144971817D01*
X181693207Y-144971817D01*
G37*
X181693207Y-144971817D02*
X181702364Y-144973414D01*
X181821279Y-145007280D01*
X181898637Y-145045853D01*
X181951707Y-145122528D01*
X181939249Y-145191459D01*
X181873207Y-145218728D01*
X181770549Y-145237789D01*
X181665749Y-145276455D01*
X181541448Y-145334182D01*
X181537449Y-146488728D01*
X181536173Y-146946906D01*
X181535929Y-147321523D01*
X181536869Y-147621377D01*
X181539144Y-147855267D01*
X181542906Y-148031991D01*
X181548306Y-148160347D01*
X181555497Y-148249134D01*
X181564629Y-148307151D01*
X181569079Y-148324455D01*
X181571950Y-148359855D01*
X181545436Y-148383141D01*
X181474603Y-148396804D01*
X181344519Y-148403337D01*
X181140251Y-148405231D01*
X181084809Y-148405273D01*
X180576485Y-148405273D01*
X180562152Y-148232091D01*
X180547818Y-148058910D01*
X180443306Y-148226973D01*
X180337281Y-148354712D01*
X180190786Y-148440453D01*
X180111356Y-148469427D01*
X179946912Y-148520104D01*
X179847800Y-148539969D01*
X179793028Y-148531054D01*
X179765963Y-148502872D01*
X179707150Y-148467270D01*
X179597591Y-148435206D01*
X179584850Y-148432696D01*
X179470002Y-148403274D01*
X179384988Y-148355387D01*
X179324171Y-148275517D01*
X179281913Y-148150145D01*
X179252576Y-147965750D01*
X179230523Y-147708813D01*
X179221155Y-147560576D01*
X179215962Y-147458546D01*
X180155273Y-147458546D01*
X180178364Y-147481637D01*
X180201455Y-147458546D01*
X180178364Y-147435455D01*
X180155273Y-147458546D01*
X179215962Y-147458546D01*
X179211260Y-147366182D01*
X179508727Y-147366182D01*
X179531818Y-147389273D01*
X179554909Y-147366182D01*
X179531818Y-147343091D01*
X179508727Y-147366182D01*
X179211260Y-147366182D01*
X179207528Y-147292884D01*
X179198064Y-147029238D01*
X179193514Y-146797535D01*
X179194633Y-146625668D01*
X179195376Y-146605853D01*
X179208546Y-146307342D01*
X179739637Y-145994690D01*
X179940218Y-145878823D01*
X180006366Y-145842182D01*
X180986546Y-145842182D01*
X181009637Y-145865273D01*
X181032727Y-145842182D01*
X181009637Y-145819091D01*
X180986546Y-145842182D01*
X180006366Y-145842182D01*
X180103636Y-145788303D01*
X180817212Y-145788303D01*
X180823552Y-145815758D01*
X180848000Y-145819091D01*
X180886013Y-145802194D01*
X180878788Y-145788303D01*
X180823981Y-145782776D01*
X180817212Y-145788303D01*
X180103636Y-145788303D01*
X180114543Y-145782262D01*
X180176934Y-145749819D01*
X180663273Y-145749819D01*
X180686364Y-145772910D01*
X180709455Y-145749819D01*
X180686364Y-145726728D01*
X180663273Y-145749819D01*
X180176934Y-145749819D01*
X180246131Y-145713837D01*
X180287299Y-145695940D01*
X180447758Y-145695940D01*
X180454097Y-145723395D01*
X180478546Y-145726728D01*
X180516558Y-145709830D01*
X180509333Y-145695940D01*
X180454526Y-145690413D01*
X180447758Y-145695940D01*
X180287299Y-145695940D01*
X180318503Y-145682375D01*
X180324606Y-145681292D01*
X180387179Y-145653548D01*
X180393879Y-145642624D01*
X180437527Y-145607350D01*
X180547031Y-145536175D01*
X180707616Y-145438247D01*
X180904506Y-145322715D01*
X180986546Y-145275659D01*
X181226231Y-145141561D01*
X181402171Y-145050280D01*
X181528934Y-144995663D01*
X181621090Y-144971560D01*
X181693207Y-144971817D01*
G36*
X167038952Y-144196340D02*
X167068225Y-144224719D01*
X167116248Y-144292763D01*
X167116032Y-144326453D01*
X167112839Y-144383484D01*
X167133590Y-144436608D01*
X167150014Y-144508488D01*
X167086673Y-144548819D01*
X167085784Y-144549102D01*
X167019097Y-144581076D01*
X166998731Y-144634725D01*
X167022946Y-144732744D01*
X167063783Y-144835833D01*
X167104675Y-144952852D01*
X167100835Y-145016419D01*
X167075329Y-145041461D01*
X167046838Y-145072117D01*
X167091321Y-145079475D01*
X167154722Y-145122975D01*
X167194722Y-145253364D01*
X167221748Y-145457826D01*
X167219726Y-145589225D01*
X167186054Y-145662995D01*
X167120455Y-145694136D01*
X167048222Y-145709718D01*
X167065315Y-145716848D01*
X167115804Y-145720439D01*
X167165556Y-145737031D01*
X167201586Y-145786891D01*
X167225234Y-145880987D01*
X167237840Y-146030287D01*
X167240744Y-146245759D01*
X167235286Y-146538372D01*
X167231453Y-146667212D01*
X167214790Y-147192119D01*
X166825536Y-147273807D01*
X166653655Y-147312621D01*
X166525804Y-147346786D01*
X166461204Y-147370918D01*
X166457613Y-147376826D01*
X166509757Y-147377775D01*
X166627260Y-147360380D01*
X166785784Y-147328331D01*
X166803044Y-147324442D01*
X166969506Y-147288034D01*
X167102129Y-147261690D01*
X167173790Y-147250775D01*
X167175753Y-147250728D01*
X167200040Y-147295455D01*
X167216385Y-147424362D01*
X167223939Y-147629540D01*
X167224364Y-147703309D01*
X167229825Y-147931616D01*
X167245199Y-148100968D01*
X167268972Y-148196788D01*
X167276813Y-148208341D01*
X167300985Y-148269307D01*
X167257021Y-148333032D01*
X167201155Y-148367414D01*
X167104941Y-148389474D01*
X166951667Y-148401366D01*
X166724622Y-148405243D01*
X166696572Y-148405273D01*
X166208364Y-148405273D01*
X166208364Y-147923576D01*
X166209382Y-147708116D01*
X166214810Y-147567820D01*
X166228210Y-147485490D01*
X166253144Y-147443929D01*
X166293172Y-147425941D01*
X166312273Y-147421865D01*
X166416182Y-147401851D01*
X166312819Y-147395562D01*
X166240424Y-147372186D01*
X166199059Y-147297110D01*
X166180427Y-147207739D01*
X166156855Y-147093268D01*
X166123468Y-147050890D01*
X166060894Y-147060827D01*
X166042970Y-147067429D01*
X165943956Y-147089110D01*
X165912508Y-147062834D01*
X165948262Y-147003230D01*
X166046440Y-146927633D01*
X166156574Y-146843550D01*
X166201839Y-146753645D01*
X166207337Y-146681234D01*
X166187048Y-146561129D01*
X166138024Y-146450880D01*
X166075550Y-146371846D01*
X166014909Y-146345388D01*
X165982958Y-146367644D01*
X165922391Y-146407267D01*
X165891691Y-146400443D01*
X165867662Y-146422687D01*
X165849301Y-146525566D01*
X165836123Y-146713194D01*
X165828800Y-146935152D01*
X165822748Y-147171663D01*
X165815140Y-147331940D01*
X165802511Y-147432091D01*
X165781402Y-147488226D01*
X165748348Y-147516453D01*
X165700364Y-147532750D01*
X165584909Y-147564794D01*
X165711909Y-147569397D01*
X165795496Y-147582183D01*
X165831116Y-147630750D01*
X165838515Y-147742830D01*
X165838508Y-147747182D01*
X165832429Y-147899499D01*
X165817529Y-148084202D01*
X165808984Y-148162819D01*
X165779862Y-148405273D01*
X164822909Y-148405273D01*
X164822909Y-148085387D01*
X164826731Y-147911483D01*
X164841392Y-147809529D01*
X164871681Y-147759312D01*
X164903727Y-147744380D01*
X164960644Y-147726828D01*
X164927849Y-147719593D01*
X164903727Y-147717903D01*
X164878704Y-147710333D01*
X164872174Y-147701505D01*
X165027666Y-147701505D01*
X165073061Y-147708900D01*
X165132959Y-147700409D01*
X165133674Y-147684644D01*
X165071865Y-147673620D01*
X165045159Y-147680998D01*
X165027666Y-147701505D01*
X164872174Y-147701505D01*
X164859428Y-147684277D01*
X164849652Y-147646487D01*
X165215022Y-147646487D01*
X165231215Y-147656427D01*
X165261637Y-147657157D01*
X165378828Y-147642914D01*
X165469455Y-147620182D01*
X165539160Y-147593878D01*
X165522967Y-147583938D01*
X165492546Y-147583207D01*
X165375354Y-147597450D01*
X165284727Y-147620182D01*
X165215022Y-147646487D01*
X164849652Y-147646487D01*
X164845158Y-147629118D01*
X164835151Y-147534240D01*
X164828664Y-147389026D01*
X164824957Y-147182861D01*
X164823286Y-146905129D01*
X164822909Y-146561849D01*
X164824036Y-146184550D01*
X164827688Y-145891245D01*
X164834278Y-145673585D01*
X164844214Y-145523224D01*
X164844577Y-145520799D01*
X165746018Y-145520799D01*
X165762705Y-145528542D01*
X165823190Y-145569741D01*
X165831134Y-145664163D01*
X165828431Y-145684821D01*
X165826513Y-145782783D01*
X165868153Y-145817538D01*
X165890364Y-145819091D01*
X165976332Y-145843636D01*
X166002126Y-145867830D01*
X166065712Y-145912248D01*
X166135099Y-145884071D01*
X166187245Y-145798446D01*
X166199744Y-145737895D01*
X166217884Y-145662097D01*
X166759718Y-145662097D01*
X166823576Y-145669385D01*
X166854909Y-145669832D01*
X166938929Y-145665017D01*
X166948831Y-145653029D01*
X166935727Y-145648712D01*
X166818600Y-145641529D01*
X166774091Y-145648712D01*
X166759718Y-145662097D01*
X166217884Y-145662097D01*
X166224542Y-145634277D01*
X166241171Y-145613867D01*
X166402670Y-145613867D01*
X166458178Y-145621520D01*
X166508546Y-145622718D01*
X166603592Y-145619000D01*
X166628123Y-145608535D01*
X166612993Y-145602633D01*
X166502091Y-145594031D01*
X166428266Y-145601701D01*
X166402670Y-145613867D01*
X166241171Y-145613867D01*
X166265329Y-145584218D01*
X166269017Y-145583579D01*
X166299740Y-145572683D01*
X166260542Y-145555192D01*
X166173205Y-145535521D01*
X166059513Y-145518085D01*
X165941249Y-145507296D01*
X165885091Y-145505779D01*
X165781234Y-145510242D01*
X165746018Y-145520799D01*
X164844577Y-145520799D01*
X164851390Y-145475322D01*
X165386670Y-145475322D01*
X165442178Y-145482974D01*
X165492546Y-145484172D01*
X165587592Y-145480455D01*
X165612123Y-145469990D01*
X165596993Y-145464088D01*
X165486091Y-145455486D01*
X165412266Y-145463156D01*
X165386670Y-145475322D01*
X164851390Y-145475322D01*
X164857908Y-145431816D01*
X164859079Y-145429140D01*
X165017216Y-145429140D01*
X165072724Y-145436793D01*
X165123091Y-145437990D01*
X165218137Y-145434273D01*
X165242669Y-145423808D01*
X165227539Y-145417906D01*
X165116636Y-145409304D01*
X165042811Y-145416974D01*
X165017216Y-145429140D01*
X164859079Y-145429140D01*
X164875770Y-145391014D01*
X164880637Y-145387858D01*
X164914668Y-145366993D01*
X164880637Y-145360919D01*
X164846559Y-145322155D01*
X164827811Y-145206112D01*
X164824810Y-145103273D01*
X166901091Y-145103273D01*
X166924182Y-145126364D01*
X166947273Y-145103273D01*
X166924182Y-145080182D01*
X166901091Y-145103273D01*
X164824810Y-145103273D01*
X164822909Y-145038146D01*
X164822909Y-144719019D01*
X165215737Y-144686297D01*
X165474173Y-144673517D01*
X165655556Y-144685676D01*
X165744041Y-144709690D01*
X165861620Y-144739031D01*
X165940031Y-144727203D01*
X166021448Y-144701965D01*
X166153027Y-144684957D01*
X166204854Y-144682220D01*
X166368358Y-144658303D01*
X166462738Y-144602532D01*
X166463946Y-144600920D01*
X166552603Y-144538992D01*
X166617546Y-144526000D01*
X166694159Y-144501856D01*
X166716343Y-144414861D01*
X166716364Y-144410546D01*
X166731275Y-144328034D01*
X166794661Y-144297849D01*
X166854909Y-144295091D01*
X166962770Y-144275908D01*
X166993455Y-144222520D01*
X167001140Y-144175352D01*
X167038952Y-144196340D01*
X167038952Y-144196340D01*
G37*
X167038952Y-144196340D02*
X167068225Y-144224719D01*
X167116248Y-144292763D01*
X167116032Y-144326453D01*
X167112839Y-144383484D01*
X167133590Y-144436608D01*
X167150014Y-144508488D01*
X167086673Y-144548819D01*
X167085784Y-144549102D01*
X167019097Y-144581076D01*
X166998731Y-144634725D01*
X167022946Y-144732744D01*
X167063783Y-144835833D01*
X167104675Y-144952852D01*
X167100835Y-145016419D01*
X167075329Y-145041461D01*
X167046838Y-145072117D01*
X167091321Y-145079475D01*
X167154722Y-145122975D01*
X167194722Y-145253364D01*
X167221748Y-145457826D01*
X167219726Y-145589225D01*
X167186054Y-145662995D01*
X167120455Y-145694136D01*
X167048222Y-145709718D01*
X167065315Y-145716848D01*
X167115804Y-145720439D01*
X167165556Y-145737031D01*
X167201586Y-145786891D01*
X167225234Y-145880987D01*
X167237840Y-146030287D01*
X167240744Y-146245759D01*
X167235286Y-146538372D01*
X167231453Y-146667212D01*
X167214790Y-147192119D01*
X166825536Y-147273807D01*
X166653655Y-147312621D01*
X166525804Y-147346786D01*
X166461204Y-147370918D01*
X166457613Y-147376826D01*
X166509757Y-147377775D01*
X166627260Y-147360380D01*
X166785784Y-147328331D01*
X166803044Y-147324442D01*
X166969506Y-147288034D01*
X167102129Y-147261690D01*
X167173790Y-147250775D01*
X167175753Y-147250728D01*
X167200040Y-147295455D01*
X167216385Y-147424362D01*
X167223939Y-147629540D01*
X167224364Y-147703309D01*
X167229825Y-147931616D01*
X167245199Y-148100968D01*
X167268972Y-148196788D01*
X167276813Y-148208341D01*
X167300985Y-148269307D01*
X167257021Y-148333032D01*
X167201155Y-148367414D01*
X167104941Y-148389474D01*
X166951667Y-148401366D01*
X166724622Y-148405243D01*
X166696572Y-148405273D01*
X166208364Y-148405273D01*
X166208364Y-147923576D01*
X166209382Y-147708116D01*
X166214810Y-147567820D01*
X166228210Y-147485490D01*
X166253144Y-147443929D01*
X166293172Y-147425941D01*
X166312273Y-147421865D01*
X166416182Y-147401851D01*
X166312819Y-147395562D01*
X166240424Y-147372186D01*
X166199059Y-147297110D01*
X166180427Y-147207739D01*
X166156855Y-147093268D01*
X166123468Y-147050890D01*
X166060894Y-147060827D01*
X166042970Y-147067429D01*
X165943956Y-147089110D01*
X165912508Y-147062834D01*
X165948262Y-147003230D01*
X166046440Y-146927633D01*
X166156574Y-146843550D01*
X166201839Y-146753645D01*
X166207337Y-146681234D01*
X166187048Y-146561129D01*
X166138024Y-146450880D01*
X166075550Y-146371846D01*
X166014909Y-146345388D01*
X165982958Y-146367644D01*
X165922391Y-146407267D01*
X165891691Y-146400443D01*
X165867662Y-146422687D01*
X165849301Y-146525566D01*
X165836123Y-146713194D01*
X165828800Y-146935152D01*
X165822748Y-147171663D01*
X165815140Y-147331940D01*
X165802511Y-147432091D01*
X165781402Y-147488226D01*
X165748348Y-147516453D01*
X165700364Y-147532750D01*
X165584909Y-147564794D01*
X165711909Y-147569397D01*
X165795496Y-147582183D01*
X165831116Y-147630750D01*
X165838515Y-147742830D01*
X165838508Y-147747182D01*
X165832429Y-147899499D01*
X165817529Y-148084202D01*
X165808984Y-148162819D01*
X165779862Y-148405273D01*
X164822909Y-148405273D01*
X164822909Y-148085387D01*
X164826731Y-147911483D01*
X164841392Y-147809529D01*
X164871681Y-147759312D01*
X164903727Y-147744380D01*
X164960644Y-147726828D01*
X164927849Y-147719593D01*
X164903727Y-147717903D01*
X164878704Y-147710333D01*
X164872174Y-147701505D01*
X165027666Y-147701505D01*
X165073061Y-147708900D01*
X165132959Y-147700409D01*
X165133674Y-147684644D01*
X165071865Y-147673620D01*
X165045159Y-147680998D01*
X165027666Y-147701505D01*
X164872174Y-147701505D01*
X164859428Y-147684277D01*
X164849652Y-147646487D01*
X165215022Y-147646487D01*
X165231215Y-147656427D01*
X165261637Y-147657157D01*
X165378828Y-147642914D01*
X165469455Y-147620182D01*
X165539160Y-147593878D01*
X165522967Y-147583938D01*
X165492546Y-147583207D01*
X165375354Y-147597450D01*
X165284727Y-147620182D01*
X165215022Y-147646487D01*
X164849652Y-147646487D01*
X164845158Y-147629118D01*
X164835151Y-147534240D01*
X164828664Y-147389026D01*
X164824957Y-147182861D01*
X164823286Y-146905129D01*
X164822909Y-146561849D01*
X164824036Y-146184550D01*
X164827688Y-145891245D01*
X164834278Y-145673585D01*
X164844214Y-145523224D01*
X164844577Y-145520799D01*
X165746018Y-145520799D01*
X165762705Y-145528542D01*
X165823190Y-145569741D01*
X165831134Y-145664163D01*
X165828431Y-145684821D01*
X165826513Y-145782783D01*
X165868153Y-145817538D01*
X165890364Y-145819091D01*
X165976332Y-145843636D01*
X166002126Y-145867830D01*
X166065712Y-145912248D01*
X166135099Y-145884071D01*
X166187245Y-145798446D01*
X166199744Y-145737895D01*
X166217884Y-145662097D01*
X166759718Y-145662097D01*
X166823576Y-145669385D01*
X166854909Y-145669832D01*
X166938929Y-145665017D01*
X166948831Y-145653029D01*
X166935727Y-145648712D01*
X166818600Y-145641529D01*
X166774091Y-145648712D01*
X166759718Y-145662097D01*
X166217884Y-145662097D01*
X166224542Y-145634277D01*
X166241171Y-145613867D01*
X166402670Y-145613867D01*
X166458178Y-145621520D01*
X166508546Y-145622718D01*
X166603592Y-145619000D01*
X166628123Y-145608535D01*
X166612993Y-145602633D01*
X166502091Y-145594031D01*
X166428266Y-145601701D01*
X166402670Y-145613867D01*
X166241171Y-145613867D01*
X166265329Y-145584218D01*
X166269017Y-145583579D01*
X166299740Y-145572683D01*
X166260542Y-145555192D01*
X166173205Y-145535521D01*
X166059513Y-145518085D01*
X165941249Y-145507296D01*
X165885091Y-145505779D01*
X165781234Y-145510242D01*
X165746018Y-145520799D01*
X164844577Y-145520799D01*
X164851390Y-145475322D01*
X165386670Y-145475322D01*
X165442178Y-145482974D01*
X165492546Y-145484172D01*
X165587592Y-145480455D01*
X165612123Y-145469990D01*
X165596993Y-145464088D01*
X165486091Y-145455486D01*
X165412266Y-145463156D01*
X165386670Y-145475322D01*
X164851390Y-145475322D01*
X164857908Y-145431816D01*
X164859079Y-145429140D01*
X165017216Y-145429140D01*
X165072724Y-145436793D01*
X165123091Y-145437990D01*
X165218137Y-145434273D01*
X165242669Y-145423808D01*
X165227539Y-145417906D01*
X165116636Y-145409304D01*
X165042811Y-145416974D01*
X165017216Y-145429140D01*
X164859079Y-145429140D01*
X164875770Y-145391014D01*
X164880637Y-145387858D01*
X164914668Y-145366993D01*
X164880637Y-145360919D01*
X164846559Y-145322155D01*
X164827811Y-145206112D01*
X164824810Y-145103273D01*
X166901091Y-145103273D01*
X166924182Y-145126364D01*
X166947273Y-145103273D01*
X166924182Y-145080182D01*
X166901091Y-145103273D01*
X164824810Y-145103273D01*
X164822909Y-145038146D01*
X164822909Y-144719019D01*
X165215737Y-144686297D01*
X165474173Y-144673517D01*
X165655556Y-144685676D01*
X165744041Y-144709690D01*
X165861620Y-144739031D01*
X165940031Y-144727203D01*
X166021448Y-144701965D01*
X166153027Y-144684957D01*
X166204854Y-144682220D01*
X166368358Y-144658303D01*
X166462738Y-144602532D01*
X166463946Y-144600920D01*
X166552603Y-144538992D01*
X166617546Y-144526000D01*
X166694159Y-144501856D01*
X166716343Y-144414861D01*
X166716364Y-144410546D01*
X166731275Y-144328034D01*
X166794661Y-144297849D01*
X166854909Y-144295091D01*
X166962770Y-144275908D01*
X166993455Y-144222520D01*
X167001140Y-144175352D01*
X167038952Y-144196340D01*
G36*
X168926279Y-146902765D02*
X168933091Y-146927455D01*
X168892961Y-146959881D01*
X168796269Y-146973633D01*
X168794546Y-146973637D01*
X168656000Y-146973637D01*
X168656000Y-148405273D01*
X168148000Y-148405273D01*
X167920613Y-148403294D01*
X167770891Y-148396027D01*
X167684196Y-148381476D01*
X167645888Y-148357644D01*
X167640000Y-148336000D01*
X167602298Y-148277154D01*
X167560465Y-148266728D01*
X167514046Y-148258083D01*
X167530719Y-148219874D01*
X167581356Y-148166301D01*
X167646680Y-148092567D01*
X167647709Y-148047229D01*
X167603164Y-148007520D01*
X167551646Y-147958586D01*
X167572286Y-147915794D01*
X167615166Y-147882035D01*
X167675803Y-147821460D01*
X167661577Y-147763160D01*
X167644148Y-147740634D01*
X167607163Y-147661672D01*
X167635319Y-147602732D01*
X167658536Y-147548127D01*
X167599978Y-147516077D01*
X167594792Y-147514692D01*
X167523848Y-147465860D01*
X167501527Y-147356060D01*
X167501455Y-147346425D01*
X167505702Y-147277404D01*
X167526975Y-147223846D01*
X167578071Y-147179812D01*
X167671786Y-147139363D01*
X167820917Y-147096558D01*
X168038261Y-147045457D01*
X168250217Y-146998879D01*
X168513895Y-146942623D01*
X168700507Y-146906225D01*
X168822888Y-146888345D01*
X168893867Y-146887638D01*
X168926279Y-146902765D01*
X168926279Y-146902765D01*
G37*
X168926279Y-146902765D02*
X168933091Y-146927455D01*
X168892961Y-146959881D01*
X168796269Y-146973633D01*
X168794546Y-146973637D01*
X168656000Y-146973637D01*
X168656000Y-148405273D01*
X168148000Y-148405273D01*
X167920613Y-148403294D01*
X167770891Y-148396027D01*
X167684196Y-148381476D01*
X167645888Y-148357644D01*
X167640000Y-148336000D01*
X167602298Y-148277154D01*
X167560465Y-148266728D01*
X167514046Y-148258083D01*
X167530719Y-148219874D01*
X167581356Y-148166301D01*
X167646680Y-148092567D01*
X167647709Y-148047229D01*
X167603164Y-148007520D01*
X167551646Y-147958586D01*
X167572286Y-147915794D01*
X167615166Y-147882035D01*
X167675803Y-147821460D01*
X167661577Y-147763160D01*
X167644148Y-147740634D01*
X167607163Y-147661672D01*
X167635319Y-147602732D01*
X167658536Y-147548127D01*
X167599978Y-147516077D01*
X167594792Y-147514692D01*
X167523848Y-147465860D01*
X167501527Y-147356060D01*
X167501455Y-147346425D01*
X167505702Y-147277404D01*
X167526975Y-147223846D01*
X167578071Y-147179812D01*
X167671786Y-147139363D01*
X167820917Y-147096558D01*
X168038261Y-147045457D01*
X168250217Y-146998879D01*
X168513895Y-146942623D01*
X168700507Y-146906225D01*
X168822888Y-146888345D01*
X168893867Y-146887638D01*
X168926279Y-146902765D01*
G36*
X179093091Y-147202921D02*
X179092066Y-147468745D01*
X179089219Y-147699486D01*
X179084890Y-147880584D01*
X179079421Y-147997481D01*
X179073582Y-148035819D01*
X179047867Y-147996903D01*
X179010588Y-147901624D01*
X179005314Y-147885728D01*
X178987656Y-147783211D01*
X178974560Y-147611377D01*
X178967180Y-147393206D01*
X178966667Y-147151682D01*
X178967096Y-147123685D01*
X178968179Y-146862497D01*
X178961849Y-146664074D01*
X178948682Y-146538578D01*
X178931578Y-146496423D01*
X178931000Y-146467556D01*
X178989305Y-146425568D01*
X179093091Y-146370023D01*
X179093091Y-147202921D01*
X179093091Y-147202921D01*
G37*
X179093091Y-147202921D02*
X179092066Y-147468745D01*
X179089219Y-147699486D01*
X179084890Y-147880584D01*
X179079421Y-147997481D01*
X179073582Y-148035819D01*
X179047867Y-147996903D01*
X179010588Y-147901624D01*
X179005314Y-147885728D01*
X178987656Y-147783211D01*
X178974560Y-147611377D01*
X178967180Y-147393206D01*
X178966667Y-147151682D01*
X178967096Y-147123685D01*
X178968179Y-146862497D01*
X178961849Y-146664074D01*
X178948682Y-146538578D01*
X178931578Y-146496423D01*
X178931000Y-146467556D01*
X178989305Y-146425568D01*
X179093091Y-146370023D01*
X179093091Y-147202921D01*
G36*
X168877322Y-143836638D02*
X168914947Y-143866820D01*
X168938686Y-143917098D01*
X168963415Y-144029058D01*
X168977074Y-144182542D01*
X168978081Y-144240370D01*
X168971905Y-144374901D01*
X168940663Y-144452401D01*
X168862398Y-144508155D01*
X168789678Y-144543106D01*
X168672849Y-144610859D01*
X168647153Y-144664102D01*
X168712584Y-144702598D01*
X168794413Y-144718363D01*
X168860860Y-144737065D01*
X168901773Y-144786065D01*
X168929349Y-144888188D01*
X168947409Y-145004669D01*
X168967546Y-145202567D01*
X168958952Y-145325642D01*
X168918259Y-145387885D01*
X168851413Y-145403455D01*
X168734503Y-145441335D01*
X168670028Y-145555091D01*
X168656000Y-145686715D01*
X168647546Y-145802553D01*
X168608833Y-145856816D01*
X168529000Y-145878377D01*
X168402000Y-145897616D01*
X168529000Y-145904535D01*
X168613416Y-145919985D01*
X168651314Y-145972540D01*
X168663391Y-146084637D01*
X168668764Y-146192887D01*
X168674455Y-146212441D01*
X168684509Y-146146889D01*
X168689408Y-146107728D01*
X168715324Y-146002003D01*
X168772270Y-145961649D01*
X168822296Y-145957637D01*
X168875858Y-145960582D01*
X168908725Y-145981144D01*
X168925087Y-146036911D01*
X168929134Y-146145470D01*
X168925056Y-146324410D01*
X168923279Y-146381543D01*
X168910000Y-146805449D01*
X168240364Y-146957904D01*
X168002951Y-147011509D01*
X167797779Y-147056990D01*
X167641567Y-147090708D01*
X167551030Y-147109022D01*
X167536091Y-147111271D01*
X167515812Y-147070437D01*
X167503344Y-146965630D01*
X167501455Y-146895128D01*
X167506439Y-146767002D01*
X167524288Y-146718184D01*
X167556873Y-146733491D01*
X167630774Y-146780493D01*
X167674886Y-146758710D01*
X167686517Y-146687660D01*
X167662975Y-146586857D01*
X167601569Y-146475817D01*
X167593818Y-146465637D01*
X167524307Y-146343721D01*
X167503627Y-146233532D01*
X167532639Y-146159281D01*
X167582273Y-146141657D01*
X167635082Y-146133647D01*
X167600584Y-146101436D01*
X167595655Y-146098294D01*
X167555665Y-146056857D01*
X167579704Y-146000888D01*
X167612801Y-145962176D01*
X167666565Y-145868846D01*
X167667607Y-145846825D01*
X168145173Y-145846825D01*
X168209030Y-145854112D01*
X168240364Y-145854559D01*
X168324383Y-145849744D01*
X168334285Y-145837756D01*
X168321182Y-145833439D01*
X168204054Y-145826257D01*
X168159546Y-145833439D01*
X168145173Y-145846825D01*
X167667607Y-145846825D01*
X167669793Y-145800643D01*
X167775718Y-145800643D01*
X167839576Y-145807930D01*
X167870909Y-145808377D01*
X167954929Y-145803562D01*
X167964831Y-145791574D01*
X167951727Y-145787257D01*
X167834600Y-145780075D01*
X167790091Y-145787257D01*
X167775718Y-145800643D01*
X167669793Y-145800643D01*
X167669955Y-145797236D01*
X167643046Y-145714940D01*
X167637973Y-145691607D01*
X167606993Y-145634114D01*
X167555891Y-145568806D01*
X167504793Y-145505975D01*
X167516971Y-145495625D01*
X167559182Y-145509629D01*
X167625647Y-145515896D01*
X167640000Y-145497581D01*
X167600739Y-145459559D01*
X167536091Y-145441303D01*
X167468785Y-145416618D01*
X167433826Y-145350382D01*
X167417641Y-145223305D01*
X167421910Y-145065650D01*
X167460880Y-144983568D01*
X167463822Y-144981557D01*
X167498786Y-144949230D01*
X167466818Y-144942344D01*
X167448979Y-144930596D01*
X167567666Y-144930596D01*
X167613061Y-144937991D01*
X167672959Y-144929500D01*
X167673674Y-144913735D01*
X167611865Y-144902711D01*
X167585159Y-144910089D01*
X167567666Y-144930596D01*
X167448979Y-144930596D01*
X167416813Y-144909414D01*
X167416696Y-144884414D01*
X167752394Y-144884414D01*
X167797788Y-144891809D01*
X167857687Y-144883318D01*
X167858402Y-144867553D01*
X167796592Y-144856529D01*
X167769887Y-144863908D01*
X167752394Y-144884414D01*
X167416696Y-144884414D01*
X167416466Y-144835536D01*
X167426196Y-144818485D01*
X167932485Y-144818485D01*
X167938824Y-144845940D01*
X167963273Y-144849273D01*
X168001286Y-144832376D01*
X167994061Y-144818485D01*
X167939254Y-144812958D01*
X167932485Y-144818485D01*
X167426196Y-144818485D01*
X167441282Y-144792050D01*
X168075666Y-144792050D01*
X168121061Y-144799445D01*
X168180959Y-144790955D01*
X168181674Y-144775190D01*
X168119865Y-144764165D01*
X168093159Y-144771544D01*
X168075666Y-144792050D01*
X167441282Y-144792050D01*
X167462265Y-144755282D01*
X167472903Y-144745868D01*
X168260394Y-144745868D01*
X168305788Y-144753264D01*
X168365687Y-144744773D01*
X168366402Y-144729008D01*
X168304592Y-144717984D01*
X168277887Y-144725362D01*
X168260394Y-144745868D01*
X167472903Y-144745868D01*
X167488166Y-144732362D01*
X167517742Y-144699686D01*
X168445121Y-144699686D01*
X168490515Y-144707082D01*
X168550414Y-144698591D01*
X168551129Y-144682826D01*
X168489320Y-144671802D01*
X168462614Y-144679180D01*
X168445121Y-144699686D01*
X167517742Y-144699686D01*
X167540595Y-144674439D01*
X167513997Y-144610548D01*
X167507712Y-144602813D01*
X167462770Y-144498197D01*
X167474254Y-144390892D01*
X167534500Y-144317043D01*
X167570869Y-144304919D01*
X167657121Y-144257797D01*
X167737575Y-144162317D01*
X167739629Y-144158790D01*
X167837708Y-144024974D01*
X167963783Y-143932841D01*
X168136586Y-143874222D01*
X168374846Y-143840950D01*
X168486084Y-143833273D01*
X168682507Y-143823497D01*
X168806381Y-143823408D01*
X168877322Y-143836638D01*
X168877322Y-143836638D01*
G37*
X168877322Y-143836638D02*
X168914947Y-143866820D01*
X168938686Y-143917098D01*
X168963415Y-144029058D01*
X168977074Y-144182542D01*
X168978081Y-144240370D01*
X168971905Y-144374901D01*
X168940663Y-144452401D01*
X168862398Y-144508155D01*
X168789678Y-144543106D01*
X168672849Y-144610859D01*
X168647153Y-144664102D01*
X168712584Y-144702598D01*
X168794413Y-144718363D01*
X168860860Y-144737065D01*
X168901773Y-144786065D01*
X168929349Y-144888188D01*
X168947409Y-145004669D01*
X168967546Y-145202567D01*
X168958952Y-145325642D01*
X168918259Y-145387885D01*
X168851413Y-145403455D01*
X168734503Y-145441335D01*
X168670028Y-145555091D01*
X168656000Y-145686715D01*
X168647546Y-145802553D01*
X168608833Y-145856816D01*
X168529000Y-145878377D01*
X168402000Y-145897616D01*
X168529000Y-145904535D01*
X168613416Y-145919985D01*
X168651314Y-145972540D01*
X168663391Y-146084637D01*
X168668764Y-146192887D01*
X168674455Y-146212441D01*
X168684509Y-146146889D01*
X168689408Y-146107728D01*
X168715324Y-146002003D01*
X168772270Y-145961649D01*
X168822296Y-145957637D01*
X168875858Y-145960582D01*
X168908725Y-145981144D01*
X168925087Y-146036911D01*
X168929134Y-146145470D01*
X168925056Y-146324410D01*
X168923279Y-146381543D01*
X168910000Y-146805449D01*
X168240364Y-146957904D01*
X168002951Y-147011509D01*
X167797779Y-147056990D01*
X167641567Y-147090708D01*
X167551030Y-147109022D01*
X167536091Y-147111271D01*
X167515812Y-147070437D01*
X167503344Y-146965630D01*
X167501455Y-146895128D01*
X167506439Y-146767002D01*
X167524288Y-146718184D01*
X167556873Y-146733491D01*
X167630774Y-146780493D01*
X167674886Y-146758710D01*
X167686517Y-146687660D01*
X167662975Y-146586857D01*
X167601569Y-146475817D01*
X167593818Y-146465637D01*
X167524307Y-146343721D01*
X167503627Y-146233532D01*
X167532639Y-146159281D01*
X167582273Y-146141657D01*
X167635082Y-146133647D01*
X167600584Y-146101436D01*
X167595655Y-146098294D01*
X167555665Y-146056857D01*
X167579704Y-146000888D01*
X167612801Y-145962176D01*
X167666565Y-145868846D01*
X167667607Y-145846825D01*
X168145173Y-145846825D01*
X168209030Y-145854112D01*
X168240364Y-145854559D01*
X168324383Y-145849744D01*
X168334285Y-145837756D01*
X168321182Y-145833439D01*
X168204054Y-145826257D01*
X168159546Y-145833439D01*
X168145173Y-145846825D01*
X167667607Y-145846825D01*
X167669793Y-145800643D01*
X167775718Y-145800643D01*
X167839576Y-145807930D01*
X167870909Y-145808377D01*
X167954929Y-145803562D01*
X167964831Y-145791574D01*
X167951727Y-145787257D01*
X167834600Y-145780075D01*
X167790091Y-145787257D01*
X167775718Y-145800643D01*
X167669793Y-145800643D01*
X167669955Y-145797236D01*
X167643046Y-145714940D01*
X167637973Y-145691607D01*
X167606993Y-145634114D01*
X167555891Y-145568806D01*
X167504793Y-145505975D01*
X167516971Y-145495625D01*
X167559182Y-145509629D01*
X167625647Y-145515896D01*
X167640000Y-145497581D01*
X167600739Y-145459559D01*
X167536091Y-145441303D01*
X167468785Y-145416618D01*
X167433826Y-145350382D01*
X167417641Y-145223305D01*
X167421910Y-145065650D01*
X167460880Y-144983568D01*
X167463822Y-144981557D01*
X167498786Y-144949230D01*
X167466818Y-144942344D01*
X167448979Y-144930596D01*
X167567666Y-144930596D01*
X167613061Y-144937991D01*
X167672959Y-144929500D01*
X167673674Y-144913735D01*
X167611865Y-144902711D01*
X167585159Y-144910089D01*
X167567666Y-144930596D01*
X167448979Y-144930596D01*
X167416813Y-144909414D01*
X167416696Y-144884414D01*
X167752394Y-144884414D01*
X167797788Y-144891809D01*
X167857687Y-144883318D01*
X167858402Y-144867553D01*
X167796592Y-144856529D01*
X167769887Y-144863908D01*
X167752394Y-144884414D01*
X167416696Y-144884414D01*
X167416466Y-144835536D01*
X167426196Y-144818485D01*
X167932485Y-144818485D01*
X167938824Y-144845940D01*
X167963273Y-144849273D01*
X168001286Y-144832376D01*
X167994061Y-144818485D01*
X167939254Y-144812958D01*
X167932485Y-144818485D01*
X167426196Y-144818485D01*
X167441282Y-144792050D01*
X168075666Y-144792050D01*
X168121061Y-144799445D01*
X168180959Y-144790955D01*
X168181674Y-144775190D01*
X168119865Y-144764165D01*
X168093159Y-144771544D01*
X168075666Y-144792050D01*
X167441282Y-144792050D01*
X167462265Y-144755282D01*
X167472903Y-144745868D01*
X168260394Y-144745868D01*
X168305788Y-144753264D01*
X168365687Y-144744773D01*
X168366402Y-144729008D01*
X168304592Y-144717984D01*
X168277887Y-144725362D01*
X168260394Y-144745868D01*
X167472903Y-144745868D01*
X167488166Y-144732362D01*
X167517742Y-144699686D01*
X168445121Y-144699686D01*
X168490515Y-144707082D01*
X168550414Y-144698591D01*
X168551129Y-144682826D01*
X168489320Y-144671802D01*
X168462614Y-144679180D01*
X168445121Y-144699686D01*
X167517742Y-144699686D01*
X167540595Y-144674439D01*
X167513997Y-144610548D01*
X167507712Y-144602813D01*
X167462770Y-144498197D01*
X167474254Y-144390892D01*
X167534500Y-144317043D01*
X167570869Y-144304919D01*
X167657121Y-144257797D01*
X167737575Y-144162317D01*
X167739629Y-144158790D01*
X167837708Y-144024974D01*
X167963783Y-143932841D01*
X168136586Y-143874222D01*
X168374846Y-143840950D01*
X168486084Y-143833273D01*
X168682507Y-143823497D01*
X168806381Y-143823408D01*
X168877322Y-143836638D01*
G36*
X170201600Y-144647181D02*
X170519688Y-144660658D01*
X170766360Y-144697269D01*
X170960822Y-144762304D01*
X171122284Y-144861055D01*
X171191347Y-144919798D01*
X171377162Y-145110168D01*
X171494020Y-145282729D01*
X171554608Y-145462861D01*
X171571614Y-145675943D01*
X171571598Y-145680494D01*
X171579140Y-145838793D01*
X171599256Y-145932275D01*
X171625481Y-145953962D01*
X171651347Y-145896873D01*
X171667929Y-145784455D01*
X171677656Y-145697220D01*
X171687636Y-145681351D01*
X171701849Y-145743738D01*
X171722484Y-145878930D01*
X171740070Y-146025782D01*
X171745718Y-146131388D01*
X171740572Y-146167368D01*
X171686404Y-146184386D01*
X171571470Y-146204634D01*
X171492532Y-146215106D01*
X171338455Y-146239268D01*
X171210672Y-146269311D01*
X171172909Y-146282574D01*
X171106022Y-146302611D01*
X170966222Y-146338345D01*
X170770056Y-146385994D01*
X170534067Y-146441779D01*
X170274800Y-146501916D01*
X170008800Y-146562627D01*
X169752611Y-146620129D01*
X169522777Y-146670642D01*
X169335843Y-146710385D01*
X169208355Y-146735577D01*
X169159388Y-146742728D01*
X169140015Y-146700217D01*
X169125457Y-146587308D01*
X169118202Y-146425937D01*
X169117818Y-146376199D01*
X169117818Y-146216279D01*
X170869900Y-146216279D01*
X170933757Y-146223567D01*
X170965091Y-146224013D01*
X171049110Y-146219199D01*
X171059012Y-146207211D01*
X171045909Y-146202893D01*
X170928782Y-146195711D01*
X170884273Y-146202893D01*
X170869900Y-146216279D01*
X169117818Y-146216279D01*
X169117818Y-146171243D01*
X170543046Y-146171243D01*
X170604386Y-146179238D01*
X170618727Y-146179543D01*
X170697598Y-146174551D01*
X170704542Y-146160094D01*
X170700425Y-146158254D01*
X170608745Y-146149118D01*
X170561879Y-146156542D01*
X170543046Y-146171243D01*
X169117818Y-146171243D01*
X169117818Y-146123915D01*
X170177173Y-146123915D01*
X170241030Y-146131203D01*
X170272364Y-146131650D01*
X170356383Y-146126835D01*
X170362629Y-146119273D01*
X171519273Y-146119273D01*
X171542364Y-146142364D01*
X171565455Y-146119273D01*
X171542364Y-146096182D01*
X171519273Y-146119273D01*
X170362629Y-146119273D01*
X170366285Y-146114847D01*
X170353182Y-146110530D01*
X170236054Y-146103348D01*
X170191546Y-146110530D01*
X170177173Y-146123915D01*
X169117818Y-146123915D01*
X169117818Y-146078879D01*
X169850319Y-146078879D01*
X169911659Y-146086875D01*
X169926000Y-146087179D01*
X170004871Y-146082187D01*
X170011815Y-146067730D01*
X170007697Y-146065890D01*
X169916018Y-146056754D01*
X169869152Y-146064179D01*
X169850319Y-146078879D01*
X169117818Y-146078879D01*
X169117818Y-146032697D01*
X169527046Y-146032697D01*
X169588386Y-146040693D01*
X169602727Y-146040997D01*
X169681598Y-146036006D01*
X169688542Y-146021549D01*
X169684425Y-146019708D01*
X169592745Y-146010572D01*
X169545879Y-146017997D01*
X169527046Y-146032697D01*
X169117818Y-146032697D01*
X169117818Y-146009671D01*
X169267909Y-145991044D01*
X169418000Y-145972418D01*
X169273295Y-145965028D01*
X169154453Y-145936148D01*
X169104387Y-145865083D01*
X169058019Y-145797856D01*
X169011309Y-145798958D01*
X168935498Y-145797403D01*
X168913192Y-145778075D01*
X168856246Y-145746090D01*
X168797847Y-145773693D01*
X168777895Y-145837880D01*
X168782219Y-145853580D01*
X168786670Y-145902485D01*
X168756212Y-145893214D01*
X168714264Y-145825406D01*
X168702182Y-145747093D01*
X168715371Y-145669767D01*
X168773101Y-145638889D01*
X168858164Y-145634364D01*
X168986218Y-145617537D01*
X169070745Y-145555500D01*
X169126993Y-145430921D01*
X169158506Y-145292960D01*
X169205208Y-145122090D01*
X169283645Y-144992922D01*
X169412782Y-144883947D01*
X169611586Y-144773656D01*
X169620111Y-144769473D01*
X169794413Y-144695274D01*
X169956895Y-144657730D01*
X170154410Y-144646987D01*
X170201600Y-144647181D01*
X170201600Y-144647181D01*
G37*
X170201600Y-144647181D02*
X170519688Y-144660658D01*
X170766360Y-144697269D01*
X170960822Y-144762304D01*
X171122284Y-144861055D01*
X171191347Y-144919798D01*
X171377162Y-145110168D01*
X171494020Y-145282729D01*
X171554608Y-145462861D01*
X171571614Y-145675943D01*
X171571598Y-145680494D01*
X171579140Y-145838793D01*
X171599256Y-145932275D01*
X171625481Y-145953962D01*
X171651347Y-145896873D01*
X171667929Y-145784455D01*
X171677656Y-145697220D01*
X171687636Y-145681351D01*
X171701849Y-145743738D01*
X171722484Y-145878930D01*
X171740070Y-146025782D01*
X171745718Y-146131388D01*
X171740572Y-146167368D01*
X171686404Y-146184386D01*
X171571470Y-146204634D01*
X171492532Y-146215106D01*
X171338455Y-146239268D01*
X171210672Y-146269311D01*
X171172909Y-146282574D01*
X171106022Y-146302611D01*
X170966222Y-146338345D01*
X170770056Y-146385994D01*
X170534067Y-146441779D01*
X170274800Y-146501916D01*
X170008800Y-146562627D01*
X169752611Y-146620129D01*
X169522777Y-146670642D01*
X169335843Y-146710385D01*
X169208355Y-146735577D01*
X169159388Y-146742728D01*
X169140015Y-146700217D01*
X169125457Y-146587308D01*
X169118202Y-146425937D01*
X169117818Y-146376199D01*
X169117818Y-146216279D01*
X170869900Y-146216279D01*
X170933757Y-146223567D01*
X170965091Y-146224013D01*
X171049110Y-146219199D01*
X171059012Y-146207211D01*
X171045909Y-146202893D01*
X170928782Y-146195711D01*
X170884273Y-146202893D01*
X170869900Y-146216279D01*
X169117818Y-146216279D01*
X169117818Y-146171243D01*
X170543046Y-146171243D01*
X170604386Y-146179238D01*
X170618727Y-146179543D01*
X170697598Y-146174551D01*
X170704542Y-146160094D01*
X170700425Y-146158254D01*
X170608745Y-146149118D01*
X170561879Y-146156542D01*
X170543046Y-146171243D01*
X169117818Y-146171243D01*
X169117818Y-146123915D01*
X170177173Y-146123915D01*
X170241030Y-146131203D01*
X170272364Y-146131650D01*
X170356383Y-146126835D01*
X170362629Y-146119273D01*
X171519273Y-146119273D01*
X171542364Y-146142364D01*
X171565455Y-146119273D01*
X171542364Y-146096182D01*
X171519273Y-146119273D01*
X170362629Y-146119273D01*
X170366285Y-146114847D01*
X170353182Y-146110530D01*
X170236054Y-146103348D01*
X170191546Y-146110530D01*
X170177173Y-146123915D01*
X169117818Y-146123915D01*
X169117818Y-146078879D01*
X169850319Y-146078879D01*
X169911659Y-146086875D01*
X169926000Y-146087179D01*
X170004871Y-146082187D01*
X170011815Y-146067730D01*
X170007697Y-146065890D01*
X169916018Y-146056754D01*
X169869152Y-146064179D01*
X169850319Y-146078879D01*
X169117818Y-146078879D01*
X169117818Y-146032697D01*
X169527046Y-146032697D01*
X169588386Y-146040693D01*
X169602727Y-146040997D01*
X169681598Y-146036006D01*
X169688542Y-146021549D01*
X169684425Y-146019708D01*
X169592745Y-146010572D01*
X169545879Y-146017997D01*
X169527046Y-146032697D01*
X169117818Y-146032697D01*
X169117818Y-146009671D01*
X169267909Y-145991044D01*
X169418000Y-145972418D01*
X169273295Y-145965028D01*
X169154453Y-145936148D01*
X169104387Y-145865083D01*
X169058019Y-145797856D01*
X169011309Y-145798958D01*
X168935498Y-145797403D01*
X168913192Y-145778075D01*
X168856246Y-145746090D01*
X168797847Y-145773693D01*
X168777895Y-145837880D01*
X168782219Y-145853580D01*
X168786670Y-145902485D01*
X168756212Y-145893214D01*
X168714264Y-145825406D01*
X168702182Y-145747093D01*
X168715371Y-145669767D01*
X168773101Y-145638889D01*
X168858164Y-145634364D01*
X168986218Y-145617537D01*
X169070745Y-145555500D01*
X169126993Y-145430921D01*
X169158506Y-145292960D01*
X169205208Y-145122090D01*
X169283645Y-144992922D01*
X169412782Y-144883947D01*
X169611586Y-144773656D01*
X169620111Y-144769473D01*
X169794413Y-144695274D01*
X169956895Y-144657730D01*
X170154410Y-144646987D01*
X170201600Y-144647181D01*
G36*
X171767452Y-146341739D02*
X171790935Y-146387487D01*
X171740946Y-146456400D01*
X171680453Y-146502318D01*
X171612721Y-146494888D01*
X171577000Y-146481233D01*
X171517219Y-146429238D01*
X171531731Y-146371332D01*
X171607646Y-146332102D01*
X171657818Y-146327091D01*
X171767452Y-146341739D01*
X171767452Y-146341739D01*
G37*
X171767452Y-146341739D02*
X171790935Y-146387487D01*
X171740946Y-146456400D01*
X171680453Y-146502318D01*
X171612721Y-146494888D01*
X171577000Y-146481233D01*
X171517219Y-146429238D01*
X171531731Y-146371332D01*
X171607646Y-146332102D01*
X171657818Y-146327091D01*
X171767452Y-146341739D01*
G36*
X173059306Y-145941662D02*
X173080603Y-145993223D01*
X173088790Y-146112585D01*
X173089455Y-146189995D01*
X173084085Y-146350412D01*
X173065060Y-146436333D01*
X173028008Y-146465160D01*
X173020182Y-146465637D01*
X172978046Y-146442461D01*
X172956573Y-146361346D01*
X172950909Y-146216578D01*
X172960299Y-146051999D01*
X172990929Y-145963408D01*
X173020182Y-145940936D01*
X173059306Y-145941662D01*
X173059306Y-145941662D01*
G37*
X173059306Y-145941662D02*
X173080603Y-145993223D01*
X173088790Y-146112585D01*
X173089455Y-146189995D01*
X173084085Y-146350412D01*
X173065060Y-146436333D01*
X173028008Y-146465160D01*
X173020182Y-146465637D01*
X172978046Y-146442461D01*
X172956573Y-146361346D01*
X172950909Y-146216578D01*
X172960299Y-146051999D01*
X172990929Y-145963408D01*
X173020182Y-145940936D01*
X173059306Y-145941662D01*
G36*
X164718411Y-145622819D02*
X164725249Y-145825606D01*
X164721993Y-146042231D01*
X164718411Y-146107728D01*
X164711777Y-146163706D01*
X164706359Y-146135469D01*
X164702727Y-146031161D01*
X164701449Y-145865273D01*
X164702808Y-145695044D01*
X164706505Y-145592996D01*
X164711969Y-145567273D01*
X164718411Y-145622819D01*
X164718411Y-145622819D01*
G37*
X164718411Y-145622819D02*
X164725249Y-145825606D01*
X164721993Y-146042231D01*
X164718411Y-146107728D01*
X164711777Y-146163706D01*
X164706359Y-146135469D01*
X164702727Y-146031161D01*
X164701449Y-145865273D01*
X164702808Y-145695044D01*
X164706505Y-145592996D01*
X164711969Y-145567273D01*
X164718411Y-145622819D01*
G36*
X171761727Y-146250324D02*
X171767529Y-146267180D01*
X171704000Y-146273618D01*
X171638439Y-146266360D01*
X171646273Y-146250324D01*
X171740823Y-146244225D01*
X171761727Y-146250324D01*
X171761727Y-146250324D01*
G37*
X171761727Y-146250324D02*
X171767529Y-146267180D01*
X171704000Y-146273618D01*
X171638439Y-146266360D01*
X171646273Y-146250324D01*
X171740823Y-146244225D01*
X171761727Y-146250324D01*
G36*
X181512863Y-144093858D02*
X181531311Y-144190217D01*
X181539782Y-144363307D01*
X181540727Y-144477672D01*
X181540727Y-144891163D01*
X180912828Y-145262528D01*
X180655294Y-145411917D01*
X180463004Y-145515858D01*
X180324145Y-145579824D01*
X180226906Y-145609291D01*
X180162373Y-145610328D01*
X180088162Y-145598910D01*
X180098941Y-145611736D01*
X180130676Y-145626235D01*
X180159789Y-145649861D01*
X180145799Y-145685165D01*
X180078860Y-145740542D01*
X179949129Y-145824387D01*
X179778844Y-145926244D01*
X179547282Y-146063292D01*
X179385033Y-146154924D01*
X179279864Y-146199104D01*
X179219546Y-146193793D01*
X179191846Y-146136955D01*
X179184535Y-146026554D01*
X179185380Y-145860551D01*
X179185455Y-145827418D01*
X179187774Y-145625746D01*
X179192692Y-145557394D01*
X179939758Y-145557394D01*
X179946097Y-145584849D01*
X179970546Y-145588182D01*
X180008558Y-145571285D01*
X180001333Y-145557394D01*
X179946526Y-145551867D01*
X179939758Y-145557394D01*
X179192692Y-145557394D01*
X179196015Y-145511213D01*
X179755030Y-145511213D01*
X179761370Y-145538668D01*
X179785818Y-145542000D01*
X179823831Y-145525103D01*
X179816606Y-145511213D01*
X179761799Y-145505685D01*
X179755030Y-145511213D01*
X179196015Y-145511213D01*
X179196935Y-145498438D01*
X179200656Y-145484777D01*
X179574939Y-145484777D01*
X179620333Y-145492173D01*
X179680232Y-145483682D01*
X179680947Y-145467917D01*
X179619138Y-145456893D01*
X179592432Y-145464271D01*
X179574939Y-145484777D01*
X179200656Y-145484777D01*
X179213238Y-145438596D01*
X179390212Y-145438596D01*
X179435606Y-145445991D01*
X179495505Y-145437500D01*
X179496220Y-145421735D01*
X179434411Y-145410711D01*
X179407705Y-145418089D01*
X179390212Y-145438596D01*
X179213238Y-145438596D01*
X179216244Y-145427566D01*
X179249007Y-145395199D01*
X179266273Y-145389107D01*
X179319000Y-145371809D01*
X179282090Y-145364090D01*
X179260267Y-145362630D01*
X179208023Y-145347144D01*
X179188217Y-145293422D01*
X179193843Y-145177468D01*
X179197191Y-145146579D01*
X179249554Y-144950066D01*
X179348596Y-144791323D01*
X179478402Y-144685241D01*
X179623060Y-144646714D01*
X179713522Y-144663396D01*
X179783425Y-144699937D01*
X179818909Y-144758939D01*
X179831450Y-144868193D01*
X179832707Y-144952039D01*
X179841257Y-145104309D01*
X179862311Y-145224614D01*
X179878182Y-145264910D01*
X179904568Y-145277528D01*
X179919246Y-145210007D01*
X179923657Y-145072414D01*
X179931924Y-144856096D01*
X179960197Y-144724637D01*
X180015798Y-144671408D01*
X180106048Y-144689780D01*
X180238269Y-144773123D01*
X180247071Y-144779583D01*
X180402995Y-144894620D01*
X180463166Y-144721856D01*
X180503997Y-144567498D01*
X180523724Y-144420210D01*
X180524032Y-144406634D01*
X180524727Y-144264177D01*
X180975000Y-144163918D01*
X181172020Y-144121302D01*
X181337877Y-144087744D01*
X181450123Y-144067664D01*
X181483000Y-144063920D01*
X181512863Y-144093858D01*
X181512863Y-144093858D01*
G37*
X181512863Y-144093858D02*
X181531311Y-144190217D01*
X181539782Y-144363307D01*
X181540727Y-144477672D01*
X181540727Y-144891163D01*
X180912828Y-145262528D01*
X180655294Y-145411917D01*
X180463004Y-145515858D01*
X180324145Y-145579824D01*
X180226906Y-145609291D01*
X180162373Y-145610328D01*
X180088162Y-145598910D01*
X180098941Y-145611736D01*
X180130676Y-145626235D01*
X180159789Y-145649861D01*
X180145799Y-145685165D01*
X180078860Y-145740542D01*
X179949129Y-145824387D01*
X179778844Y-145926244D01*
X179547282Y-146063292D01*
X179385033Y-146154924D01*
X179279864Y-146199104D01*
X179219546Y-146193793D01*
X179191846Y-146136955D01*
X179184535Y-146026554D01*
X179185380Y-145860551D01*
X179185455Y-145827418D01*
X179187774Y-145625746D01*
X179192692Y-145557394D01*
X179939758Y-145557394D01*
X179946097Y-145584849D01*
X179970546Y-145588182D01*
X180008558Y-145571285D01*
X180001333Y-145557394D01*
X179946526Y-145551867D01*
X179939758Y-145557394D01*
X179192692Y-145557394D01*
X179196015Y-145511213D01*
X179755030Y-145511213D01*
X179761370Y-145538668D01*
X179785818Y-145542000D01*
X179823831Y-145525103D01*
X179816606Y-145511213D01*
X179761799Y-145505685D01*
X179755030Y-145511213D01*
X179196015Y-145511213D01*
X179196935Y-145498438D01*
X179200656Y-145484777D01*
X179574939Y-145484777D01*
X179620333Y-145492173D01*
X179680232Y-145483682D01*
X179680947Y-145467917D01*
X179619138Y-145456893D01*
X179592432Y-145464271D01*
X179574939Y-145484777D01*
X179200656Y-145484777D01*
X179213238Y-145438596D01*
X179390212Y-145438596D01*
X179435606Y-145445991D01*
X179495505Y-145437500D01*
X179496220Y-145421735D01*
X179434411Y-145410711D01*
X179407705Y-145418089D01*
X179390212Y-145438596D01*
X179213238Y-145438596D01*
X179216244Y-145427566D01*
X179249007Y-145395199D01*
X179266273Y-145389107D01*
X179319000Y-145371809D01*
X179282090Y-145364090D01*
X179260267Y-145362630D01*
X179208023Y-145347144D01*
X179188217Y-145293422D01*
X179193843Y-145177468D01*
X179197191Y-145146579D01*
X179249554Y-144950066D01*
X179348596Y-144791323D01*
X179478402Y-144685241D01*
X179623060Y-144646714D01*
X179713522Y-144663396D01*
X179783425Y-144699937D01*
X179818909Y-144758939D01*
X179831450Y-144868193D01*
X179832707Y-144952039D01*
X179841257Y-145104309D01*
X179862311Y-145224614D01*
X179878182Y-145264910D01*
X179904568Y-145277528D01*
X179919246Y-145210007D01*
X179923657Y-145072414D01*
X179931924Y-144856096D01*
X179960197Y-144724637D01*
X180015798Y-144671408D01*
X180106048Y-144689780D01*
X180238269Y-144773123D01*
X180247071Y-144779583D01*
X180402995Y-144894620D01*
X180463166Y-144721856D01*
X180503997Y-144567498D01*
X180523724Y-144420210D01*
X180524032Y-144406634D01*
X180524727Y-144264177D01*
X180975000Y-144163918D01*
X181172020Y-144121302D01*
X181337877Y-144087744D01*
X181450123Y-144067664D01*
X181483000Y-144063920D01*
X181512863Y-144093858D01*
G36*
X172736264Y-144616156D02*
X172763245Y-144688922D01*
X172777314Y-144842376D01*
X172778539Y-145079629D01*
X172766986Y-145403791D01*
X172757095Y-145588182D01*
X172736962Y-145934546D01*
X172324390Y-146036956D01*
X172139520Y-146082119D01*
X171989292Y-146117461D01*
X171895730Y-146137867D01*
X171877182Y-146140865D01*
X171861818Y-146098853D01*
X171849951Y-145985170D01*
X171843338Y-145820492D01*
X171842546Y-145733657D01*
X171844921Y-145531954D01*
X171856250Y-145395068D01*
X171882837Y-145295490D01*
X171930987Y-145205708D01*
X171979568Y-145135795D01*
X172083444Y-145017083D01*
X172220302Y-144893531D01*
X172371376Y-144778026D01*
X172517900Y-144683456D01*
X172641109Y-144622706D01*
X172722238Y-144608663D01*
X172736264Y-144616156D01*
X172736264Y-144616156D01*
G37*
X172736264Y-144616156D02*
X172763245Y-144688922D01*
X172777314Y-144842376D01*
X172778539Y-145079629D01*
X172766986Y-145403791D01*
X172757095Y-145588182D01*
X172736962Y-145934546D01*
X172324390Y-146036956D01*
X172139520Y-146082119D01*
X171989292Y-146117461D01*
X171895730Y-146137867D01*
X171877182Y-146140865D01*
X171861818Y-146098853D01*
X171849951Y-145985170D01*
X171843338Y-145820492D01*
X171842546Y-145733657D01*
X171844921Y-145531954D01*
X171856250Y-145395068D01*
X171882837Y-145295490D01*
X171930987Y-145205708D01*
X171979568Y-145135795D01*
X172083444Y-145017083D01*
X172220302Y-144893531D01*
X172371376Y-144778026D01*
X172517900Y-144683456D01*
X172641109Y-144622706D01*
X172722238Y-144608663D01*
X172736264Y-144616156D01*
G36*
X174263524Y-145703414D02*
X174284265Y-145746856D01*
X174283733Y-145818786D01*
X174281424Y-145846733D01*
X174267091Y-146012919D01*
X173874546Y-146019914D01*
X173675822Y-146021447D01*
X173497927Y-146019286D01*
X173372477Y-146013909D01*
X173352262Y-146012032D01*
X173253519Y-145988089D01*
X173241637Y-145951001D01*
X173312488Y-145903497D01*
X173461944Y-145848308D01*
X173685877Y-145788163D01*
X173693568Y-145786342D01*
X173936533Y-145729923D01*
X174103372Y-145696356D01*
X174207798Y-145687050D01*
X174263524Y-145703414D01*
X174263524Y-145703414D01*
G37*
X174263524Y-145703414D02*
X174284265Y-145746856D01*
X174283733Y-145818786D01*
X174281424Y-145846733D01*
X174267091Y-146012919D01*
X173874546Y-146019914D01*
X173675822Y-146021447D01*
X173497927Y-146019286D01*
X173372477Y-146013909D01*
X173352262Y-146012032D01*
X173253519Y-145988089D01*
X173241637Y-145951001D01*
X173312488Y-145903497D01*
X173461944Y-145848308D01*
X173685877Y-145788163D01*
X173693568Y-145786342D01*
X173936533Y-145729923D01*
X174103372Y-145696356D01*
X174207798Y-145687050D01*
X174263524Y-145703414D01*
G36*
X167612492Y-145837040D02*
X167559104Y-145905269D01*
X167496732Y-145889015D01*
X167478364Y-145865273D01*
X167465932Y-145822074D01*
X167471861Y-145819091D01*
X167528793Y-145804622D01*
X167567474Y-145790858D01*
X167619432Y-145787535D01*
X167612492Y-145837040D01*
X167612492Y-145837040D01*
G37*
X167612492Y-145837040D02*
X167559104Y-145905269D01*
X167496732Y-145889015D01*
X167478364Y-145865273D01*
X167465932Y-145822074D01*
X167471861Y-145819091D01*
X167528793Y-145804622D01*
X167567474Y-145790858D01*
X167619432Y-145787535D01*
X167612492Y-145837040D01*
G36*
X173422653Y-144656262D02*
X173654468Y-144721217D01*
X173883342Y-144858603D01*
X173907122Y-144876468D01*
X174062501Y-145037748D01*
X174184844Y-145244087D01*
X174250316Y-145454392D01*
X174252606Y-145472121D01*
X174256025Y-145531247D01*
X174240137Y-145573497D01*
X174189222Y-145607174D01*
X174087561Y-145640581D01*
X173919434Y-145682022D01*
X173805273Y-145708410D01*
X173609062Y-145753017D01*
X173447038Y-145788862D01*
X173339918Y-145811418D01*
X173308818Y-145816869D01*
X173288336Y-145776931D01*
X173275907Y-145673139D01*
X173274182Y-145607425D01*
X173261158Y-145467763D01*
X173229830Y-145411710D01*
X173191815Y-145435489D01*
X173158729Y-145535327D01*
X173144652Y-145649519D01*
X173129804Y-145782850D01*
X173100300Y-145846996D01*
X173044324Y-145865096D01*
X173034465Y-145865273D01*
X172976353Y-145856022D01*
X172954221Y-145812135D01*
X172960026Y-145709410D01*
X172966411Y-145660582D01*
X172974828Y-145501188D01*
X172961194Y-145356699D01*
X172953389Y-145325764D01*
X172925857Y-145204926D01*
X172900427Y-145038377D01*
X172889309Y-144935361D01*
X172866307Y-144675086D01*
X173151063Y-144652847D01*
X173422653Y-144656262D01*
X173422653Y-144656262D01*
G37*
X173422653Y-144656262D02*
X173654468Y-144721217D01*
X173883342Y-144858603D01*
X173907122Y-144876468D01*
X174062501Y-145037748D01*
X174184844Y-145244087D01*
X174250316Y-145454392D01*
X174252606Y-145472121D01*
X174256025Y-145531247D01*
X174240137Y-145573497D01*
X174189222Y-145607174D01*
X174087561Y-145640581D01*
X173919434Y-145682022D01*
X173805273Y-145708410D01*
X173609062Y-145753017D01*
X173447038Y-145788862D01*
X173339918Y-145811418D01*
X173308818Y-145816869D01*
X173288336Y-145776931D01*
X173275907Y-145673139D01*
X173274182Y-145607425D01*
X173261158Y-145467763D01*
X173229830Y-145411710D01*
X173191815Y-145435489D01*
X173158729Y-145535327D01*
X173144652Y-145649519D01*
X173129804Y-145782850D01*
X173100300Y-145846996D01*
X173044324Y-145865096D01*
X173034465Y-145865273D01*
X172976353Y-145856022D01*
X172954221Y-145812135D01*
X172960026Y-145709410D01*
X172966411Y-145660582D01*
X172974828Y-145501188D01*
X172961194Y-145356699D01*
X172953389Y-145325764D01*
X172925857Y-145204926D01*
X172900427Y-145038377D01*
X172889309Y-144935361D01*
X172866307Y-144675086D01*
X173151063Y-144652847D01*
X173422653Y-144656262D01*
G36*
X168824853Y-145477929D02*
X168817637Y-145495819D01*
X168776137Y-145539875D01*
X168768729Y-145542000D01*
X168748893Y-145506270D01*
X168748364Y-145495819D01*
X168783866Y-145451411D01*
X168797271Y-145449637D01*
X168824853Y-145477929D01*
X168824853Y-145477929D01*
G37*
X168824853Y-145477929D02*
X168817637Y-145495819D01*
X168776137Y-145539875D01*
X168768729Y-145542000D01*
X168748893Y-145506270D01*
X168748364Y-145495819D01*
X168783866Y-145451411D01*
X168797271Y-145449637D01*
X168824853Y-145477929D01*
G36*
X174796725Y-144258382D02*
X174922697Y-144287578D01*
X175098720Y-144330796D01*
X175271546Y-144374674D01*
X175487830Y-144431416D01*
X175629996Y-144473867D01*
X175713565Y-144510001D01*
X175754060Y-144547792D01*
X175767002Y-144595213D01*
X175768000Y-144629687D01*
X175778594Y-144715949D01*
X175828964Y-144750874D01*
X175926569Y-144756910D01*
X176036147Y-144766883D01*
X176084728Y-144811723D01*
X176099751Y-144883910D01*
X176124418Y-144974951D01*
X176189543Y-144999737D01*
X176241364Y-144996059D01*
X176340388Y-145002247D01*
X176368364Y-145050674D01*
X176367271Y-145078915D01*
X176356220Y-145102170D01*
X176323552Y-145124101D01*
X176257609Y-145148372D01*
X176146730Y-145178644D01*
X175979258Y-145218580D01*
X175743534Y-145271842D01*
X175471666Y-145332359D01*
X175186035Y-145395854D01*
X174977709Y-145441371D01*
X174833765Y-145470674D01*
X174741278Y-145485524D01*
X174687324Y-145487683D01*
X174658980Y-145478913D01*
X174643320Y-145460977D01*
X174634600Y-145446488D01*
X174571515Y-145416103D01*
X174539511Y-145421948D01*
X174447784Y-145437062D01*
X174389266Y-145390852D01*
X174357859Y-145273046D01*
X174347756Y-145098951D01*
X174348171Y-144935032D01*
X174360652Y-144839379D01*
X174392683Y-144788011D01*
X174451747Y-144756944D01*
X174454833Y-144755763D01*
X174566554Y-144732785D01*
X174636145Y-144740055D01*
X174676415Y-144739522D01*
X174697785Y-144686949D01*
X174705427Y-144565097D01*
X174705818Y-144507850D01*
X174711416Y-144366982D01*
X174725878Y-144272516D01*
X174740455Y-144247897D01*
X174796725Y-144258382D01*
X174796725Y-144258382D01*
G37*
X174796725Y-144258382D02*
X174922697Y-144287578D01*
X175098720Y-144330796D01*
X175271546Y-144374674D01*
X175487830Y-144431416D01*
X175629996Y-144473867D01*
X175713565Y-144510001D01*
X175754060Y-144547792D01*
X175767002Y-144595213D01*
X175768000Y-144629687D01*
X175778594Y-144715949D01*
X175828964Y-144750874D01*
X175926569Y-144756910D01*
X176036147Y-144766883D01*
X176084728Y-144811723D01*
X176099751Y-144883910D01*
X176124418Y-144974951D01*
X176189543Y-144999737D01*
X176241364Y-144996059D01*
X176340388Y-145002247D01*
X176368364Y-145050674D01*
X176367271Y-145078915D01*
X176356220Y-145102170D01*
X176323552Y-145124101D01*
X176257609Y-145148372D01*
X176146730Y-145178644D01*
X175979258Y-145218580D01*
X175743534Y-145271842D01*
X175471666Y-145332359D01*
X175186035Y-145395854D01*
X174977709Y-145441371D01*
X174833765Y-145470674D01*
X174741278Y-145485524D01*
X174687324Y-145487683D01*
X174658980Y-145478913D01*
X174643320Y-145460977D01*
X174634600Y-145446488D01*
X174571515Y-145416103D01*
X174539511Y-145421948D01*
X174447784Y-145437062D01*
X174389266Y-145390852D01*
X174357859Y-145273046D01*
X174347756Y-145098951D01*
X174348171Y-144935032D01*
X174360652Y-144839379D01*
X174392683Y-144788011D01*
X174451747Y-144756944D01*
X174454833Y-144755763D01*
X174566554Y-144732785D01*
X174636145Y-144740055D01*
X174676415Y-144739522D01*
X174697785Y-144686949D01*
X174705427Y-144565097D01*
X174705818Y-144507850D01*
X174711416Y-144366982D01*
X174725878Y-144272516D01*
X174740455Y-144247897D01*
X174796725Y-144258382D01*
G36*
X179092731Y-145191344D02*
X179093091Y-145213073D01*
X179070048Y-145294334D01*
X179018551Y-145307186D01*
X178980870Y-145270142D01*
X178990068Y-145211353D01*
X179024327Y-145172124D01*
X179077027Y-145142911D01*
X179092731Y-145191344D01*
X179092731Y-145191344D01*
G37*
X179092731Y-145191344D02*
X179093091Y-145213073D01*
X179070048Y-145294334D01*
X179018551Y-145307186D01*
X178980870Y-145270142D01*
X178990068Y-145211353D01*
X179024327Y-145172124D01*
X179077027Y-145142911D01*
X179092731Y-145191344D01*
G36*
X176974819Y-144817558D02*
X177130364Y-144857160D01*
X177315091Y-144910714D01*
X176968727Y-144993555D01*
X176749335Y-145043861D01*
X176611135Y-145068300D01*
X176546280Y-145065572D01*
X176546928Y-145034380D01*
X176605233Y-144973424D01*
X176643710Y-144939760D01*
X176759377Y-144850695D01*
X176857971Y-144811960D01*
X176974819Y-144817558D01*
X176974819Y-144817558D01*
G37*
X176974819Y-144817558D02*
X177130364Y-144857160D01*
X177315091Y-144910714D01*
X176968727Y-144993555D01*
X176749335Y-145043861D01*
X176611135Y-145068300D01*
X176546280Y-145065572D01*
X176546928Y-145034380D01*
X176605233Y-144973424D01*
X176643710Y-144939760D01*
X176759377Y-144850695D01*
X176857971Y-144811960D01*
X176974819Y-144817558D01*
G36*
X177862942Y-144670149D02*
X178007695Y-144701933D01*
X178076899Y-144724127D01*
X178086343Y-144742039D01*
X178025965Y-144762467D01*
X177885700Y-144792206D01*
X177869150Y-144795505D01*
X177704500Y-144828571D01*
X177565682Y-144856981D01*
X177499818Y-144870899D01*
X177403823Y-144868887D01*
X177261669Y-144841221D01*
X177176546Y-144816907D01*
X176945637Y-144742628D01*
X177148398Y-144681549D01*
X177354180Y-144646604D01*
X177605882Y-144643125D01*
X177862942Y-144670149D01*
X177862942Y-144670149D01*
G37*
X177862942Y-144670149D02*
X178007695Y-144701933D01*
X178076899Y-144724127D01*
X178086343Y-144742039D01*
X178025965Y-144762467D01*
X177885700Y-144792206D01*
X177869150Y-144795505D01*
X177704500Y-144828571D01*
X177565682Y-144856981D01*
X177499818Y-144870899D01*
X177403823Y-144868887D01*
X177261669Y-144841221D01*
X177176546Y-144816907D01*
X176945637Y-144742628D01*
X177148398Y-144681549D01*
X177354180Y-144646604D01*
X177605882Y-144643125D01*
X177862942Y-144670149D01*
G36*
X175516051Y-143368081D02*
X175593197Y-143447135D01*
X175665043Y-143558349D01*
X175712697Y-143674572D01*
X175721818Y-143735434D01*
X175741466Y-143813551D01*
X175816634Y-143826130D01*
X175825727Y-143824940D01*
X175941348Y-143848994D01*
X176008918Y-143902546D01*
X176066993Y-143965234D01*
X176086829Y-143954534D01*
X176089736Y-143891000D01*
X176108768Y-143803925D01*
X176163219Y-143800826D01*
X176254210Y-143880892D01*
X176310138Y-143955078D01*
X176301337Y-144008292D01*
X176265874Y-144047919D01*
X176174505Y-144096803D01*
X176038425Y-144127308D01*
X175999754Y-144130499D01*
X175838779Y-144158910D01*
X175758420Y-144227141D01*
X175754157Y-144339195D01*
X175755956Y-144346385D01*
X175763482Y-144392394D01*
X175748200Y-144418441D01*
X175696957Y-144423447D01*
X175596604Y-144406331D01*
X175433989Y-144366015D01*
X175195962Y-144301418D01*
X175190727Y-144299977D01*
X174990602Y-144244369D01*
X174819554Y-144195892D01*
X174700005Y-144160952D01*
X174659637Y-144148220D01*
X174648812Y-144114480D01*
X174719268Y-144047995D01*
X174832818Y-143971533D01*
X174982162Y-143870869D01*
X175056032Y-143797469D01*
X175061737Y-143737630D01*
X175006587Y-143677648D01*
X174994455Y-143668481D01*
X174947266Y-143632267D01*
X174941776Y-143608109D01*
X174992452Y-143583059D01*
X175113759Y-143544170D01*
X175143767Y-143534839D01*
X175190111Y-143481961D01*
X175185008Y-143442476D01*
X175188759Y-143388298D01*
X175267248Y-143371500D01*
X175274373Y-143371455D01*
X175389249Y-143362646D01*
X175452496Y-143348340D01*
X175516051Y-143368081D01*
X175516051Y-143368081D01*
G37*
X175516051Y-143368081D02*
X175593197Y-143447135D01*
X175665043Y-143558349D01*
X175712697Y-143674572D01*
X175721818Y-143735434D01*
X175741466Y-143813551D01*
X175816634Y-143826130D01*
X175825727Y-143824940D01*
X175941348Y-143848994D01*
X176008918Y-143902546D01*
X176066993Y-143965234D01*
X176086829Y-143954534D01*
X176089736Y-143891000D01*
X176108768Y-143803925D01*
X176163219Y-143800826D01*
X176254210Y-143880892D01*
X176310138Y-143955078D01*
X176301337Y-144008292D01*
X176265874Y-144047919D01*
X176174505Y-144096803D01*
X176038425Y-144127308D01*
X175999754Y-144130499D01*
X175838779Y-144158910D01*
X175758420Y-144227141D01*
X175754157Y-144339195D01*
X175755956Y-144346385D01*
X175763482Y-144392394D01*
X175748200Y-144418441D01*
X175696957Y-144423447D01*
X175596604Y-144406331D01*
X175433989Y-144366015D01*
X175195962Y-144301418D01*
X175190727Y-144299977D01*
X174990602Y-144244369D01*
X174819554Y-144195892D01*
X174700005Y-144160952D01*
X174659637Y-144148220D01*
X174648812Y-144114480D01*
X174719268Y-144047995D01*
X174832818Y-143971533D01*
X174982162Y-143870869D01*
X175056032Y-143797469D01*
X175061737Y-143737630D01*
X175006587Y-143677648D01*
X174994455Y-143668481D01*
X174947266Y-143632267D01*
X174941776Y-143608109D01*
X174992452Y-143583059D01*
X175113759Y-143544170D01*
X175143767Y-143534839D01*
X175190111Y-143481961D01*
X175185008Y-143442476D01*
X175188759Y-143388298D01*
X175267248Y-143371500D01*
X175274373Y-143371455D01*
X175389249Y-143362646D01*
X175452496Y-143348340D01*
X175516051Y-143368081D01*
G36*
X174612113Y-144237871D02*
X174613455Y-144248910D01*
X174578311Y-144293749D01*
X174567273Y-144295091D01*
X174522433Y-144259948D01*
X174521091Y-144248910D01*
X174556234Y-144204070D01*
X174567273Y-144202728D01*
X174612113Y-144237871D01*
X174612113Y-144237871D01*
G37*
X174612113Y-144237871D02*
X174613455Y-144248910D01*
X174578311Y-144293749D01*
X174567273Y-144295091D01*
X174522433Y-144259948D01*
X174521091Y-144248910D01*
X174556234Y-144204070D01*
X174567273Y-144202728D01*
X174612113Y-144237871D01*
G36*
X180547881Y-143302773D02*
X180590868Y-143434485D01*
X180594233Y-143445112D01*
X180654541Y-143517374D01*
X180707584Y-143542312D01*
X180767481Y-143567415D01*
X180763000Y-143614612D01*
X180728920Y-143670689D01*
X180686624Y-143748481D01*
X180708917Y-143785321D01*
X180765660Y-143803768D01*
X180863880Y-143818008D01*
X181020791Y-143828366D01*
X181202740Y-143832635D01*
X181205909Y-143832643D01*
X181387719Y-143837312D01*
X181492884Y-143852501D01*
X181536820Y-143881254D01*
X181540727Y-143898755D01*
X181502733Y-143941073D01*
X181385240Y-143988321D01*
X181182987Y-144042422D01*
X181090455Y-144063497D01*
X180893202Y-144107537D01*
X180727218Y-144145624D01*
X180615038Y-144172535D01*
X180582455Y-144181293D01*
X180537217Y-144158204D01*
X180524727Y-144083530D01*
X180503033Y-143953749D01*
X180448994Y-143825203D01*
X180379175Y-143728709D01*
X180315723Y-143694728D01*
X180254254Y-143726326D01*
X180246168Y-143752455D01*
X180229583Y-143778635D01*
X180192951Y-143743475D01*
X180151002Y-143671202D01*
X180118464Y-143586041D01*
X180109091Y-143526990D01*
X180133382Y-143425241D01*
X180191622Y-143381613D01*
X180257288Y-143408815D01*
X180338399Y-143437367D01*
X180423642Y-143392351D01*
X180477785Y-143307304D01*
X180501825Y-143251591D01*
X180521695Y-143245944D01*
X180547881Y-143302773D01*
X180547881Y-143302773D01*
G37*
X180547881Y-143302773D02*
X180590868Y-143434485D01*
X180594233Y-143445112D01*
X180654541Y-143517374D01*
X180707584Y-143542312D01*
X180767481Y-143567415D01*
X180763000Y-143614612D01*
X180728920Y-143670689D01*
X180686624Y-143748481D01*
X180708917Y-143785321D01*
X180765660Y-143803768D01*
X180863880Y-143818008D01*
X181020791Y-143828366D01*
X181202740Y-143832635D01*
X181205909Y-143832643D01*
X181387719Y-143837312D01*
X181492884Y-143852501D01*
X181536820Y-143881254D01*
X181540727Y-143898755D01*
X181502733Y-143941073D01*
X181385240Y-143988321D01*
X181182987Y-144042422D01*
X181090455Y-144063497D01*
X180893202Y-144107537D01*
X180727218Y-144145624D01*
X180615038Y-144172535D01*
X180582455Y-144181293D01*
X180537217Y-144158204D01*
X180524727Y-144083530D01*
X180503033Y-143953749D01*
X180448994Y-143825203D01*
X180379175Y-143728709D01*
X180315723Y-143694728D01*
X180254254Y-143726326D01*
X180246168Y-143752455D01*
X180229583Y-143778635D01*
X180192951Y-143743475D01*
X180151002Y-143671202D01*
X180118464Y-143586041D01*
X180109091Y-143526990D01*
X180133382Y-143425241D01*
X180191622Y-143381613D01*
X180257288Y-143408815D01*
X180338399Y-143437367D01*
X180423642Y-143392351D01*
X180477785Y-143307304D01*
X180501825Y-143251591D01*
X180521695Y-143245944D01*
X180547881Y-143302773D01*
D14*
X148256667Y-152912381D02*
X148256667Y-153626667D01*
X148209047Y-153769524D01*
X148113809Y-153864762D01*
X147970952Y-153912381D01*
X147875714Y-153912381D01*
X149256667Y-153912381D02*
X148685238Y-153912381D01*
X148970952Y-153912381D02*
X148970952Y-152912381D01*
X148875714Y-153055238D01*
X148780476Y-153150476D01*
X148685238Y-153198095D01*
X181276667Y-88562381D02*
X181276667Y-89276667D01*
X181229047Y-89419524D01*
X181133809Y-89514762D01*
X180990952Y-89562381D01*
X180895714Y-89562381D01*
X181705238Y-88657619D02*
X181752857Y-88610000D01*
X181848095Y-88562381D01*
X182086191Y-88562381D01*
X182181429Y-88610000D01*
X182229048Y-88657619D01*
X182276667Y-88752857D01*
X182276667Y-88848095D01*
X182229048Y-88990952D01*
X181657619Y-89562381D01*
X182276667Y-89562381D01*
X153971667Y-143807381D02*
X153971667Y-144521667D01*
X153924047Y-144664524D01*
X153828809Y-144759762D01*
X153685952Y-144807381D01*
X153590714Y-144807381D01*
X154352619Y-143807381D02*
X154971667Y-143807381D01*
X154638333Y-144188333D01*
X154781191Y-144188333D01*
X154876429Y-144235952D01*
X154924048Y-144283571D01*
X154971667Y-144378810D01*
X154971667Y-144616905D01*
X154924048Y-144712143D01*
X154876429Y-144759762D01*
X154781191Y-144807381D01*
X154495476Y-144807381D01*
X154400238Y-144759762D01*
X154352619Y-144712143D01*
X173656667Y-91102381D02*
X173656667Y-91816667D01*
X173609047Y-91959524D01*
X173513809Y-92054762D01*
X173370952Y-92102381D01*
X173275714Y-92102381D01*
X174561429Y-91435714D02*
X174561429Y-92102381D01*
X174323333Y-91054762D02*
X174085238Y-91769048D01*
X174704286Y-91769048D01*
X158416667Y-91102381D02*
X158416667Y-91816667D01*
X158369047Y-91959524D01*
X158273809Y-92054762D01*
X158130952Y-92102381D01*
X158035714Y-92102381D01*
X159369048Y-91102381D02*
X158892857Y-91102381D01*
X158845238Y-91578571D01*
X158892857Y-91530952D01*
X158988095Y-91483333D01*
X159226191Y-91483333D01*
X159321429Y-91530952D01*
X159369048Y-91578571D01*
X159416667Y-91673810D01*
X159416667Y-91911905D01*
X159369048Y-92007143D01*
X159321429Y-92054762D01*
X159226191Y-92102381D01*
X158988095Y-92102381D01*
X158892857Y-92054762D01*
X158845238Y-92007143D01*
X169846667Y-91102381D02*
X169846667Y-91816667D01*
X169799047Y-91959524D01*
X169703809Y-92054762D01*
X169560952Y-92102381D01*
X169465714Y-92102381D01*
X170751429Y-91102381D02*
X170560952Y-91102381D01*
X170465714Y-91150000D01*
X170418095Y-91197619D01*
X170322857Y-91340476D01*
X170275238Y-91530952D01*
X170275238Y-91911905D01*
X170322857Y-92007143D01*
X170370476Y-92054762D01*
X170465714Y-92102381D01*
X170656191Y-92102381D01*
X170751429Y-92054762D01*
X170799048Y-92007143D01*
X170846667Y-91911905D01*
X170846667Y-91673810D01*
X170799048Y-91578571D01*
X170751429Y-91530952D01*
X170656191Y-91483333D01*
X170465714Y-91483333D01*
X170370476Y-91530952D01*
X170322857Y-91578571D01*
X170275238Y-91673810D01*
X166036667Y-91102381D02*
X166036667Y-91816667D01*
X165989047Y-91959524D01*
X165893809Y-92054762D01*
X165750952Y-92102381D01*
X165655714Y-92102381D01*
X166417619Y-91102381D02*
X167084286Y-91102381D01*
X166655714Y-92102381D01*
X145712381Y-138763333D02*
X146426667Y-138763333D01*
X146569524Y-138810953D01*
X146664762Y-138906191D01*
X146712381Y-139049048D01*
X146712381Y-139144286D01*
X146140952Y-138144286D02*
X146093333Y-138239524D01*
X146045714Y-138287143D01*
X145950476Y-138334762D01*
X145902857Y-138334762D01*
X145807619Y-138287143D01*
X145760000Y-138239524D01*
X145712381Y-138144286D01*
X145712381Y-137953809D01*
X145760000Y-137858571D01*
X145807619Y-137810952D01*
X145902857Y-137763333D01*
X145950476Y-137763333D01*
X146045714Y-137810952D01*
X146093333Y-137858571D01*
X146140952Y-137953809D01*
X146140952Y-138144286D01*
X146188571Y-138239524D01*
X146236190Y-138287143D01*
X146331429Y-138334762D01*
X146521905Y-138334762D01*
X146617143Y-138287143D01*
X146664762Y-138239524D01*
X146712381Y-138144286D01*
X146712381Y-137953809D01*
X146664762Y-137858571D01*
X146617143Y-137810952D01*
X146521905Y-137763333D01*
X146331429Y-137763333D01*
X146236190Y-137810952D01*
X146188571Y-137858571D01*
X146140952Y-137953809D01*
X145712381Y-133683333D02*
X146426667Y-133683333D01*
X146569524Y-133730953D01*
X146664762Y-133826191D01*
X146712381Y-133969048D01*
X146712381Y-134064286D01*
X146712381Y-133159524D02*
X146712381Y-132969048D01*
X146664762Y-132873809D01*
X146617143Y-132826190D01*
X146474286Y-132730952D01*
X146283810Y-132683333D01*
X145902857Y-132683333D01*
X145807619Y-132730952D01*
X145760000Y-132778571D01*
X145712381Y-132873809D01*
X145712381Y-133064286D01*
X145760000Y-133159524D01*
X145807619Y-133207143D01*
X145902857Y-133254762D01*
X146140952Y-133254762D01*
X146236190Y-133207143D01*
X146283810Y-133159524D01*
X146331429Y-133064286D01*
X146331429Y-132873809D01*
X146283810Y-132778571D01*
X146236190Y-132730952D01*
X146140952Y-132683333D01*
X145712381Y-129079523D02*
X146426667Y-129079523D01*
X146569524Y-129127143D01*
X146664762Y-129222381D01*
X146712381Y-129365238D01*
X146712381Y-129460476D01*
X146712381Y-128079523D02*
X146712381Y-128650952D01*
X146712381Y-128365238D02*
X145712381Y-128365238D01*
X145855238Y-128460476D01*
X145950476Y-128555714D01*
X145998095Y-128650952D01*
X145712381Y-127460476D02*
X145712381Y-127365237D01*
X145760000Y-127269999D01*
X145807619Y-127222380D01*
X145902857Y-127174761D01*
X146093333Y-127127142D01*
X146331429Y-127127142D01*
X146521905Y-127174761D01*
X146617143Y-127222380D01*
X146664762Y-127269999D01*
X146712381Y-127365237D01*
X146712381Y-127460476D01*
X146664762Y-127555714D01*
X146617143Y-127603333D01*
X146521905Y-127650952D01*
X146331429Y-127698571D01*
X146093333Y-127698571D01*
X145902857Y-127650952D01*
X145807619Y-127603333D01*
X145760000Y-127555714D01*
X145712381Y-127460476D01*
X145712381Y-123999523D02*
X146426667Y-123999523D01*
X146569524Y-124047143D01*
X146664762Y-124142381D01*
X146712381Y-124285238D01*
X146712381Y-124380476D01*
X146712381Y-122999523D02*
X146712381Y-123570952D01*
X146712381Y-123285238D02*
X145712381Y-123285238D01*
X145855238Y-123380476D01*
X145950476Y-123475714D01*
X145998095Y-123570952D01*
X146712381Y-122047142D02*
X146712381Y-122618571D01*
X146712381Y-122332857D02*
X145712381Y-122332857D01*
X145855238Y-122428095D01*
X145950476Y-122523333D01*
X145998095Y-122618571D01*
X145712381Y-118919523D02*
X146426667Y-118919523D01*
X146569524Y-118967143D01*
X146664762Y-119062381D01*
X146712381Y-119205238D01*
X146712381Y-119300476D01*
X146712381Y-117919523D02*
X146712381Y-118490952D01*
X146712381Y-118205238D02*
X145712381Y-118205238D01*
X145855238Y-118300476D01*
X145950476Y-118395714D01*
X145998095Y-118490952D01*
X145807619Y-117538571D02*
X145760000Y-117490952D01*
X145712381Y-117395714D01*
X145712381Y-117157618D01*
X145760000Y-117062380D01*
X145807619Y-117014761D01*
X145902857Y-116967142D01*
X145998095Y-116967142D01*
X146140952Y-117014761D01*
X146712381Y-117586190D01*
X146712381Y-116967142D01*
X145712381Y-113839523D02*
X146426667Y-113839523D01*
X146569524Y-113887143D01*
X146664762Y-113982381D01*
X146712381Y-114125238D01*
X146712381Y-114220476D01*
X146712381Y-112839523D02*
X146712381Y-113410952D01*
X146712381Y-113125238D02*
X145712381Y-113125238D01*
X145855238Y-113220476D01*
X145950476Y-113315714D01*
X145998095Y-113410952D01*
X145712381Y-112506190D02*
X145712381Y-111887142D01*
X146093333Y-112220476D01*
X146093333Y-112077618D01*
X146140952Y-111982380D01*
X146188571Y-111934761D01*
X146283810Y-111887142D01*
X146521905Y-111887142D01*
X146617143Y-111934761D01*
X146664762Y-111982380D01*
X146712381Y-112077618D01*
X146712381Y-112363333D01*
X146664762Y-112458571D01*
X146617143Y-112506190D01*
X145712381Y-108759523D02*
X146426667Y-108759523D01*
X146569524Y-108807143D01*
X146664762Y-108902381D01*
X146712381Y-109045238D01*
X146712381Y-109140476D01*
X146712381Y-107759523D02*
X146712381Y-108330952D01*
X146712381Y-108045238D02*
X145712381Y-108045238D01*
X145855238Y-108140476D01*
X145950476Y-108235714D01*
X145998095Y-108330952D01*
X146045714Y-106902380D02*
X146712381Y-106902380D01*
X145664762Y-107140476D02*
X146379048Y-107378571D01*
X146379048Y-106759523D01*
X145712381Y-103679523D02*
X146426667Y-103679523D01*
X146569524Y-103727143D01*
X146664762Y-103822381D01*
X146712381Y-103965238D01*
X146712381Y-104060476D01*
X146712381Y-102679523D02*
X146712381Y-103250952D01*
X146712381Y-102965238D02*
X145712381Y-102965238D01*
X145855238Y-103060476D01*
X145950476Y-103155714D01*
X145998095Y-103250952D01*
X145712381Y-101774761D02*
X145712381Y-102250952D01*
X146188571Y-102298571D01*
X146140952Y-102250952D01*
X146093333Y-102155714D01*
X146093333Y-101917618D01*
X146140952Y-101822380D01*
X146188571Y-101774761D01*
X146283810Y-101727142D01*
X146521905Y-101727142D01*
X146617143Y-101774761D01*
X146664762Y-101822380D01*
X146712381Y-101917618D01*
X146712381Y-102155714D01*
X146664762Y-102250952D01*
X146617143Y-102298571D01*
X131937619Y-128365238D02*
X131890000Y-128460476D01*
X131794762Y-128555714D01*
X131651905Y-128698571D01*
X131604286Y-128793810D01*
X131604286Y-128889048D01*
X131842381Y-128841429D02*
X131794762Y-128936667D01*
X131699524Y-129031905D01*
X131509048Y-129079524D01*
X131175714Y-129079524D01*
X130985238Y-129031905D01*
X130890000Y-128936667D01*
X130842381Y-128841429D01*
X130842381Y-128650952D01*
X130890000Y-128555714D01*
X130985238Y-128460476D01*
X131175714Y-128412857D01*
X131509048Y-128412857D01*
X131699524Y-128460476D01*
X131794762Y-128555714D01*
X131842381Y-128650952D01*
X131842381Y-128841429D01*
X131842381Y-127460476D02*
X131842381Y-128031905D01*
X131842381Y-127746191D02*
X130842381Y-127746191D01*
X130985238Y-127841429D01*
X131080476Y-127936667D01*
X131128095Y-128031905D01*
X131937619Y-138525238D02*
X131890000Y-138620476D01*
X131794762Y-138715714D01*
X131651905Y-138858571D01*
X131604286Y-138953810D01*
X131604286Y-139049048D01*
X131842381Y-139001429D02*
X131794762Y-139096667D01*
X131699524Y-139191905D01*
X131509048Y-139239524D01*
X131175714Y-139239524D01*
X130985238Y-139191905D01*
X130890000Y-139096667D01*
X130842381Y-139001429D01*
X130842381Y-138810952D01*
X130890000Y-138715714D01*
X130985238Y-138620476D01*
X131175714Y-138572857D01*
X131509048Y-138572857D01*
X131699524Y-138620476D01*
X131794762Y-138715714D01*
X131842381Y-138810952D01*
X131842381Y-139001429D01*
X130937619Y-138191905D02*
X130890000Y-138144286D01*
X130842381Y-138049048D01*
X130842381Y-137810952D01*
X130890000Y-137715714D01*
X130937619Y-137668095D01*
X131032857Y-137620476D01*
X131128095Y-137620476D01*
X131270952Y-137668095D01*
X131842381Y-138239524D01*
X131842381Y-137620476D01*
X131937619Y-148685238D02*
X131890000Y-148780476D01*
X131794762Y-148875714D01*
X131651905Y-149018571D01*
X131604286Y-149113810D01*
X131604286Y-149209048D01*
X131842381Y-149161429D02*
X131794762Y-149256667D01*
X131699524Y-149351905D01*
X131509048Y-149399524D01*
X131175714Y-149399524D01*
X130985238Y-149351905D01*
X130890000Y-149256667D01*
X130842381Y-149161429D01*
X130842381Y-148970952D01*
X130890000Y-148875714D01*
X130985238Y-148780476D01*
X131175714Y-148732857D01*
X131509048Y-148732857D01*
X131699524Y-148780476D01*
X131794762Y-148875714D01*
X131842381Y-148970952D01*
X131842381Y-149161429D01*
X130842381Y-148399524D02*
X130842381Y-147780476D01*
X131223333Y-148113810D01*
X131223333Y-147970952D01*
X131270952Y-147875714D01*
X131318571Y-147828095D01*
X131413810Y-147780476D01*
X131651905Y-147780476D01*
X131747143Y-147828095D01*
X131794762Y-147875714D01*
X131842381Y-147970952D01*
X131842381Y-148256667D01*
X131794762Y-148351905D01*
X131747143Y-148399524D01*
X135723334Y-94202381D02*
X135390000Y-93726190D01*
X135151905Y-94202381D02*
X135151905Y-93202381D01*
X135532858Y-93202381D01*
X135628096Y-93250000D01*
X135675715Y-93297619D01*
X135723334Y-93392857D01*
X135723334Y-93535714D01*
X135675715Y-93630952D01*
X135628096Y-93678571D01*
X135532858Y-93726190D01*
X135151905Y-93726190D01*
X136675715Y-94202381D02*
X136104286Y-94202381D01*
X136390000Y-94202381D02*
X136390000Y-93202381D01*
X136294762Y-93345238D01*
X136199524Y-93440476D01*
X136104286Y-93488095D01*
X161123334Y-141192381D02*
X160790000Y-140716190D01*
X160551905Y-141192381D02*
X160551905Y-140192381D01*
X160932858Y-140192381D01*
X161028096Y-140240000D01*
X161075715Y-140287619D01*
X161123334Y-140382857D01*
X161123334Y-140525714D01*
X161075715Y-140620952D01*
X161028096Y-140668571D01*
X160932858Y-140716190D01*
X160551905Y-140716190D01*
X161504286Y-140287619D02*
X161551905Y-140240000D01*
X161647143Y-140192381D01*
X161885239Y-140192381D01*
X161980477Y-140240000D01*
X162028096Y-140287619D01*
X162075715Y-140382857D01*
X162075715Y-140478095D01*
X162028096Y-140620952D01*
X161456667Y-141192381D01*
X162075715Y-141192381D01*
X161123334Y-136112381D02*
X160790000Y-135636190D01*
X160551905Y-136112381D02*
X160551905Y-135112381D01*
X160932858Y-135112381D01*
X161028096Y-135160000D01*
X161075715Y-135207619D01*
X161123334Y-135302857D01*
X161123334Y-135445714D01*
X161075715Y-135540952D01*
X161028096Y-135588571D01*
X160932858Y-135636190D01*
X160551905Y-135636190D01*
X161456667Y-135112381D02*
X162075715Y-135112381D01*
X161742381Y-135493333D01*
X161885239Y-135493333D01*
X161980477Y-135540952D01*
X162028096Y-135588571D01*
X162075715Y-135683810D01*
X162075715Y-135921905D01*
X162028096Y-136017143D01*
X161980477Y-136064762D01*
X161885239Y-136112381D01*
X161599524Y-136112381D01*
X161504286Y-136064762D01*
X161456667Y-136017143D01*
X161123334Y-131032381D02*
X160790000Y-130556190D01*
X160551905Y-131032381D02*
X160551905Y-130032381D01*
X160932858Y-130032381D01*
X161028096Y-130080000D01*
X161075715Y-130127619D01*
X161123334Y-130222857D01*
X161123334Y-130365714D01*
X161075715Y-130460952D01*
X161028096Y-130508571D01*
X160932858Y-130556190D01*
X160551905Y-130556190D01*
X161980477Y-130365714D02*
X161980477Y-131032381D01*
X161742381Y-129984762D02*
X161504286Y-130699048D01*
X162123334Y-130699048D01*
X161123334Y-125952381D02*
X160790000Y-125476190D01*
X160551905Y-125952381D02*
X160551905Y-124952381D01*
X160932858Y-124952381D01*
X161028096Y-125000000D01*
X161075715Y-125047619D01*
X161123334Y-125142857D01*
X161123334Y-125285714D01*
X161075715Y-125380952D01*
X161028096Y-125428571D01*
X160932858Y-125476190D01*
X160551905Y-125476190D01*
X162028096Y-124952381D02*
X161551905Y-124952381D01*
X161504286Y-125428571D01*
X161551905Y-125380952D01*
X161647143Y-125333333D01*
X161885239Y-125333333D01*
X161980477Y-125380952D01*
X162028096Y-125428571D01*
X162075715Y-125523810D01*
X162075715Y-125761905D01*
X162028096Y-125857143D01*
X161980477Y-125904762D01*
X161885239Y-125952381D01*
X161647143Y-125952381D01*
X161551905Y-125904762D01*
X161504286Y-125857143D01*
X161123334Y-120872381D02*
X160790000Y-120396190D01*
X160551905Y-120872381D02*
X160551905Y-119872381D01*
X160932858Y-119872381D01*
X161028096Y-119920000D01*
X161075715Y-119967619D01*
X161123334Y-120062857D01*
X161123334Y-120205714D01*
X161075715Y-120300952D01*
X161028096Y-120348571D01*
X160932858Y-120396190D01*
X160551905Y-120396190D01*
X161980477Y-119872381D02*
X161790000Y-119872381D01*
X161694762Y-119920000D01*
X161647143Y-119967619D01*
X161551905Y-120110476D01*
X161504286Y-120300952D01*
X161504286Y-120681905D01*
X161551905Y-120777143D01*
X161599524Y-120824762D01*
X161694762Y-120872381D01*
X161885239Y-120872381D01*
X161980477Y-120824762D01*
X162028096Y-120777143D01*
X162075715Y-120681905D01*
X162075715Y-120443810D01*
X162028096Y-120348571D01*
X161980477Y-120300952D01*
X161885239Y-120253333D01*
X161694762Y-120253333D01*
X161599524Y-120300952D01*
X161551905Y-120348571D01*
X161504286Y-120443810D01*
X161123334Y-115792381D02*
X160790000Y-115316190D01*
X160551905Y-115792381D02*
X160551905Y-114792381D01*
X160932858Y-114792381D01*
X161028096Y-114840000D01*
X161075715Y-114887619D01*
X161123334Y-114982857D01*
X161123334Y-115125714D01*
X161075715Y-115220952D01*
X161028096Y-115268571D01*
X160932858Y-115316190D01*
X160551905Y-115316190D01*
X161456667Y-114792381D02*
X162123334Y-114792381D01*
X161694762Y-115792381D01*
X161123334Y-110712381D02*
X160790000Y-110236190D01*
X160551905Y-110712381D02*
X160551905Y-109712381D01*
X160932858Y-109712381D01*
X161028096Y-109760000D01*
X161075715Y-109807619D01*
X161123334Y-109902857D01*
X161123334Y-110045714D01*
X161075715Y-110140952D01*
X161028096Y-110188571D01*
X160932858Y-110236190D01*
X160551905Y-110236190D01*
X161694762Y-110140952D02*
X161599524Y-110093333D01*
X161551905Y-110045714D01*
X161504286Y-109950476D01*
X161504286Y-109902857D01*
X161551905Y-109807619D01*
X161599524Y-109760000D01*
X161694762Y-109712381D01*
X161885239Y-109712381D01*
X161980477Y-109760000D01*
X162028096Y-109807619D01*
X162075715Y-109902857D01*
X162075715Y-109950476D01*
X162028096Y-110045714D01*
X161980477Y-110093333D01*
X161885239Y-110140952D01*
X161694762Y-110140952D01*
X161599524Y-110188571D01*
X161551905Y-110236190D01*
X161504286Y-110331429D01*
X161504286Y-110521905D01*
X161551905Y-110617143D01*
X161599524Y-110664762D01*
X161694762Y-110712381D01*
X161885239Y-110712381D01*
X161980477Y-110664762D01*
X162028096Y-110617143D01*
X162075715Y-110521905D01*
X162075715Y-110331429D01*
X162028096Y-110236190D01*
X161980477Y-110188571D01*
X161885239Y-110140952D01*
X161123334Y-105632381D02*
X160790000Y-105156190D01*
X160551905Y-105632381D02*
X160551905Y-104632381D01*
X160932858Y-104632381D01*
X161028096Y-104680000D01*
X161075715Y-104727619D01*
X161123334Y-104822857D01*
X161123334Y-104965714D01*
X161075715Y-105060952D01*
X161028096Y-105108571D01*
X160932858Y-105156190D01*
X160551905Y-105156190D01*
X161599524Y-105632381D02*
X161790000Y-105632381D01*
X161885239Y-105584762D01*
X161932858Y-105537143D01*
X162028096Y-105394286D01*
X162075715Y-105203810D01*
X162075715Y-104822857D01*
X162028096Y-104727619D01*
X161980477Y-104680000D01*
X161885239Y-104632381D01*
X161694762Y-104632381D01*
X161599524Y-104680000D01*
X161551905Y-104727619D01*
X161504286Y-104822857D01*
X161504286Y-105060952D01*
X161551905Y-105156190D01*
X161599524Y-105203810D01*
X161694762Y-105251429D01*
X161885239Y-105251429D01*
X161980477Y-105203810D01*
X162028096Y-105156190D01*
X162075715Y-105060952D01*
X173228095Y-108882381D02*
X173228095Y-109691905D01*
X173275714Y-109787143D01*
X173323333Y-109834762D01*
X173418571Y-109882381D01*
X173609048Y-109882381D01*
X173704286Y-109834762D01*
X173751905Y-109787143D01*
X173799524Y-109691905D01*
X173799524Y-108882381D01*
X174799524Y-109882381D02*
X174228095Y-109882381D01*
X174513809Y-109882381D02*
X174513809Y-108882381D01*
X174418571Y-109025238D01*
X174323333Y-109120476D01*
X174228095Y-109168095D01*
X135128095Y-94912381D02*
X135128095Y-95721905D01*
X135175714Y-95817143D01*
X135223333Y-95864762D01*
X135318571Y-95912381D01*
X135509048Y-95912381D01*
X135604286Y-95864762D01*
X135651905Y-95817143D01*
X135699524Y-95721905D01*
X135699524Y-94912381D01*
X136128095Y-95007619D02*
X136175714Y-94960000D01*
X136270952Y-94912381D01*
X136509048Y-94912381D01*
X136604286Y-94960000D01*
X136651905Y-95007619D01*
X136699524Y-95102857D01*
X136699524Y-95198095D01*
X136651905Y-95340952D01*
X136080476Y-95912381D01*
X136699524Y-95912381D01*
M02*
