G04 #@! TF.FileFunction,Copper,L1,Top,Signal*
%FSLAX46Y46*%
G04 Gerber Fmt 4.6, Leading zero omitted, Abs format (unit mm)*
G04 Created by KiCad (PCBNEW 4.0.6) date Tue Nov 21 21:51:27 2017*
%MOMM*%
%LPD*%
G01*
G04 APERTURE LIST*
%ADD10C,0.100000*%
%ADD11R,1.700000X1.700000*%
%ADD12O,1.700000X1.700000*%
%ADD13R,3.800000X2.000000*%
%ADD14R,1.500000X2.000000*%
%ADD15C,1.600000*%
%ADD16O,1.600000X1.600000*%
%ADD17R,1.600000X1.600000*%
%ADD18C,0.600000*%
%ADD19C,0.250000*%
G04 APERTURE END LIST*
D10*
D11*
X148590000Y-151130000D03*
D12*
X148590000Y-148590000D03*
X148590000Y-146050000D03*
X148590000Y-143510000D03*
D11*
X180340000Y-91440000D03*
D12*
X182880000Y-91440000D03*
X180340000Y-93980000D03*
X182880000Y-93980000D03*
X180340000Y-96520000D03*
X182880000Y-96520000D03*
X180340000Y-99060000D03*
X182880000Y-99060000D03*
X180340000Y-101600000D03*
X182880000Y-101600000D03*
X180340000Y-104140000D03*
X182880000Y-104140000D03*
X180340000Y-106680000D03*
X182880000Y-106680000D03*
X180340000Y-109220000D03*
X182880000Y-109220000D03*
X180340000Y-111760000D03*
X182880000Y-111760000D03*
X180340000Y-114300000D03*
X182880000Y-114300000D03*
X180340000Y-116840000D03*
X182880000Y-116840000D03*
X180340000Y-119380000D03*
X182880000Y-119380000D03*
X180340000Y-121920000D03*
X182880000Y-121920000D03*
X180340000Y-124460000D03*
X182880000Y-124460000D03*
X180340000Y-127000000D03*
X182880000Y-127000000D03*
X180340000Y-129540000D03*
X182880000Y-129540000D03*
X180340000Y-132080000D03*
X182880000Y-132080000D03*
X180340000Y-134620000D03*
X182880000Y-134620000D03*
X180340000Y-137160000D03*
X182880000Y-137160000D03*
X180340000Y-139700000D03*
X182880000Y-139700000D03*
D11*
X154305000Y-146685000D03*
D12*
X154305000Y-149225000D03*
X154305000Y-151765000D03*
D11*
X173990000Y-93980000D03*
D12*
X173990000Y-96520000D03*
D11*
X158750000Y-93980000D03*
D12*
X158750000Y-96520000D03*
D11*
X170180000Y-93980000D03*
D12*
X170180000Y-96520000D03*
D11*
X166370000Y-93980000D03*
D12*
X166370000Y-96520000D03*
D11*
X148590000Y-138430000D03*
D12*
X151130000Y-138430000D03*
D11*
X148590000Y-133350000D03*
D12*
X151130000Y-133350000D03*
D11*
X148590000Y-128270000D03*
D12*
X151130000Y-128270000D03*
D11*
X148590000Y-123190000D03*
D12*
X151130000Y-123190000D03*
D11*
X148590000Y-118110000D03*
D12*
X151130000Y-118110000D03*
D11*
X148590000Y-113030000D03*
D12*
X151130000Y-113030000D03*
D11*
X148590000Y-107950000D03*
D12*
X151130000Y-107950000D03*
D11*
X148590000Y-102870000D03*
D12*
X151130000Y-102870000D03*
D13*
X135890000Y-125120000D03*
D14*
X135890000Y-131420000D03*
X138190000Y-131420000D03*
X133590000Y-131420000D03*
D13*
X135890000Y-135280000D03*
D14*
X135890000Y-141580000D03*
X138190000Y-141580000D03*
X133590000Y-141580000D03*
D13*
X135890000Y-145440000D03*
D14*
X135890000Y-151740000D03*
X138190000Y-151740000D03*
X133590000Y-151740000D03*
D15*
X140970000Y-91440000D03*
D16*
X130810000Y-91440000D03*
D15*
X166370000Y-138430000D03*
D16*
X156210000Y-138430000D03*
D15*
X166370000Y-133350000D03*
D16*
X156210000Y-133350000D03*
D15*
X166370000Y-128270000D03*
D16*
X156210000Y-128270000D03*
D15*
X166370000Y-123190000D03*
D16*
X156210000Y-123190000D03*
D15*
X166370000Y-118110000D03*
D16*
X156210000Y-118110000D03*
D15*
X166370000Y-113030000D03*
D16*
X156210000Y-113030000D03*
D15*
X166370000Y-107950000D03*
D16*
X156210000Y-107950000D03*
D15*
X166370000Y-102870000D03*
D16*
X156210000Y-102870000D03*
D11*
X173990000Y-111760000D03*
D12*
X173990000Y-114300000D03*
X173990000Y-116840000D03*
X173990000Y-119380000D03*
X173990000Y-121920000D03*
X173990000Y-124460000D03*
X173990000Y-127000000D03*
X173990000Y-129540000D03*
D17*
X130810000Y-97790000D03*
D16*
X140970000Y-115570000D03*
X130810000Y-100330000D03*
X140970000Y-113030000D03*
X130810000Y-102870000D03*
X140970000Y-110490000D03*
X130810000Y-105410000D03*
X140970000Y-107950000D03*
X130810000Y-107950000D03*
X140970000Y-105410000D03*
X130810000Y-110490000D03*
X140970000Y-102870000D03*
X130810000Y-113030000D03*
X140970000Y-100330000D03*
X130810000Y-115570000D03*
X140970000Y-97790000D03*
D18*
X140335000Y-147955000D03*
X135890000Y-123190000D03*
X129540000Y-131445000D03*
X131445000Y-144780000D03*
X140335000Y-153670000D03*
X176530000Y-125730000D03*
X139065000Y-109220000D03*
D19*
X182880000Y-93980000D02*
X184150000Y-93980000D01*
X175260000Y-102870000D02*
X166370000Y-102870000D01*
X176530000Y-101600000D02*
X175260000Y-102870000D01*
X176530000Y-100330000D02*
X176530000Y-101600000D01*
X176530000Y-90170000D02*
X176530000Y-100330000D01*
X177800000Y-88900000D02*
X176530000Y-90170000D01*
X179070000Y-88900000D02*
X177800000Y-88900000D01*
X184150000Y-88900000D02*
X179070000Y-88900000D01*
X185420000Y-90170000D02*
X184150000Y-88900000D01*
X185420000Y-92710000D02*
X185420000Y-90170000D01*
X184150000Y-93980000D02*
X185420000Y-92710000D01*
X166370000Y-102870000D02*
X166370000Y-101600000D01*
X143510000Y-100330000D02*
X140970000Y-97790000D01*
X165100000Y-100330000D02*
X143510000Y-100330000D01*
X166370000Y-101600000D02*
X165100000Y-100330000D01*
X166370000Y-138430000D02*
X166370000Y-133350000D01*
X166370000Y-133350000D02*
X166370000Y-128270000D01*
X166370000Y-128270000D02*
X166370000Y-123190000D01*
X166370000Y-123190000D02*
X166370000Y-118110000D01*
X166370000Y-118110000D02*
X166370000Y-113030000D01*
X166370000Y-113030000D02*
X166370000Y-107950000D01*
X166370000Y-107950000D02*
X166370000Y-102870000D01*
X138190000Y-151740000D02*
X144170000Y-151740000D01*
X147320000Y-148590000D02*
X148590000Y-148590000D01*
X144170000Y-151740000D02*
X147320000Y-148590000D01*
X148590000Y-146050000D02*
X143510000Y-146050000D01*
X139040000Y-141580000D02*
X138190000Y-141580000D01*
X143510000Y-146050000D02*
X139040000Y-141580000D01*
X148590000Y-143510000D02*
X147320000Y-143510000D01*
X140310000Y-131420000D02*
X138190000Y-131420000D01*
X142240000Y-133350000D02*
X140310000Y-131420000D01*
X142240000Y-138430000D02*
X142240000Y-133350000D01*
X147320000Y-143510000D02*
X142240000Y-138430000D01*
X171450000Y-144145000D02*
X170815000Y-144780000D01*
X155575000Y-151765000D02*
X154305000Y-151765000D01*
X156210000Y-151130000D02*
X155575000Y-151765000D01*
X156210000Y-145415000D02*
X156210000Y-151130000D01*
X156845000Y-144780000D02*
X156210000Y-145415000D01*
X157480000Y-144780000D02*
X156845000Y-144780000D01*
X170815000Y-144780000D02*
X157480000Y-144780000D01*
X172720000Y-111760000D02*
X173990000Y-111760000D01*
X171450000Y-113030000D02*
X172720000Y-111760000D01*
X171450000Y-144145000D02*
X171450000Y-113030000D01*
X180340000Y-111760000D02*
X173990000Y-111760000D01*
X137820000Y-145440000D02*
X135890000Y-145440000D01*
X140335000Y-147955000D02*
X137820000Y-145440000D01*
X135890000Y-125120000D02*
X135890000Y-123190000D01*
X173990000Y-116840000D02*
X175260000Y-116840000D01*
X175260000Y-116840000D02*
X180340000Y-121920000D01*
X130810000Y-97790000D02*
X130810000Y-91440000D01*
X135890000Y-151740000D02*
X135890000Y-145440000D01*
X135890000Y-145440000D02*
X135890000Y-141580000D01*
X135890000Y-141580000D02*
X135890000Y-135280000D01*
X135890000Y-135280000D02*
X135890000Y-131420000D01*
X135890000Y-131420000D02*
X135890000Y-125120000D01*
X129565000Y-131420000D02*
X133590000Y-131420000D01*
X129540000Y-131445000D02*
X129565000Y-131420000D01*
X163830000Y-143510000D02*
X151765000Y-143510000D01*
X151130000Y-152400000D02*
X149860000Y-153670000D01*
X151130000Y-144145000D02*
X151130000Y-152400000D01*
X151765000Y-143510000D02*
X151130000Y-144145000D01*
X180340000Y-106680000D02*
X179070000Y-106680000D01*
X133590000Y-142635000D02*
X133590000Y-141580000D01*
X131445000Y-144780000D02*
X133590000Y-142635000D01*
X149860000Y-153670000D02*
X140335000Y-153670000D01*
X169545000Y-143510000D02*
X163830000Y-143510000D01*
X170180000Y-142875000D02*
X169545000Y-143510000D01*
X170180000Y-109855000D02*
X170180000Y-142875000D01*
X170815000Y-109220000D02*
X170180000Y-109855000D01*
X177800000Y-109220000D02*
X170815000Y-109220000D01*
X177800000Y-107950000D02*
X177800000Y-109220000D01*
X179070000Y-106680000D02*
X177800000Y-107950000D01*
X164465000Y-144145000D02*
X152400000Y-144145000D01*
X151765000Y-153035000D02*
X150495000Y-154305000D01*
X151765000Y-144780000D02*
X151765000Y-153035000D01*
X152400000Y-144145000D02*
X151765000Y-144780000D01*
X180340000Y-109220000D02*
X179070000Y-109220000D01*
X133590000Y-153275000D02*
X133590000Y-151740000D01*
X134620000Y-154305000D02*
X133590000Y-153275000D01*
X150495000Y-154305000D02*
X134620000Y-154305000D01*
X170180000Y-144145000D02*
X164465000Y-144145000D01*
X170815000Y-143510000D02*
X170180000Y-144145000D01*
X170815000Y-110490000D02*
X170815000Y-143510000D01*
X171450000Y-109855000D02*
X170815000Y-110490000D01*
X178435000Y-109855000D02*
X171450000Y-109855000D01*
X179070000Y-109220000D02*
X178435000Y-109855000D01*
X173990000Y-124460000D02*
X177165000Y-124460000D01*
X181610000Y-115570000D02*
X180340000Y-114300000D01*
X181610000Y-123190000D02*
X181610000Y-115570000D01*
X178435000Y-123190000D02*
X181610000Y-123190000D01*
X177165000Y-124460000D02*
X178435000Y-123190000D01*
X177800000Y-127000000D02*
X180340000Y-127000000D01*
X176530000Y-125730000D02*
X177800000Y-127000000D01*
X135255000Y-105410000D02*
X130810000Y-105410000D01*
X139065000Y-109220000D02*
X135255000Y-105410000D01*
X143510000Y-123190000D02*
X142240000Y-121920000D01*
X143510000Y-133350000D02*
X143510000Y-123190000D01*
X125730000Y-115570000D02*
X125730000Y-109220000D01*
X125730000Y-109220000D02*
X127000000Y-107950000D01*
X130810000Y-107950000D02*
X127000000Y-107950000D01*
X143510000Y-133350000D02*
X148590000Y-138430000D01*
X132080000Y-121920000D02*
X125730000Y-115570000D01*
X142240000Y-121920000D02*
X132080000Y-121920000D01*
X151130000Y-138430000D02*
X156210000Y-138430000D01*
X148590000Y-133350000D02*
X144780000Y-129540000D01*
X128270000Y-110490000D02*
X130810000Y-110490000D01*
X127000000Y-111760000D02*
X128270000Y-110490000D01*
X127000000Y-115570000D02*
X127000000Y-111760000D01*
X132080000Y-120650000D02*
X127000000Y-115570000D01*
X143510000Y-120650000D02*
X132080000Y-120650000D01*
X144780000Y-121920000D02*
X143510000Y-120650000D01*
X144780000Y-129540000D02*
X144780000Y-121920000D01*
X156210000Y-133350000D02*
X151130000Y-133350000D01*
X148590000Y-128270000D02*
X148590000Y-127000000D01*
X129540000Y-113030000D02*
X130810000Y-113030000D01*
X128270000Y-114300000D02*
X129540000Y-113030000D01*
X128270000Y-115570000D02*
X128270000Y-114300000D01*
X129540000Y-116840000D02*
X128270000Y-115570000D01*
X130810000Y-118110000D02*
X129540000Y-116840000D01*
X132080000Y-119380000D02*
X130810000Y-118110000D01*
X144780000Y-119380000D02*
X132080000Y-119380000D01*
X146050000Y-120650000D02*
X144780000Y-119380000D01*
X146050000Y-121920000D02*
X146050000Y-120650000D01*
X146050000Y-124460000D02*
X146050000Y-121920000D01*
X148590000Y-127000000D02*
X146050000Y-124460000D01*
X151130000Y-128270000D02*
X156210000Y-128270000D01*
X130810000Y-115570000D02*
X130810000Y-116840000D01*
X148590000Y-121920000D02*
X148590000Y-123190000D01*
X147320000Y-120650000D02*
X148590000Y-121920000D01*
X144780000Y-118110000D02*
X147320000Y-120650000D01*
X132080000Y-118110000D02*
X144780000Y-118110000D01*
X130810000Y-116840000D02*
X132080000Y-118110000D01*
X156210000Y-123190000D02*
X151130000Y-123190000D01*
X148590000Y-118110000D02*
X147320000Y-118110000D01*
X144780000Y-115570000D02*
X140970000Y-115570000D01*
X147320000Y-118110000D02*
X144780000Y-115570000D01*
X156210000Y-118110000D02*
X151130000Y-118110000D01*
X148590000Y-113030000D02*
X140970000Y-113030000D01*
X156210000Y-113030000D02*
X151130000Y-113030000D01*
X148590000Y-107950000D02*
X147320000Y-107950000D01*
X144780000Y-110490000D02*
X140970000Y-110490000D01*
X147320000Y-107950000D02*
X144780000Y-110490000D01*
X151130000Y-107950000D02*
X156210000Y-107950000D01*
X148590000Y-102870000D02*
X147320000Y-102870000D01*
X142240000Y-107950000D02*
X140970000Y-107950000D01*
X147320000Y-102870000D02*
X142240000Y-107950000D01*
X156210000Y-102870000D02*
X151130000Y-102870000D01*
X140970000Y-91440000D02*
X139700000Y-91440000D01*
X139700000Y-100330000D02*
X140970000Y-100330000D01*
X138430000Y-99060000D02*
X139700000Y-100330000D01*
X138430000Y-92710000D02*
X138430000Y-99060000D01*
X139700000Y-91440000D02*
X138430000Y-92710000D01*
M02*
