G04 #@! TF.FileFunction,Copper,L2,Bot,Signal*
%FSLAX46Y46*%
G04 Gerber Fmt 4.6, Leading zero omitted, Abs format (unit mm)*
G04 Created by KiCad (PCBNEW 4.0.6) date Tue Nov 21 21:51:27 2017*
%MOMM*%
%LPD*%
G01*
G04 APERTURE LIST*
%ADD10C,0.100000*%
%ADD11R,1.700000X1.700000*%
%ADD12O,1.700000X1.700000*%
%ADD13C,1.600000*%
%ADD14O,1.600000X1.600000*%
%ADD15R,1.600000X1.600000*%
%ADD16C,0.600000*%
%ADD17C,0.250000*%
G04 APERTURE END LIST*
D10*
D11*
X148590000Y-151130000D03*
D12*
X148590000Y-148590000D03*
X148590000Y-146050000D03*
X148590000Y-143510000D03*
D11*
X180340000Y-91440000D03*
D12*
X182880000Y-91440000D03*
X180340000Y-93980000D03*
X182880000Y-93980000D03*
X180340000Y-96520000D03*
X182880000Y-96520000D03*
X180340000Y-99060000D03*
X182880000Y-99060000D03*
X180340000Y-101600000D03*
X182880000Y-101600000D03*
X180340000Y-104140000D03*
X182880000Y-104140000D03*
X180340000Y-106680000D03*
X182880000Y-106680000D03*
X180340000Y-109220000D03*
X182880000Y-109220000D03*
X180340000Y-111760000D03*
X182880000Y-111760000D03*
X180340000Y-114300000D03*
X182880000Y-114300000D03*
X180340000Y-116840000D03*
X182880000Y-116840000D03*
X180340000Y-119380000D03*
X182880000Y-119380000D03*
X180340000Y-121920000D03*
X182880000Y-121920000D03*
X180340000Y-124460000D03*
X182880000Y-124460000D03*
X180340000Y-127000000D03*
X182880000Y-127000000D03*
X180340000Y-129540000D03*
X182880000Y-129540000D03*
X180340000Y-132080000D03*
X182880000Y-132080000D03*
X180340000Y-134620000D03*
X182880000Y-134620000D03*
X180340000Y-137160000D03*
X182880000Y-137160000D03*
X180340000Y-139700000D03*
X182880000Y-139700000D03*
D11*
X154305000Y-146685000D03*
D12*
X154305000Y-149225000D03*
X154305000Y-151765000D03*
D11*
X173990000Y-93980000D03*
D12*
X173990000Y-96520000D03*
D11*
X158750000Y-93980000D03*
D12*
X158750000Y-96520000D03*
D11*
X170180000Y-93980000D03*
D12*
X170180000Y-96520000D03*
D11*
X166370000Y-93980000D03*
D12*
X166370000Y-96520000D03*
D11*
X148590000Y-138430000D03*
D12*
X151130000Y-138430000D03*
D11*
X148590000Y-133350000D03*
D12*
X151130000Y-133350000D03*
D11*
X148590000Y-128270000D03*
D12*
X151130000Y-128270000D03*
D11*
X148590000Y-123190000D03*
D12*
X151130000Y-123190000D03*
D11*
X148590000Y-118110000D03*
D12*
X151130000Y-118110000D03*
D11*
X148590000Y-113030000D03*
D12*
X151130000Y-113030000D03*
D11*
X148590000Y-107950000D03*
D12*
X151130000Y-107950000D03*
D11*
X148590000Y-102870000D03*
D12*
X151130000Y-102870000D03*
D13*
X140970000Y-91440000D03*
D14*
X130810000Y-91440000D03*
D13*
X166370000Y-138430000D03*
D14*
X156210000Y-138430000D03*
D13*
X166370000Y-133350000D03*
D14*
X156210000Y-133350000D03*
D13*
X166370000Y-128270000D03*
D14*
X156210000Y-128270000D03*
D13*
X166370000Y-123190000D03*
D14*
X156210000Y-123190000D03*
D13*
X166370000Y-118110000D03*
D14*
X156210000Y-118110000D03*
D13*
X166370000Y-113030000D03*
D14*
X156210000Y-113030000D03*
D13*
X166370000Y-107950000D03*
D14*
X156210000Y-107950000D03*
D13*
X166370000Y-102870000D03*
D14*
X156210000Y-102870000D03*
D11*
X173990000Y-111760000D03*
D12*
X173990000Y-114300000D03*
X173990000Y-116840000D03*
X173990000Y-119380000D03*
X173990000Y-121920000D03*
X173990000Y-124460000D03*
X173990000Y-127000000D03*
X173990000Y-129540000D03*
D15*
X130810000Y-97790000D03*
D14*
X140970000Y-115570000D03*
X130810000Y-100330000D03*
X140970000Y-113030000D03*
X130810000Y-102870000D03*
X140970000Y-110490000D03*
X130810000Y-105410000D03*
X140970000Y-107950000D03*
X130810000Y-107950000D03*
X140970000Y-105410000D03*
X130810000Y-110490000D03*
X140970000Y-102870000D03*
X130810000Y-113030000D03*
X140970000Y-100330000D03*
X130810000Y-115570000D03*
X140970000Y-97790000D03*
D16*
X140335000Y-147955000D03*
X135890000Y-123190000D03*
X129540000Y-131445000D03*
X131445000Y-144780000D03*
X140335000Y-153670000D03*
X176530000Y-125730000D03*
X139065000Y-109220000D03*
D17*
X161290000Y-146050000D02*
X154940000Y-146050000D01*
X154940000Y-146050000D02*
X154305000Y-146685000D01*
X154305000Y-146685000D02*
X153035000Y-146685000D01*
X153035000Y-146685000D02*
X150495000Y-149225000D01*
X150495000Y-149225000D02*
X150495000Y-151130000D01*
X166370000Y-138430000D02*
X166370000Y-146050000D01*
X166370000Y-146050000D02*
X161290000Y-146050000D01*
X150495000Y-151130000D02*
X148590000Y-151130000D01*
X180340000Y-93980000D02*
X173990000Y-93980000D01*
X173990000Y-93980000D02*
X170180000Y-93980000D01*
X170180000Y-93980000D02*
X166370000Y-93980000D01*
X180340000Y-96520000D02*
X173990000Y-96520000D01*
X173990000Y-96520000D02*
X170180000Y-96520000D01*
X170180000Y-96520000D02*
X166370000Y-96520000D01*
X165100000Y-148590000D02*
X154940000Y-148590000D01*
X154940000Y-148590000D02*
X154305000Y-149225000D01*
X154305000Y-149225000D02*
X152400000Y-149225000D01*
X151765000Y-149860000D02*
X151765000Y-153670000D01*
X152400000Y-149225000D02*
X151765000Y-149860000D01*
X166370000Y-148590000D02*
X165100000Y-148590000D01*
X146050000Y-153670000D02*
X140335000Y-147955000D01*
X151765000Y-153670000D02*
X146050000Y-153670000D01*
X127635000Y-97790000D02*
X130810000Y-97790000D01*
X127000000Y-98425000D02*
X127635000Y-97790000D01*
X127000000Y-122555000D02*
X127000000Y-98425000D01*
X127635000Y-123190000D02*
X127000000Y-122555000D01*
X135890000Y-123190000D02*
X127635000Y-123190000D01*
X180340000Y-139700000D02*
X180340000Y-144780000D01*
X176530000Y-148590000D02*
X166370000Y-148590000D01*
X180340000Y-144780000D02*
X176530000Y-148590000D01*
X182880000Y-99060000D02*
X184150000Y-99060000D01*
X158750000Y-90170000D02*
X158750000Y-93980000D01*
X160020000Y-88900000D02*
X158750000Y-90170000D01*
X177800000Y-88900000D02*
X160020000Y-88900000D01*
X184150000Y-88900000D02*
X177800000Y-88900000D01*
X185420000Y-90170000D02*
X184150000Y-88900000D01*
X185420000Y-97790000D02*
X185420000Y-90170000D01*
X184150000Y-99060000D02*
X185420000Y-97790000D01*
X182880000Y-101600000D02*
X184150000Y-101600000D01*
X184150000Y-101600000D02*
X186055000Y-99695000D01*
X186055000Y-99695000D02*
X186055000Y-90170000D01*
X186055000Y-90170000D02*
X186055000Y-89535000D01*
X186055000Y-89535000D02*
X184785000Y-88265000D01*
X184785000Y-88265000D02*
X157480000Y-88265000D01*
X157480000Y-88265000D02*
X156845000Y-88900000D01*
X156845000Y-88900000D02*
X156845000Y-95885000D01*
X156845000Y-95885000D02*
X157480000Y-96520000D01*
X157480000Y-96520000D02*
X158750000Y-96520000D01*
X180340000Y-104140000D02*
X177165000Y-100965000D01*
X125730000Y-127635000D02*
X129540000Y-131445000D01*
X125730000Y-96520000D02*
X125730000Y-127635000D01*
X127635000Y-94615000D02*
X125730000Y-96520000D01*
X142240000Y-94615000D02*
X127635000Y-94615000D01*
X142875000Y-95250000D02*
X142240000Y-94615000D01*
X142875000Y-97790000D02*
X142875000Y-95250000D01*
X144145000Y-99060000D02*
X142875000Y-97790000D01*
X175260000Y-99060000D02*
X144145000Y-99060000D01*
X177165000Y-100965000D02*
X175260000Y-99060000D01*
X131445000Y-152400000D02*
X131445000Y-144780000D01*
X132715000Y-153670000D02*
X131445000Y-152400000D01*
X140335000Y-153670000D02*
X132715000Y-153670000D01*
X180340000Y-116840000D02*
X178435000Y-116840000D01*
X175260000Y-121920000D02*
X173990000Y-121920000D01*
X175895000Y-121285000D02*
X175260000Y-121920000D01*
X175895000Y-119380000D02*
X175895000Y-121285000D01*
X178435000Y-116840000D02*
X175895000Y-119380000D01*
X173990000Y-114300000D02*
X177165000Y-114300000D01*
X181610000Y-115570000D02*
X182880000Y-116840000D01*
X181610000Y-113030000D02*
X181610000Y-115570000D01*
X178435000Y-113030000D02*
X181610000Y-113030000D01*
X177165000Y-114300000D02*
X178435000Y-113030000D01*
X173990000Y-127000000D02*
X177800000Y-127000000D01*
X179070000Y-119380000D02*
X180340000Y-119380000D01*
X178435000Y-120015000D02*
X179070000Y-119380000D01*
X178435000Y-126365000D02*
X178435000Y-120015000D01*
X177800000Y-127000000D02*
X178435000Y-126365000D01*
X173990000Y-129540000D02*
X177165000Y-129540000D01*
X181610000Y-120650000D02*
X182880000Y-119380000D01*
X181610000Y-128270000D02*
X181610000Y-120650000D01*
X178435000Y-128270000D02*
X181610000Y-128270000D01*
X177165000Y-129540000D02*
X178435000Y-128270000D01*
X140970000Y-105410000D02*
X170815000Y-105410000D01*
X172085000Y-125730000D02*
X176530000Y-125730000D01*
X171450000Y-125095000D02*
X172085000Y-125730000D01*
X171450000Y-106045000D02*
X171450000Y-125095000D01*
X170815000Y-105410000D02*
X171450000Y-106045000D01*
X180340000Y-129540000D02*
X179070000Y-129540000D01*
X142875000Y-109220000D02*
X139065000Y-109220000D01*
X144145000Y-110490000D02*
X142875000Y-109220000D01*
X169545000Y-110490000D02*
X144145000Y-110490000D01*
X170180000Y-111125000D02*
X169545000Y-110490000D01*
X170180000Y-130810000D02*
X170180000Y-111125000D01*
X171450000Y-132080000D02*
X170180000Y-130810000D01*
X176530000Y-132080000D02*
X171450000Y-132080000D01*
X179070000Y-129540000D02*
X176530000Y-132080000D01*
X140970000Y-102870000D02*
X142875000Y-102870000D01*
X181610000Y-133350000D02*
X180340000Y-134620000D01*
X184785000Y-133350000D02*
X181610000Y-133350000D01*
X185420000Y-132715000D02*
X184785000Y-133350000D01*
X185420000Y-106045000D02*
X185420000Y-132715000D01*
X184785000Y-105410000D02*
X185420000Y-106045000D01*
X179070000Y-105410000D02*
X184785000Y-105410000D01*
X173990000Y-100330000D02*
X179070000Y-105410000D01*
X145415000Y-100330000D02*
X173990000Y-100330000D01*
X142875000Y-102870000D02*
X145415000Y-100330000D01*
X130810000Y-100330000D02*
X137795000Y-100330000D01*
X181610000Y-135890000D02*
X182880000Y-137160000D01*
X146050000Y-135890000D02*
X181610000Y-135890000D01*
X145415000Y-135255000D02*
X146050000Y-135890000D01*
X145415000Y-122555000D02*
X145415000Y-135255000D01*
X138430000Y-115570000D02*
X145415000Y-122555000D01*
X138430000Y-100965000D02*
X138430000Y-115570000D01*
X137795000Y-100330000D02*
X138430000Y-100965000D01*
X182880000Y-139700000D02*
X181610000Y-138430000D01*
X137160000Y-102870000D02*
X130810000Y-102870000D01*
X137795000Y-103505000D02*
X137160000Y-102870000D01*
X137795000Y-116205000D02*
X137795000Y-103505000D01*
X144780000Y-123190000D02*
X137795000Y-116205000D01*
X144780000Y-135890000D02*
X144780000Y-123190000D01*
X145415000Y-136525000D02*
X144780000Y-135890000D01*
X169545000Y-136525000D02*
X145415000Y-136525000D01*
X171450000Y-138430000D02*
X169545000Y-136525000D01*
X181610000Y-138430000D02*
X171450000Y-138430000D01*
M02*
