M48
;DRILL file {KiCad 4.0.6} date Thu Nov 23 01:04:50 2017
;FORMAT={-:-/ absolute / metric / decimal}
FMAT,2
METRIC,TZ
T1C0.400
T2C0.800
T3C1.000
%
G90
G05
M71
T1
X127.Y-120.015
X131.445Y-144.78
X135.89Y-123.19
X136.525Y-153.67
X139.065Y-109.22
X139.065Y-135.255
X173.99Y-136.525
X176.53Y-125.73
X181.61Y-142.24
T2
X130.81Y-91.44
X130.81Y-97.79
X130.81Y-100.33
X130.81Y-102.87
X130.81Y-105.41
X130.81Y-107.95
X130.81Y-110.49
X130.81Y-113.03
X130.81Y-115.57
X140.97Y-91.44
X140.97Y-97.79
X140.97Y-100.33
X140.97Y-102.87
X140.97Y-105.41
X140.97Y-107.95
X140.97Y-110.49
X140.97Y-113.03
X140.97Y-115.57
X156.21Y-102.87
X156.21Y-107.95
X156.21Y-113.03
X156.21Y-118.11
X156.21Y-123.19
X156.21Y-128.27
X156.21Y-133.35
X156.21Y-138.43
X166.37Y-102.87
X166.37Y-107.95
X166.37Y-113.03
X166.37Y-118.11
X166.37Y-123.19
X166.37Y-128.27
X166.37Y-133.35
X166.37Y-138.43
T3
X148.59Y-102.87
X148.59Y-107.95
X148.59Y-113.03
X148.59Y-118.11
X148.59Y-123.19
X148.59Y-128.27
X148.59Y-133.35
X148.59Y-138.43
X148.59Y-143.51
X148.59Y-146.05
X148.59Y-148.59
X148.59Y-151.13
X151.13Y-102.87
X151.13Y-107.95
X151.13Y-113.03
X151.13Y-118.11
X151.13Y-123.19
X151.13Y-128.27
X151.13Y-133.35
X151.13Y-138.43
X156.21Y-146.685
X156.21Y-149.225
X156.21Y-151.765
X158.75Y-93.98
X158.75Y-96.52
X166.37Y-93.98
X166.37Y-96.52
X170.18Y-93.98
X170.18Y-96.52
X173.99Y-93.98
X173.99Y-96.52
X173.99Y-111.76
X173.99Y-114.3
X173.99Y-116.84
X173.99Y-119.38
X173.99Y-121.92
X173.99Y-124.46
X173.99Y-127.
X173.99Y-129.54
X180.34Y-91.44
X180.34Y-93.98
X180.34Y-96.52
X180.34Y-99.06
X180.34Y-101.6
X180.34Y-104.14
X180.34Y-106.68
X180.34Y-109.22
X180.34Y-111.76
X180.34Y-114.3
X180.34Y-116.84
X180.34Y-119.38
X180.34Y-121.92
X180.34Y-124.46
X180.34Y-127.
X180.34Y-129.54
X180.34Y-132.08
X180.34Y-134.62
X180.34Y-137.16
X180.34Y-139.7
X182.88Y-91.44
X182.88Y-93.98
X182.88Y-96.52
X182.88Y-99.06
X182.88Y-101.6
X182.88Y-104.14
X182.88Y-106.68
X182.88Y-109.22
X182.88Y-111.76
X182.88Y-114.3
X182.88Y-116.84
X182.88Y-119.38
X182.88Y-121.92
X182.88Y-124.46
X182.88Y-127.
X182.88Y-129.54
X182.88Y-132.08
X182.88Y-134.62
X182.88Y-137.16
X182.88Y-139.7
T0
M30
