G04 #@! TF.FileFunction,Copper,L1,Top,Signal*
%FSLAX46Y46*%
G04 Gerber Fmt 4.6, Leading zero omitted, Abs format (unit mm)*
G04 Created by KiCad (PCBNEW 4.0.6) date Thu Nov 23 01:41:39 2017*
%MOMM*%
%LPD*%
G01*
G04 APERTURE LIST*
%ADD10C,0.100000*%
%ADD11R,1.700000X1.700000*%
%ADD12O,1.700000X1.700000*%
%ADD13R,3.800000X2.000000*%
%ADD14R,1.500000X2.000000*%
%ADD15C,1.600000*%
%ADD16O,1.600000X1.600000*%
%ADD17R,1.600000X1.600000*%
%ADD18R,2.030000X2.650000*%
%ADD19R,2.650000X2.030000*%
%ADD20C,0.600000*%
%ADD21C,0.500000*%
%ADD22C,1.000000*%
%ADD23C,0.200000*%
%ADD24C,0.250000*%
G04 APERTURE END LIST*
D10*
D11*
X148590000Y-151130000D03*
D12*
X148590000Y-148590000D03*
X148590000Y-146050000D03*
X148590000Y-143510000D03*
D11*
X180340000Y-91440000D03*
D12*
X182880000Y-91440000D03*
X180340000Y-93980000D03*
X182880000Y-93980000D03*
X180340000Y-96520000D03*
X182880000Y-96520000D03*
X180340000Y-99060000D03*
X182880000Y-99060000D03*
X180340000Y-101600000D03*
X182880000Y-101600000D03*
X180340000Y-104140000D03*
X182880000Y-104140000D03*
X180340000Y-106680000D03*
X182880000Y-106680000D03*
X180340000Y-109220000D03*
X182880000Y-109220000D03*
X180340000Y-111760000D03*
X182880000Y-111760000D03*
X180340000Y-114300000D03*
X182880000Y-114300000D03*
X180340000Y-116840000D03*
X182880000Y-116840000D03*
X180340000Y-119380000D03*
X182880000Y-119380000D03*
X180340000Y-121920000D03*
X182880000Y-121920000D03*
X180340000Y-124460000D03*
X182880000Y-124460000D03*
X180340000Y-127000000D03*
X182880000Y-127000000D03*
X180340000Y-129540000D03*
X182880000Y-129540000D03*
X180340000Y-132080000D03*
X182880000Y-132080000D03*
X180340000Y-134620000D03*
X182880000Y-134620000D03*
X180340000Y-137160000D03*
X182880000Y-137160000D03*
X180340000Y-139700000D03*
X182880000Y-139700000D03*
D11*
X156210000Y-146685000D03*
D12*
X156210000Y-149225000D03*
X156210000Y-151765000D03*
D11*
X173990000Y-93980000D03*
D12*
X173990000Y-96520000D03*
D11*
X158750000Y-93980000D03*
D12*
X158750000Y-96520000D03*
D11*
X170180000Y-93980000D03*
D12*
X170180000Y-96520000D03*
D11*
X166370000Y-93980000D03*
D12*
X166370000Y-96520000D03*
D11*
X148590000Y-138430000D03*
D12*
X151130000Y-138430000D03*
D11*
X148590000Y-133350000D03*
D12*
X151130000Y-133350000D03*
D11*
X148590000Y-128270000D03*
D12*
X151130000Y-128270000D03*
D11*
X148590000Y-123190000D03*
D12*
X151130000Y-123190000D03*
D11*
X148590000Y-118110000D03*
D12*
X151130000Y-118110000D03*
D11*
X148590000Y-113030000D03*
D12*
X151130000Y-113030000D03*
D11*
X148590000Y-107950000D03*
D12*
X151130000Y-107950000D03*
D11*
X148590000Y-102870000D03*
D12*
X151130000Y-102870000D03*
D13*
X135890000Y-125120000D03*
D14*
X135890000Y-131420000D03*
X138190000Y-131420000D03*
X133590000Y-131420000D03*
D13*
X135890000Y-135280000D03*
D14*
X135890000Y-141580000D03*
X138190000Y-141580000D03*
X133590000Y-141580000D03*
D13*
X135890000Y-145440000D03*
D14*
X135890000Y-151740000D03*
X138190000Y-151740000D03*
X133590000Y-151740000D03*
D15*
X140970000Y-91440000D03*
D16*
X130810000Y-91440000D03*
D15*
X166370000Y-138430000D03*
D16*
X156210000Y-138430000D03*
D15*
X166370000Y-133350000D03*
D16*
X156210000Y-133350000D03*
D15*
X166370000Y-128270000D03*
D16*
X156210000Y-128270000D03*
D15*
X166370000Y-123190000D03*
D16*
X156210000Y-123190000D03*
D15*
X166370000Y-118110000D03*
D16*
X156210000Y-118110000D03*
D15*
X166370000Y-113030000D03*
D16*
X156210000Y-113030000D03*
D15*
X166370000Y-107950000D03*
D16*
X156210000Y-107950000D03*
D15*
X166370000Y-102870000D03*
D16*
X156210000Y-102870000D03*
D11*
X173990000Y-111760000D03*
D12*
X173990000Y-114300000D03*
X173990000Y-116840000D03*
X173990000Y-119380000D03*
X173990000Y-121920000D03*
X173990000Y-124460000D03*
X173990000Y-127000000D03*
X173990000Y-129540000D03*
D17*
X130810000Y-97790000D03*
D16*
X140970000Y-115570000D03*
X130810000Y-100330000D03*
X140970000Y-113030000D03*
X130810000Y-102870000D03*
X140970000Y-110490000D03*
X130810000Y-105410000D03*
X140970000Y-107950000D03*
X130810000Y-107950000D03*
X140970000Y-105410000D03*
X130810000Y-110490000D03*
X140970000Y-102870000D03*
X130810000Y-113030000D03*
X140970000Y-100330000D03*
X130810000Y-115570000D03*
X140970000Y-97790000D03*
D18*
X141605000Y-131260000D03*
X141605000Y-135440000D03*
D19*
X141420000Y-146050000D03*
X145600000Y-146050000D03*
X141420000Y-150495000D03*
X145600000Y-150495000D03*
D20*
X139065000Y-135255000D03*
X135890000Y-123190000D03*
X127000000Y-120015000D03*
X131445000Y-144780000D03*
X136525000Y-153670000D03*
X176530000Y-125730000D03*
X139065000Y-109220000D03*
X173990000Y-136525000D03*
X181610000Y-142240000D03*
D21*
X166370000Y-102870000D02*
X166370000Y-102235000D01*
X166370000Y-102235000D02*
X164465000Y-100330000D01*
X142240000Y-97790000D02*
X140970000Y-97790000D01*
X144780000Y-100330000D02*
X142240000Y-97790000D01*
X164465000Y-100330000D02*
X144780000Y-100330000D01*
D22*
X182880000Y-93980000D02*
X184150000Y-93980000D01*
X175895000Y-102870000D02*
X166370000Y-102870000D01*
X177165000Y-101600000D02*
X175895000Y-102870000D01*
X177165000Y-90170000D02*
X177165000Y-101600000D01*
X178435000Y-88900000D02*
X177165000Y-90170000D01*
X184150000Y-88900000D02*
X178435000Y-88900000D01*
X185420000Y-90170000D02*
X184150000Y-88900000D01*
X185420000Y-92710000D02*
X185420000Y-90170000D01*
X184150000Y-93980000D02*
X185420000Y-92710000D01*
X166370000Y-102870000D02*
X166370000Y-107950000D01*
X166370000Y-113030000D02*
X166370000Y-107950000D01*
X166370000Y-138430000D02*
X166370000Y-133350000D01*
X166370000Y-113030000D02*
X166370000Y-118110000D01*
X166370000Y-118110000D02*
X166370000Y-123190000D01*
X166370000Y-123190000D02*
X166370000Y-128270000D01*
X166370000Y-128270000D02*
X166370000Y-133350000D01*
D23*
X173990000Y-111760000D02*
X172085000Y-111760000D01*
X157480000Y-151765000D02*
X156210000Y-151765000D01*
X158115000Y-151130000D02*
X157480000Y-151765000D01*
X158115000Y-146050000D02*
X158115000Y-151130000D01*
X159385000Y-144780000D02*
X158115000Y-146050000D01*
X170815000Y-144780000D02*
X159385000Y-144780000D01*
X171450000Y-144145000D02*
X170815000Y-144780000D01*
X171450000Y-112395000D02*
X171450000Y-144145000D01*
X172085000Y-111760000D02*
X171450000Y-112395000D01*
D24*
X156210000Y-151130000D02*
X155575000Y-151765000D01*
X180340000Y-111760000D02*
X173990000Y-111760000D01*
D21*
X180340000Y-121920000D02*
X179705000Y-121920000D01*
X179705000Y-121920000D02*
X176530000Y-118745000D01*
X176530000Y-118745000D02*
X176530000Y-117475000D01*
X176530000Y-117475000D02*
X175895000Y-116840000D01*
X175895000Y-116840000D02*
X173990000Y-116840000D01*
X130810000Y-91440000D02*
X130810000Y-97790000D01*
X139040000Y-135280000D02*
X135890000Y-135280000D01*
X139065000Y-135255000D02*
X139040000Y-135280000D01*
X135890000Y-125120000D02*
X135890000Y-123190000D01*
X135890000Y-131420000D02*
X135890000Y-125120000D01*
X135890000Y-131420000D02*
X135890000Y-135280000D01*
X135890000Y-145440000D02*
X135890000Y-141580000D01*
X135890000Y-141580000D02*
X135890000Y-135280000D01*
X135890000Y-151740000D02*
X135890000Y-145440000D01*
D23*
X133590000Y-131420000D02*
X132055000Y-131420000D01*
X131445000Y-124460000D02*
X127000000Y-120015000D01*
X131445000Y-130810000D02*
X131445000Y-124460000D01*
X132055000Y-131420000D02*
X131445000Y-130810000D01*
X180340000Y-106680000D02*
X179070000Y-106680000D01*
X132080000Y-141605000D02*
X133565000Y-141605000D01*
X131445000Y-142240000D02*
X132080000Y-141605000D01*
X131445000Y-144780000D02*
X131445000Y-142240000D01*
X150495000Y-153670000D02*
X136525000Y-153670000D01*
X151130000Y-153035000D02*
X150495000Y-153670000D01*
X151130000Y-144145000D02*
X151130000Y-153035000D01*
X151765000Y-143510000D02*
X151130000Y-144145000D01*
X169545000Y-143510000D02*
X151765000Y-143510000D01*
X170180000Y-142875000D02*
X169545000Y-143510000D01*
X170180000Y-109855000D02*
X170180000Y-142875000D01*
X170815000Y-109220000D02*
X170180000Y-109855000D01*
X177800000Y-109220000D02*
X170815000Y-109220000D01*
X178435000Y-108585000D02*
X177800000Y-109220000D01*
X178435000Y-107315000D02*
X178435000Y-108585000D01*
X179070000Y-106680000D02*
X178435000Y-107315000D01*
X133565000Y-141605000D02*
X133590000Y-141580000D01*
X133565000Y-141605000D02*
X133590000Y-141580000D01*
X180340000Y-109220000D02*
X179070000Y-109220000D01*
X133590000Y-153910000D02*
X133590000Y-151740000D01*
X133985000Y-154305000D02*
X133590000Y-153910000D01*
X151130000Y-154305000D02*
X133985000Y-154305000D01*
X151765000Y-153670000D02*
X151130000Y-154305000D01*
X151765000Y-144780000D02*
X151765000Y-153670000D01*
X152400000Y-144145000D02*
X151765000Y-144780000D01*
X170180000Y-144145000D02*
X152400000Y-144145000D01*
X170815000Y-143510000D02*
X170180000Y-144145000D01*
X170815000Y-110490000D02*
X170815000Y-143510000D01*
X171450000Y-109855000D02*
X170815000Y-110490000D01*
X178435000Y-109855000D02*
X171450000Y-109855000D01*
X179070000Y-109220000D02*
X178435000Y-109855000D01*
X180340000Y-114300000D02*
X181610000Y-115570000D01*
X178435000Y-124460000D02*
X173990000Y-124460000D01*
X179705000Y-125730000D02*
X178435000Y-124460000D01*
X184150000Y-125730000D02*
X179705000Y-125730000D01*
X184150000Y-123190000D02*
X184150000Y-125730000D01*
X184150000Y-120650000D02*
X184150000Y-123190000D01*
X181610000Y-120650000D02*
X184150000Y-120650000D01*
X181610000Y-115570000D02*
X181610000Y-120650000D01*
X177800000Y-127000000D02*
X180340000Y-127000000D01*
X176530000Y-125730000D02*
X177800000Y-127000000D01*
X135255000Y-105410000D02*
X130810000Y-105410000D01*
X139065000Y-109220000D02*
X135255000Y-105410000D01*
X173990000Y-139065000D02*
X173990000Y-136525000D01*
X177165000Y-142240000D02*
X173990000Y-139065000D01*
X181610000Y-142240000D02*
X177165000Y-142240000D01*
D24*
X148590000Y-138430000D02*
X146050000Y-138430000D01*
X128270000Y-107950000D02*
X130810000Y-107950000D01*
X127635000Y-108585000D02*
X128270000Y-107950000D01*
X127635000Y-118110000D02*
X127635000Y-108585000D01*
X128270000Y-118745000D02*
X127635000Y-118110000D01*
X130175000Y-118745000D02*
X128270000Y-118745000D01*
X130810000Y-119380000D02*
X130175000Y-118745000D01*
X142240000Y-119380000D02*
X130810000Y-119380000D01*
X145415000Y-122555000D02*
X142240000Y-119380000D01*
X145415000Y-137795000D02*
X145415000Y-122555000D01*
X146050000Y-138430000D02*
X145415000Y-137795000D01*
X156210000Y-138430000D02*
X151130000Y-138430000D01*
X148590000Y-133350000D02*
X146685000Y-133350000D01*
X128905000Y-110490000D02*
X130810000Y-110490000D01*
X128270000Y-111125000D02*
X128905000Y-110490000D01*
X128270000Y-117475000D02*
X128270000Y-111125000D01*
X128905000Y-118110000D02*
X128270000Y-117475000D01*
X130810000Y-118110000D02*
X128905000Y-118110000D01*
X131445000Y-118745000D02*
X130810000Y-118110000D01*
X132080000Y-118745000D02*
X131445000Y-118745000D01*
X142875000Y-118745000D02*
X132080000Y-118745000D01*
X146050000Y-121920000D02*
X142875000Y-118745000D01*
X146050000Y-132715000D02*
X146050000Y-121920000D01*
X146685000Y-133350000D02*
X146050000Y-132715000D01*
X156210000Y-133350000D02*
X151130000Y-133350000D01*
X151130000Y-133350000D02*
X151130000Y-132080000D01*
X148590000Y-128270000D02*
X147320000Y-128270000D01*
X129540000Y-113030000D02*
X130810000Y-113030000D01*
X128905000Y-113665000D02*
X129540000Y-113030000D01*
X128905000Y-116840000D02*
X128905000Y-113665000D01*
X129540000Y-117475000D02*
X128905000Y-116840000D01*
X131445000Y-117475000D02*
X129540000Y-117475000D01*
X132080000Y-118110000D02*
X131445000Y-117475000D01*
X143510000Y-118110000D02*
X132080000Y-118110000D01*
X144145000Y-118745000D02*
X143510000Y-118110000D01*
X146685000Y-121285000D02*
X144145000Y-118745000D01*
X146685000Y-127635000D02*
X146685000Y-121285000D01*
X147320000Y-128270000D02*
X146685000Y-127635000D01*
X151130000Y-128270000D02*
X156210000Y-128270000D01*
X148590000Y-123190000D02*
X148590000Y-121920000D01*
X132080000Y-115570000D02*
X130810000Y-115570000D01*
X133985000Y-117475000D02*
X132080000Y-115570000D01*
X144145000Y-117475000D02*
X133985000Y-117475000D01*
X148590000Y-121920000D02*
X144145000Y-117475000D01*
X156210000Y-123190000D02*
X151130000Y-123190000D01*
X148590000Y-118110000D02*
X147320000Y-118110000D01*
X144780000Y-115570000D02*
X140970000Y-115570000D01*
X147320000Y-118110000D02*
X144780000Y-115570000D01*
X151130000Y-118110000D02*
X156210000Y-118110000D01*
X140970000Y-113030000D02*
X148590000Y-113030000D01*
X156210000Y-113030000D02*
X151130000Y-113030000D01*
X148590000Y-107950000D02*
X146050000Y-110490000D01*
X146050000Y-110490000D02*
X140970000Y-110490000D01*
X151130000Y-107950000D02*
X156210000Y-107950000D01*
X148590000Y-102870000D02*
X147320000Y-102870000D01*
X147320000Y-102870000D02*
X142240000Y-107950000D01*
X142240000Y-107950000D02*
X140970000Y-107950000D01*
X142240000Y-107950000D02*
X140970000Y-107950000D01*
X151130000Y-102870000D02*
X156210000Y-102870000D01*
D23*
X140970000Y-100330000D02*
X139065000Y-98425000D01*
X139065000Y-92710000D02*
X140335000Y-91440000D01*
X139065000Y-98425000D02*
X139065000Y-92710000D01*
X140335000Y-91440000D02*
X140970000Y-91440000D01*
D21*
X141605000Y-131260000D02*
X138350000Y-131260000D01*
X138350000Y-131260000D02*
X138190000Y-131420000D01*
X141605000Y-135440000D02*
X141605000Y-136525000D01*
X141605000Y-136525000D02*
X148590000Y-143510000D01*
X141420000Y-146050000D02*
X141420000Y-144810000D01*
X141420000Y-144810000D02*
X138190000Y-141580000D01*
X145600000Y-146050000D02*
X148590000Y-146050000D01*
X138190000Y-151740000D02*
X140175000Y-151740000D01*
X140175000Y-151740000D02*
X141420000Y-150495000D01*
X145600000Y-150495000D02*
X145600000Y-150310000D01*
X145600000Y-150310000D02*
X147320000Y-148590000D01*
X147320000Y-148590000D02*
X148590000Y-148590000D01*
M02*
