M48
;DRILL file {KiCad 4.0.6} date Tue Nov 21 01:35:12 2017
;FORMAT={-:-/ absolute / metric / decimal}
FMAT,2
METRIC,TZ
T1C0.800
T2C1.000
%
G90
G05
M71
T1
X139.7Y-96.52
X139.7Y-102.87
X139.7Y-105.41
X139.7Y-107.95
X139.7Y-110.49
X139.7Y-113.03
X139.7Y-115.57
X139.7Y-118.11
X139.7Y-120.65
X149.86Y-96.52
X149.86Y-102.87
X149.86Y-105.41
X149.86Y-107.95
X149.86Y-110.49
X149.86Y-113.03
X149.86Y-115.57
X149.86Y-118.11
X149.86Y-120.65
X162.56Y-97.79
X162.56Y-104.14
X162.56Y-110.49
X162.56Y-116.84
X162.56Y-123.19
X162.56Y-129.54
X162.56Y-135.89
X162.56Y-142.24
X172.72Y-97.79
X172.72Y-104.14
X172.72Y-110.49
X172.72Y-116.84
X172.72Y-123.19
X172.72Y-129.54
X172.72Y-135.89
X172.72Y-142.24
T2
X156.21Y-97.79
X156.21Y-104.14
X156.21Y-110.49
X156.21Y-116.84
X156.21Y-123.19
X156.21Y-129.54
X156.21Y-135.89
X156.21Y-142.24
X158.75Y-97.79
X158.75Y-104.14
X158.75Y-110.49
X158.75Y-116.84
X158.75Y-123.19
X158.75Y-129.54
X158.75Y-135.89
X158.75Y-142.24
X179.07Y-96.52
X179.07Y-99.06
X179.07Y-101.6
X179.07Y-104.14
X179.07Y-106.68
X179.07Y-109.22
X179.07Y-111.76
X179.07Y-114.3
X179.07Y-116.84
X179.07Y-119.38
X179.07Y-121.92
X179.07Y-124.46
X179.07Y-127.
X179.07Y-129.54
X179.07Y-132.08
X179.07Y-134.62
X179.07Y-137.16
X179.07Y-139.7
X179.07Y-142.24
X179.07Y-144.78
X181.61Y-96.52
X181.61Y-99.06
X181.61Y-101.6
X181.61Y-104.14
X181.61Y-106.68
X181.61Y-109.22
X181.61Y-111.76
X181.61Y-114.3
X181.61Y-116.84
X181.61Y-119.38
X181.61Y-121.92
X181.61Y-124.46
X181.61Y-127.
X181.61Y-129.54
X181.61Y-132.08
X181.61Y-134.62
X181.61Y-137.16
X181.61Y-139.7
X181.61Y-142.24
X181.61Y-144.78
X186.69Y-96.52
X186.69Y-99.06
X186.69Y-105.41
X186.69Y-107.95
T0
M30
